<svg width="1471" height="374" xmlns="http://www.w3.org/2000/svg" xmlns:xlink="http://www.w3.org/1999/xlink" overflow="hidden"><defs><filter id="fx0" x="-10%" y="-10%" width="120%" height="120%" filterUnits="userSpaceOnUse" primitiveUnits="userSpaceOnUse"><feComponentTransfer color-interpolation-filters="sRGB"><feFuncR type="discrete" tableValues="0 0"/><feFuncG type="discrete" tableValues="0.12549 0.12549"/><feFuncB type="discrete" tableValues="0.376471 0.376471"/><feFuncA type="linear" slope="1" intercept="0"/></feComponentTransfer><feGaussianBlur stdDeviation="1.71978 1.71978"/></filter><filter id="fx1" x="-10%" y="-10%" width="120%" height="120%" filterUnits="userSpaceOnUse" primitiveUnits="userSpaceOnUse"><feComponentTransfer color-interpolation-filters="sRGB"><feFuncR type="discrete" tableValues="0 0"/><feFuncG type="discrete" tableValues="0.12549 0.12549"/><feFuncB type="discrete" tableValues="0.376471 0.376471"/><feFuncA type="linear" slope="1" intercept="0"/></feComponentTransfer><feGaussianBlur stdDeviation="1.71978 1.71978"/></filter><filter id="fx2" x="-10%" y="-10%" width="120%" height="120%" filterUnits="userSpaceOnUse" primitiveUnits="userSpaceOnUse"><feComponentTransfer color-interpolation-filters="sRGB"><feFuncR type="discrete" tableValues="1 1"/><feFuncG type="discrete" tableValues="1 1"/><feFuncB type="discrete" tableValues="1 1"/><feFuncA type="linear" slope="1" intercept="0"/></feComponentTransfer><feGaussianBlur stdDeviation="0.862242 0.862242"/></filter><filter id="fx3" x="-10%" y="-10%" width="120%" height="120%" filterUnits="userSpaceOnUse" primitiveUnits="userSpaceOnUse"><feComponentTransfer color-interpolation-filters="sRGB"><feFuncR type="discrete" tableValues="1 1"/><feFuncG type="discrete" tableValues="1 1"/><feFuncB type="discrete" tableValues="1 1"/><feFuncA type="linear" slope="1" intercept="0"/></feComponentTransfer><feGaussianBlur stdDeviation="0.862242 0.862242"/></filter><filter id="fx4" x="-10%" y="-10%" width="120%" height="120%" filterUnits="userSpaceOnUse" primitiveUnits="userSpaceOnUse"><feComponentTransfer color-interpolation-filters="sRGB"><feFuncR type="discrete" tableValues="1 1"/><feFuncG type="discrete" tableValues="1 1"/><feFuncB type="discrete" tableValues="1 1"/><feFuncA type="linear" slope="1" intercept="0"/></feComponentTransfer><feGaussianBlur stdDeviation="0.862242 0.862242"/></filter><filter id="fx5" x="-10%" y="-10%" width="120%" height="120%" filterUnits="userSpaceOnUse" primitiveUnits="userSpaceOnUse"><feComponentTransfer color-interpolation-filters="sRGB"><feFuncR type="discrete" tableValues="1 1"/><feFuncG type="discrete" tableValues="1 1"/><feFuncB type="discrete" tableValues="1 1"/><feFuncA type="linear" slope="1" intercept="0"/></feComponentTransfer><feGaussianBlur stdDeviation="0.862242 0.862242"/></filter><filter id="fx6" x="-10%" y="-10%" width="120%" height="120%" filterUnits="userSpaceOnUse" primitiveUnits="userSpaceOnUse"><feComponentTransfer color-interpolation-filters="sRGB"><feFuncR type="discrete" tableValues="0 0"/><feFuncG type="discrete" tableValues="0 0"/><feFuncB type="discrete" tableValues="0 0"/><feFuncA type="linear" slope="0.4" intercept="0"/></feComponentTransfer><feGaussianBlur stdDeviation="1.77778 1.77778"/></filter><filter id="fx7" x="-10%" y="-10%" width="120%" height="120%" filterUnits="userSpaceOnUse" primitiveUnits="userSpaceOnUse"><feComponentTransfer color-interpolation-filters="sRGB"><feFuncR type="discrete" tableValues="0 0"/><feFuncG type="discrete" tableValues="0.12549 0.12549"/><feFuncB type="discrete" tableValues="0.376471 0.376471"/><feFuncA type="linear" slope="1" intercept="0"/></feComponentTransfer><feGaussianBlur stdDeviation="1.71978 1.71978"/></filter><filter id="fx8" x="-10%" y="-10%" width="120%" height="120%" filterUnits="userSpaceOnUse" primitiveUnits="userSpaceOnUse"><feComponentTransfer color-interpolation-filters="sRGB"><feFuncR type="discrete" tableValues="1 1"/><feFuncG type="discrete" tableValues="1 1"/><feFuncB type="discrete" tableValues="1 1"/><feFuncA type="linear" slope="1" intercept="0"/></feComponentTransfer><feGaussianBlur stdDeviation="0.862242 0.862242"/></filter><filter id="fx9" x="-10%" y="-10%" width="120%" height="120%" filterUnits="userSpaceOnUse" primitiveUnits="userSpaceOnUse"><feComponentTransfer color-interpolation-filters="sRGB"><feFuncR type="discrete" tableValues="1 1"/><feFuncG type="discrete" tableValues="1 1"/><feFuncB type="discrete" tableValues="1 1"/><feFuncA type="linear" slope="1" intercept="0"/></feComponentTransfer><feGaussianBlur stdDeviation="0.862242 0.862242"/></filter><clipPath id="clip10"><rect x="-545" y="700" width="1471" height="374"/></clipPath><clipPath id="clip11"><rect x="118" y="-2" width="1332" height="378"/></clipPath><clipPath id="clip12"><rect x="0" y="0" width="1473" height="376"/></clipPath><clipPath id="clip13"><rect x="62" y="54" width="80" height="82"/></clipPath><clipPath id="clip14"><rect x="0" y="0" width="202" height="216"/></clipPath><clipPath id="clip15"><rect x="62" y="54" width="80" height="82"/></clipPath><clipPath id="clip16"><rect x="0" y="0" width="202" height="216"/></clipPath><clipPath id="clip17"><rect x="0" y="1" width="65" height="73"/></clipPath><clipPath id="clip18"><rect x="0" y="0" width="65" height="74"/></clipPath><clipPath id="clip19"><rect x="0" y="1" width="65" height="73"/></clipPath><clipPath id="clip20"><rect x="0" y="0" width="65" height="74"/></clipPath><clipPath id="clip21"><rect x="1" y="1" width="78" height="73"/></clipPath><clipPath id="clip22"><rect x="0" y="0" width="80" height="74"/></clipPath><clipPath id="clip23"><rect x="1" y="1" width="78" height="73"/></clipPath><clipPath id="clip24"><rect x="0" y="0" width="80" height="74"/></clipPath><radialGradient cx="0.125" cy="0.125" r="4.18321e+06" fx="0" fy="0" gradientUnits="userSpaceOnUse" spreadMethod="pad" id="fill25" gradientTransform="matrix(0.000104987 0 0 0.000104987 -422 905)"><stop offset="0" stop-color="#F8CBAD"/><stop offset="0.19" stop-color="#F8CBAD"/><stop offset="0.46" stop-color="#FFFFFF"/><stop offset="1" stop-color="#FFFFFF"/></radialGradient><radialGradient cx="2.02882e+06" cy="1.78117e+06" r="2.69976e+06" fx="2.02882e+06" fy="1.78118e+06" gradientUnits="userSpaceOnUse" spreadMethod="pad" id="fill26" gradientTransform="matrix(0.000104987 0 0 0.000104987 -324 703)"><stop offset="0" stop-color="#00FF95"/><stop offset="0.00526316" stop-color="#00FE95"/><stop offset="0.0105263" stop-color="#00FE95"/><stop offset="0.0157895" stop-color="#00FE95"/><stop offset="0.0210526" stop-color="#00FE95"/><stop offset="0.0263158" stop-color="#00FE95"/><stop offset="0.0315789" stop-color="#00FE95"/><stop offset="0.0368421" stop-color="#00FE95"/><stop offset="0.0421053" stop-color="#00FE95"/><stop offset="0.0473684" stop-color="#00FE95"/><stop offset="0.0526316" stop-color="#00FE95"/><stop offset="0.0578947" stop-color="#00FE95"/><stop offset="0.0631579" stop-color="#00FD95"/><stop offset="0.0684211" stop-color="#00FD95"/><stop offset="0.0736842" stop-color="#00FD96"/><stop offset="0.0789474" stop-color="#01FD96"/><stop offset="0.0842105" stop-color="#01FD96"/><stop offset="0.0894737" stop-color="#01FC96"/><stop offset="0.0947368" stop-color="#01FC96"/><stop offset="0.1" stop-color="#01FC96"/><stop offset="0.105263" stop-color="#01FC96"/><stop offset="0.110526" stop-color="#01FB96"/><stop offset="0.115789" stop-color="#01FB96"/><stop offset="0.121053" stop-color="#01FB96"/><stop offset="0.126316" stop-color="#01FB96"/><stop offset="0.131579" stop-color="#01FA96"/><stop offset="0.136842" stop-color="#01FA96"/><stop offset="0.142105" stop-color="#01FA96"/><stop offset="0.147368" stop-color="#01F997"/><stop offset="0.152632" stop-color="#01F997"/><stop offset="0.157895" stop-color="#01F997"/><stop offset="0.163158" stop-color="#01F897"/><stop offset="0.168421" stop-color="#02F897"/><stop offset="0.173684" stop-color="#02F797"/><stop offset="0.178947" stop-color="#02F797"/><stop offset="0.184211" stop-color="#02F697"/><stop offset="0.189474" stop-color="#02F697"/><stop offset="0.194737" stop-color="#02F697"/><stop offset="0.2" stop-color="#02F597"/><stop offset="0.205263" stop-color="#02F597"/><stop offset="0.210526" stop-color="#02F497"/><stop offset="0.215789" stop-color="#02F497"/><stop offset="0.221053" stop-color="#02F397"/><stop offset="0.226316" stop-color="#02F398"/><stop offset="0.231579" stop-color="#02F298"/><stop offset="0.236842" stop-color="#02F298"/><stop offset="0.242105" stop-color="#02F198"/><stop offset="0.247368" stop-color="#02F198"/><stop offset="0.252632" stop-color="#02F098"/><stop offset="0.257895" stop-color="#02EF98"/><stop offset="0.263158" stop-color="#03EF98"/><stop offset="0.268421" stop-color="#03EE98"/><stop offset="0.273684" stop-color="#03EE98"/><stop offset="0.278947" stop-color="#03ED98"/><stop offset="0.284211" stop-color="#03EC98"/><stop offset="0.289474" stop-color="#03EC98"/><stop offset="0.294737" stop-color="#03EB98"/><stop offset="0.3" stop-color="#03EB98"/><stop offset="0.305263" stop-color="#03EA98"/><stop offset="0.310526" stop-color="#03E999"/><stop offset="0.315789" stop-color="#03E999"/><stop offset="0.321053" stop-color="#03E899"/><stop offset="0.326316" stop-color="#03E799"/><stop offset="0.331579" stop-color="#03E699"/><stop offset="0.336842" stop-color="#03E699"/><stop offset="0.342105" stop-color="#03E599"/><stop offset="0.347368" stop-color="#03E499"/><stop offset="0.352632" stop-color="#03E399"/><stop offset="0.357895" stop-color="#03E399"/><stop offset="0.363158" stop-color="#03E299"/><stop offset="0.368421" stop-color="#04E199"/><stop offset="0.373684" stop-color="#04E099"/><stop offset="0.378947" stop-color="#04E099"/><stop offset="0.384211" stop-color="#04DF99"/><stop offset="0.389474" stop-color="#04DE99"/><stop offset="0.394737" stop-color="#04DD99"/><stop offset="0.4" stop-color="#04DC99"/><stop offset="0.405263" stop-color="#04DB99"/><stop offset="0.410526" stop-color="#04DB9A"/><stop offset="0.415789" stop-color="#04DA9A"/><stop offset="0.421053" stop-color="#04D99A"/><stop offset="0.426316" stop-color="#04D89A"/><stop offset="0.431579" stop-color="#04D79A"/><stop offset="0.436842" stop-color="#04D69A"/><stop offset="0.442105" stop-color="#04D59A"/><stop offset="0.447368" stop-color="#04D49A"/><stop offset="0.452632" stop-color="#04D39A"/><stop offset="0.457895" stop-color="#04D29A"/><stop offset="0.463158" stop-color="#04D19A"/><stop offset="0.468421" stop-color="#04D09A"/><stop offset="0.473684" stop-color="#04CF9A"/><stop offset="0.478947" stop-color="#04CE9A"/><stop offset="0.484211" stop-color="#04CD9A"/><stop offset="0.489474" stop-color="#05CC9A"/><stop offset="0.494737" stop-color="#05CB9A"/><stop offset="0.5" stop-color="#05CA9A"/><stop offset="0.505263" stop-color="#05C99A"/><stop offset="0.510526" stop-color="#05C89A"/><stop offset="0.515789" stop-color="#05C79A"/><stop offset="0.521053" stop-color="#05C69A"/><stop offset="0.526316" stop-color="#05C59B"/><stop offset="0.531579" stop-color="#05C49B"/><stop offset="0.536842" stop-color="#05C39B"/><stop offset="0.542105" stop-color="#05C29B"/><stop offset="0.547368" stop-color="#05C19B"/><stop offset="0.552632" stop-color="#05C09B"/><stop offset="0.557895" stop-color="#05BF9B"/><stop offset="0.563158" stop-color="#05BD9B"/><stop offset="0.568421" stop-color="#05BC9B"/><stop offset="0.573684" stop-color="#05BB9B"/><stop offset="0.578947" stop-color="#05BA9B"/><stop offset="0.584211" stop-color="#05B99B"/><stop offset="0.589474" stop-color="#05B89B"/><stop offset="0.594737" stop-color="#05B69B"/><stop offset="0.6" stop-color="#05B59B"/><stop offset="0.605263" stop-color="#05B49B"/><stop offset="0.610526" stop-color="#05B39B"/><stop offset="0.615789" stop-color="#05B29B"/><stop offset="0.621053" stop-color="#05B09B"/><stop offset="0.626316" stop-color="#05AF9B"/><stop offset="0.631579" stop-color="#05AE9B"/><stop offset="0.636842" stop-color="#05AD9B"/><stop offset="0.642105" stop-color="#05AB9B"/><stop offset="0.647368" stop-color="#06AA9B"/><stop offset="0.652632" stop-color="#06A99B"/><stop offset="0.657895" stop-color="#06A79B"/><stop offset="0.663158" stop-color="#06A69B"/><stop offset="0.668421" stop-color="#06A59B"/><stop offset="0.673684" stop-color="#06A39C"/><stop offset="0.678947" stop-color="#06A29C"/><stop offset="0.684211" stop-color="#06A19C"/><stop offset="0.689474" stop-color="#069F9C"/><stop offset="0.694737" stop-color="#069E9C"/><stop offset="0.7" stop-color="#069D9C"/><stop offset="0.705263" stop-color="#069B9C"/><stop offset="0.710526" stop-color="#069A9C"/><stop offset="0.715789" stop-color="#06989C"/><stop offset="0.721053" stop-color="#06979C"/><stop offset="0.726316" stop-color="#06969C"/><stop offset="0.731579" stop-color="#06949C"/><stop offset="0.736842" stop-color="#06939C"/><stop offset="0.742105" stop-color="#06919C"/><stop offset="0.747368" stop-color="#06909C"/><stop offset="0.752632" stop-color="#068E9C"/><stop offset="0.757895" stop-color="#068D9C"/><stop offset="0.763158" stop-color="#068B9C"/><stop offset="0.768421" stop-color="#068A9C"/><stop offset="0.773684" stop-color="#06889C"/><stop offset="0.778947" stop-color="#06879C"/><stop offset="0.784211" stop-color="#06859C"/><stop offset="0.789474" stop-color="#06849C"/><stop offset="0.794737" stop-color="#06829C"/><stop offset="0.8" stop-color="#06819C"/><stop offset="0.805263" stop-color="#067F9C"/><stop offset="0.810526" stop-color="#067E9C"/><stop offset="0.815789" stop-color="#067C9C"/><stop offset="0.821053" stop-color="#067B9C"/><stop offset="0.826316" stop-color="#06799C"/><stop offset="0.831579" stop-color="#06779C"/><stop offset="0.836842" stop-color="#06769C"/><stop offset="0.842105" stop-color="#06749C"/><stop offset="0.847368" stop-color="#06729C"/><stop offset="0.852632" stop-color="#06719C"/><stop offset="0.857895" stop-color="#066F9C"/><stop offset="0.863158" stop-color="#066E9C"/><stop offset="0.868421" stop-color="#066C9C"/><stop offset="0.873684" stop-color="#066A9C"/><stop offset="0.878947" stop-color="#06699C"/><stop offset="0.884211" stop-color="#06679C"/><stop offset="0.889474" stop-color="#06659C"/><stop offset="0.894737" stop-color="#06639C"/><stop offset="0.9" stop-color="#06629C"/><stop offset="0.905263" stop-color="#06609C"/><stop offset="0.910526" stop-color="#065E9C"/><stop offset="0.915789" stop-color="#065D9C"/><stop offset="0.921053" stop-color="#065B9C"/><stop offset="0.926316" stop-color="#06599C"/><stop offset="0.931579" stop-color="#06579C"/><stop offset="0.936842" stop-color="#06559C"/><stop offset="0.942105" stop-color="#06549C"/><stop offset="0.947368" stop-color="#06529C"/><stop offset="0.952632" stop-color="#06509C"/><stop offset="0.957895" stop-color="#064E9C"/><stop offset="0.963158" stop-color="#064C9C"/><stop offset="0.968421" stop-color="#064B9C"/><stop offset="0.973684" stop-color="#06499C"/><stop offset="0.978947" stop-color="#06479C"/><stop offset="0.984211" stop-color="#06459C"/><stop offset="0.989474" stop-color="#06439C"/><stop offset="0.994737" stop-color="#06419C"/><stop offset="1" stop-color="#07409D"/></radialGradient><clipPath id="clip27"><rect x="62" y="54" width="80" height="82"/></clipPath><clipPath id="clip28"><rect x="0" y="0" width="202" height="216"/></clipPath><clipPath id="clip29"><rect x="0" y="1" width="65" height="73"/></clipPath><clipPath id="clip30"><rect x="0" y="0" width="65" height="74"/></clipPath><radialGradient cx="747486" cy="594360" r="623052" fx="1.04276e+06" fy="1.143e+06" gradientUnits="userSpaceOnUse" spreadMethod="pad" id="fill31" gradientTransform="matrix(0.000104987 0 0 0.000104987 -374.495 927.014)"><stop offset="0" stop-color="#843C0C"/><stop offset="0.0107527" stop-color="#833B0C"/><stop offset="0.0215054" stop-color="#833B0D"/><stop offset="0.0322581" stop-color="#833B0D"/><stop offset="0.0430108" stop-color="#833B0E"/><stop offset="0.0537634" stop-color="#833B0E"/><stop offset="0.0645161" stop-color="#833B0F"/><stop offset="0.0752688" stop-color="#833B0F"/><stop offset="0.0860215" stop-color="#833B10"/><stop offset="0.0967742" stop-color="#823B10"/><stop offset="0.107527" stop-color="#823B10"/><stop offset="0.11828" stop-color="#823B11"/><stop offset="0.129032" stop-color="#813B11"/><stop offset="0.139785" stop-color="#813B12"/><stop offset="0.150538" stop-color="#813B12"/><stop offset="0.16129" stop-color="#803B13"/><stop offset="0.172043" stop-color="#803B13"/><stop offset="0.182796" stop-color="#803B14"/><stop offset="0.193548" stop-color="#7F3A14"/><stop offset="0.204301" stop-color="#7F3A15"/><stop offset="0.215054" stop-color="#7E3A15"/><stop offset="0.225806" stop-color="#7E3A15"/><stop offset="0.236559" stop-color="#7D3A16"/><stop offset="0.247312" stop-color="#7D3A16"/><stop offset="0.258065" stop-color="#7C3A17"/><stop offset="0.268817" stop-color="#7B3A17"/><stop offset="0.27957" stop-color="#7B3917"/><stop offset="0.290323" stop-color="#7A3918"/><stop offset="0.301075" stop-color="#7A3918"/><stop offset="0.311828" stop-color="#793919"/><stop offset="0.322581" stop-color="#783919"/><stop offset="0.333333" stop-color="#783919"/><stop offset="0.344086" stop-color="#77391A"/><stop offset="0.354839" stop-color="#76381A"/><stop offset="0.365591" stop-color="#75381A"/><stop offset="0.376344" stop-color="#74381B"/><stop offset="0.387097" stop-color="#74381B"/><stop offset="0.397849" stop-color="#73381B"/><stop offset="0.408602" stop-color="#72371C"/><stop offset="0.419355" stop-color="#71371C"/><stop offset="0.430108" stop-color="#70371C"/><stop offset="0.44086" stop-color="#6F371D"/><stop offset="0.451613" stop-color="#6E371D"/><stop offset="0.462366" stop-color="#6D361D"/><stop offset="0.473118" stop-color="#6C361E"/><stop offset="0.483871" stop-color="#6B361E"/><stop offset="0.494624" stop-color="#6A361E"/><stop offset="0.505376" stop-color="#69351F"/><stop offset="0.516129" stop-color="#68351F"/><stop offset="0.526882" stop-color="#67351F"/><stop offset="0.537634" stop-color="#66351F"/><stop offset="0.548387" stop-color="#653420"/><stop offset="0.55914" stop-color="#643420"/><stop offset="0.569892" stop-color="#633420"/><stop offset="0.580645" stop-color="#623420"/><stop offset="0.591398" stop-color="#603321"/><stop offset="0.602151" stop-color="#5F3321"/><stop offset="0.612903" stop-color="#5E3321"/><stop offset="0.623656" stop-color="#5D3221"/><stop offset="0.634409" stop-color="#5B3222"/><stop offset="0.645161" stop-color="#5A3222"/><stop offset="0.655914" stop-color="#593222"/><stop offset="0.666667" stop-color="#583122"/><stop offset="0.677419" stop-color="#563122"/><stop offset="0.688172" stop-color="#553123"/><stop offset="0.698925" stop-color="#533023"/><stop offset="0.709677" stop-color="#523023"/><stop offset="0.72043" stop-color="#513023"/><stop offset="0.731183" stop-color="#4F2F23"/><stop offset="0.741935" stop-color="#4E2F23"/><stop offset="0.752688" stop-color="#4C2F24"/><stop offset="0.763441" stop-color="#4B2E24"/><stop offset="0.774194" stop-color="#492E24"/><stop offset="0.784946" stop-color="#482E24"/><stop offset="0.795699" stop-color="#462D24"/><stop offset="0.806452" stop-color="#452D24"/><stop offset="0.817204" stop-color="#432C24"/><stop offset="0.827957" stop-color="#422C25"/><stop offset="0.83871" stop-color="#402C25"/><stop offset="0.849462" stop-color="#3E2B25"/><stop offset="0.860215" stop-color="#3D2B25"/><stop offset="0.870968" stop-color="#3B2B25"/><stop offset="0.88172" stop-color="#392A25"/><stop offset="0.892473" stop-color="#382A25"/><stop offset="0.903226" stop-color="#362925"/><stop offset="0.913979" stop-color="#342925"/><stop offset="0.924731" stop-color="#322925"/><stop offset="0.935484" stop-color="#312825"/><stop offset="0.946237" stop-color="#2F2825"/><stop offset="0.956989" stop-color="#2D2725"/><stop offset="0.967742" stop-color="#2B2725"/><stop offset="0.978495" stop-color="#292625"/><stop offset="0.989247" stop-color="#272625"/><stop offset="1" stop-color="#262626"/></radialGradient><clipPath id="clip32"><rect x="1" y="1" width="79" height="73"/></clipPath><clipPath id="clip33"><rect x="0" y="0" width="80" height="74"/></clipPath><radialGradient cx="747486" cy="594360" r="646562" fx="1.08959e+06" fy="1.143e+06" gradientUnits="userSpaceOnUse" spreadMethod="pad" id="fill34" gradientTransform="matrix(0.000104987 0 0 0.000104987 -213.814 927.014)"><stop offset="0" stop-color="#843C0C"/><stop offset="0.0107527" stop-color="#833B0C"/><stop offset="0.0215054" stop-color="#833B0D"/><stop offset="0.0322581" stop-color="#833B0D"/><stop offset="0.0430108" stop-color="#833B0E"/><stop offset="0.0537634" stop-color="#833B0E"/><stop offset="0.0645161" stop-color="#833B0F"/><stop offset="0.0752688" stop-color="#833B0F"/><stop offset="0.0860215" stop-color="#833B10"/><stop offset="0.0967742" stop-color="#823B10"/><stop offset="0.107527" stop-color="#823B10"/><stop offset="0.11828" stop-color="#823B11"/><stop offset="0.129032" stop-color="#813B11"/><stop offset="0.139785" stop-color="#813B12"/><stop offset="0.150538" stop-color="#813B12"/><stop offset="0.16129" stop-color="#803B13"/><stop offset="0.172043" stop-color="#803B13"/><stop offset="0.182796" stop-color="#803B14"/><stop offset="0.193548" stop-color="#7F3A14"/><stop offset="0.204301" stop-color="#7F3A15"/><stop offset="0.215054" stop-color="#7E3A15"/><stop offset="0.225806" stop-color="#7E3A15"/><stop offset="0.236559" stop-color="#7D3A16"/><stop offset="0.247312" stop-color="#7D3A16"/><stop offset="0.258065" stop-color="#7C3A17"/><stop offset="0.268817" stop-color="#7B3A17"/><stop offset="0.27957" stop-color="#7B3917"/><stop offset="0.290323" stop-color="#7A3918"/><stop offset="0.301075" stop-color="#7A3918"/><stop offset="0.311828" stop-color="#793919"/><stop offset="0.322581" stop-color="#783919"/><stop offset="0.333333" stop-color="#783919"/><stop offset="0.344086" stop-color="#77391A"/><stop offset="0.354839" stop-color="#76381A"/><stop offset="0.365591" stop-color="#75381A"/><stop offset="0.376344" stop-color="#74381B"/><stop offset="0.387097" stop-color="#74381B"/><stop offset="0.397849" stop-color="#73381B"/><stop offset="0.408602" stop-color="#72371C"/><stop offset="0.419355" stop-color="#71371C"/><stop offset="0.430108" stop-color="#70371C"/><stop offset="0.44086" stop-color="#6F371D"/><stop offset="0.451613" stop-color="#6E371D"/><stop offset="0.462366" stop-color="#6D361D"/><stop offset="0.473118" stop-color="#6C361E"/><stop offset="0.483871" stop-color="#6B361E"/><stop offset="0.494624" stop-color="#6A361E"/><stop offset="0.505376" stop-color="#69351F"/><stop offset="0.516129" stop-color="#68351F"/><stop offset="0.526882" stop-color="#67351F"/><stop offset="0.537634" stop-color="#66351F"/><stop offset="0.548387" stop-color="#653420"/><stop offset="0.55914" stop-color="#643420"/><stop offset="0.569892" stop-color="#633420"/><stop offset="0.580645" stop-color="#623420"/><stop offset="0.591398" stop-color="#603321"/><stop offset="0.602151" stop-color="#5F3321"/><stop offset="0.612903" stop-color="#5E3321"/><stop offset="0.623656" stop-color="#5D3221"/><stop offset="0.634409" stop-color="#5B3222"/><stop offset="0.645161" stop-color="#5A3222"/><stop offset="0.655914" stop-color="#593222"/><stop offset="0.666667" stop-color="#583122"/><stop offset="0.677419" stop-color="#563122"/><stop offset="0.688172" stop-color="#553123"/><stop offset="0.698925" stop-color="#533023"/><stop offset="0.709677" stop-color="#523023"/><stop offset="0.72043" stop-color="#513023"/><stop offset="0.731183" stop-color="#4F2F23"/><stop offset="0.741935" stop-color="#4E2F23"/><stop offset="0.752688" stop-color="#4C2F24"/><stop offset="0.763441" stop-color="#4B2E24"/><stop offset="0.774194" stop-color="#492E24"/><stop offset="0.784946" stop-color="#482E24"/><stop offset="0.795699" stop-color="#462D24"/><stop offset="0.806452" stop-color="#452D24"/><stop offset="0.817204" stop-color="#432C24"/><stop offset="0.827957" stop-color="#422C25"/><stop offset="0.83871" stop-color="#402C25"/><stop offset="0.849462" stop-color="#3E2B25"/><stop offset="0.860215" stop-color="#3D2B25"/><stop offset="0.870968" stop-color="#3B2B25"/><stop offset="0.88172" stop-color="#392A25"/><stop offset="0.892473" stop-color="#382A25"/><stop offset="0.903226" stop-color="#362925"/><stop offset="0.913979" stop-color="#342925"/><stop offset="0.924731" stop-color="#322925"/><stop offset="0.935484" stop-color="#312825"/><stop offset="0.946237" stop-color="#2F2825"/><stop offset="0.956989" stop-color="#2D2725"/><stop offset="0.967742" stop-color="#2B2725"/><stop offset="0.978495" stop-color="#292625"/><stop offset="0.989247" stop-color="#272625"/><stop offset="1" stop-color="#262626"/></radialGradient><linearGradient x1="343.997" y1="5.24934e-05" x2="-9" y2="5.24934e-05" gradientUnits="userSpaceOnUse" spreadMethod="reflect" id="fill35"><stop offset="0" stop-color="#00FF95"/><stop offset="0.03" stop-color="#00FF95"/><stop offset="1" stop-color="#03A499"/></linearGradient></defs><g clip-path="url(#clip10)" transform="translate(545 -700)"><g clip-path="url(#clip11)" filter="url(#fx6)" transform="translate(-546 699)"><g clip-path="url(#clip12)"><path d="M216.187 212.784 325.859 212.784 325.859 368.828 126.828 368.828ZM340.991 208.828 446.47 208.828 535.828 364.873 340.991 364.873Z" fill="#FF0000" fill-rule="evenodd"/><path d="M331.328 6.82843 437.828 193.828 224.828 193.828Z" fill="#FF0000" fill-rule="evenodd"/><g clip-path="url(#clip13)" filter="url(#fx0)" transform="translate(235 45)"><g clip-path="url(#clip14)"><path d="M5.76 0 30.336 0C53.376 0 69.696-13.728 69.696-33.024 69.696-52.32 53.376-65.952 30.336-65.952L5.76-65.952ZM24.384-16.896 24.384-49.056 33.408-49.056C43.392-49.056 50.496-42.432 50.496-33.024 50.496-23.616 43.392-16.896 33.408-16.896Z" fill="#FFFFFF" transform="translate(610.56 -572)"/></g></g><path d="M5.76 0 30.336 0C53.376 0 69.696-13.728 69.696-33.024 69.696-52.32 53.376-65.952 30.336-65.952L5.76-65.952ZM24.384-16.896 24.384-49.056 33.408-49.056C43.392-49.056 50.496-42.432 50.496-33.024 50.496-23.616 43.392-16.896 33.408-16.896Z" fill="#FFFFFF" transform="translate(296.821 170)"/><g clip-path="url(#clip15)" filter="url(#fx1)" transform="translate(235 45)"><g clip-path="url(#clip16)"><path d="M5.76 0 30.336 0C53.376 0 69.696-13.728 69.696-33.024 69.696-52.32 53.376-65.952 30.336-65.952L5.76-65.952ZM24.384-16.896 24.384-49.056 33.408-49.056C43.392-49.056 50.496-42.432 50.496-33.024 50.496-23.616 43.392-16.896 33.408-16.896Z" fill="#FFFFFF" transform="translate(610.56 -572)"/></g></g><path d="M5.76 0 30.336 0C53.376 0 69.696-13.728 69.696-33.024 69.696-52.32 53.376-65.952 30.336-65.952L5.76-65.952ZM24.384-16.896 24.384-49.056 33.408-49.056C43.392-49.056 50.496-42.432 50.496-33.024 50.496-23.616 43.392-16.896 33.408-16.896Z" fill="#FFFFFF" transform="translate(296.821 170)"/><g clip-path="url(#clip17)" filter="url(#fx2)" transform="translate(225 262)"><g clip-path="url(#clip18)"><path d="M549.582-694.746 607.17-694.746 607.17-678.15 587.682-678.15 587.682-628.806 569.07-628.806 569.07-678.15 549.582-678.15Z" fill="#FF0000" fill-rule="evenodd"/></g></g><path d="M224.024 261.697 281.612 261.697 281.612 278.293 262.124 278.293 262.124 327.637 243.512 327.637 243.512 278.293 224.024 278.293Z" fill="#FF0000" fill-rule="evenodd"/><g clip-path="url(#clip19)" filter="url(#fx3)" transform="translate(225 262)"><g clip-path="url(#clip20)"><path d="M549.582-694.746 607.17-694.746 607.17-678.15 587.682-678.15 587.682-628.806 569.07-628.806 569.07-678.15 549.582-678.15Z" fill="#FF0000" fill-rule="evenodd"/></g></g><path d="M224.024 261.697 281.612 261.697 281.612 278.293 262.124 278.293 262.124 327.637 243.512 327.637 243.512 278.293 224.024 278.293Z" fill="#FF0000" fill-rule="evenodd"/><g clip-path="url(#clip21)" filter="url(#fx4)" transform="translate(378 262)"><g clip-path="url(#clip22)"><path d="M550.234-694.746 571.255-694.746 586.132-656.161 600.914-694.746 621.934-694.746 596.594-628.806 575.574-628.806Z" fill="#FF0000" fill-rule="evenodd"/></g></g><path d="M377.676 261.697 398.697 261.697 413.574 300.282 428.356 261.697 449.376 261.697 424.036 327.637 403.016 327.637Z" fill="#FF0000" fill-rule="evenodd"/><g clip-path="url(#clip23)" filter="url(#fx5)" transform="translate(378 262)"><g clip-path="url(#clip24)"><path d="M550.234-694.746 571.255-694.746 586.132-656.161 600.914-694.746 621.934-694.746 596.594-628.806 575.574-628.806Z" fill="#FF0000" fill-rule="evenodd"/></g></g><path d="M377.676 261.697 398.697 261.697 413.574 300.282 428.356 261.697 449.376 261.697 424.036 327.637 403.016 327.637Z" fill="#FF0000" fill-rule="evenodd"/><path d="M925.592 182.899C921.142 182.899 917.194 185.136 913.749 189.61 910.304 194.084 907.528 200.102 905.423 207.662 903.317 215.223 902.265 221.994 902.265 227.975 902.265 231.469 902.779 234.076 903.808 235.799 904.837 237.522 906.428 238.383 908.581 238.383 911.739 238.383 914.957 236.84 918.235 233.753 921.513 230.667 924.157 227.042 926.167 222.879 928.176 218.716 929.971 213.022 931.55 205.796L932.124 203.14C932.89 199.599 933.273 196.082 933.273 192.589 933.273 189.383 932.674 186.967 931.478 185.34 930.282 183.713 928.32 182.899 925.592 182.899ZM956.385 145.001 964.496 145.001 946.336 225.391C945.618 228.55 945.259 231.277 945.259 233.574 945.259 235.153 945.523 236.373 946.049 237.235 946.575 238.096 947.484 238.527 948.776 238.527 950.26 238.527 951.863 237.857 953.586 236.517 955.308 235.177 957.318 233.191 959.615 230.559L964.783 235.727C959.758 240.752 955.428 244.209 951.791 246.099 948.154 247.989 944.326 248.934 940.307 248.934 936.287 248.934 933.105 247.822 930.76 245.597 928.416 243.372 927.243 240.441 927.243 236.804 927.243 235.608 927.387 234.459 927.674 233.359L926.741 233.143C922.195 238.646 917.948 242.654 914 245.166 910.053 247.678 905.327 248.934 899.824 248.934 894.417 248.934 890.218 246.972 887.227 243.049 884.237 239.125 882.741 233.454 882.741 226.037 882.741 219.577 883.674 213.165 885.541 206.801 887.407 200.437 890.086 194.946 893.58 190.328 897.073 185.71 901.463 182.074 906.751 179.418 912.038 176.762 918.008 175.434 924.659 175.434 928.918 175.434 933.033 176.176 937.005 177.659L939.445 166.677C939.732 165.481 940.067 163.759 940.45 161.51 940.833 159.26 941.024 157.562 941.024 156.413 941.024 155.361 940.917 154.535 940.701 153.937 940.486 153.339 940.163 152.848 939.732 152.466 939.302 152.083 938.728 151.784 938.01 151.568 937.292 151.353 935.88 151.102 933.775 150.815L934.923 146.149Z" fill="#00FF95" fill-rule="evenodd"/><path d="M1020.97 215.917 1109.4 215.917 1109.4 225.463 1020.97 225.463ZM1020.97 186.129 1109.4 186.129 1109.4 195.676 1020.97 195.676Z" fill="#FFFFFF" fill-rule="evenodd"/><path d="M1189.52 158.638 1206.74 158.638 1202.58 176.583 1220.02 176.583 1218.08 185.555 1200.5 185.555 1193.54 214.266C1192.34 219.195 1191.51 222.939 1191.06 225.499 1190.6 228.059 1190.38 230.224 1190.38 231.995 1190.38 234.244 1190.78 235.883 1191.6 236.912 1192.41 237.94 1193.61 238.455 1195.19 238.455 1197.34 238.455 1199.55 237.689 1201.83 236.158 1204.1 234.627 1206.55 232.258 1209.18 229.052L1214.71 234.722C1209.88 240.034 1205.44 243.73 1201.4 245.812 1197.35 247.894 1192.58 248.934 1187.08 248.934 1181.62 248.934 1177.43 247.535 1174.51 244.735 1171.6 241.936 1170.14 238.072 1170.14 233.143 1170.14 230.894 1170.3 228.753 1170.64 226.719 1170.97 224.686 1171.67 221.348 1172.72 216.706L1180.11 185.555 1168.92 185.555 1170.28 179.741C1173.63 179.741 1176.17 179.43 1177.89 178.808 1179.61 178.186 1181.06 177.253 1182.23 176.009 1183.4 174.764 1184.54 172.874 1185.64 170.338 1186.74 167.802 1188.03 163.902 1189.52 158.638Z" fill="#FFFFFF" fill-rule="evenodd"/><path d="M1285.4 178.664 1294.88 178.664 1292.8 201.131 1311.24 188.139 1315.91 196.178 1295.45 205.724 1315.91 215.343 1311.24 223.31 1292.8 210.318 1294.88 232.784 1285.4 232.784 1287.56 210.318 1269.04 223.31 1264.3 215.343 1284.83 205.724 1264.3 196.178 1269.04 188.139 1287.56 201.131Z" fill="#FFFFFF" fill-rule="evenodd"/><path d="M1385.39 175.434C1390.07 175.434 1393.7 176.726 1396.26 179.31 1398.82 181.894 1400.1 185.148 1400.1 189.072 1400.1 191.465 1399.84 193.953 1399.31 196.537L1394.64 218.429C1394.21 220.965 1393.85 223.429 1393.57 225.822 1393.28 228.215 1393.14 230.344 1393.14 232.21 1393.14 234.029 1393.26 235.512 1393.5 236.66 1393.74 237.809 1394.05 238.383 1394.43 238.383 1395.77 238.383 1397.5 237.761 1399.63 236.517 1401.76 235.273 1404.06 233.55 1406.52 231.349 1408.99 229.148 1411.45 226.564 1413.92 223.597 1416.38 220.63 1418.61 217.424 1420.59 213.979 1422.58 210.533 1424.18 206.885 1425.4 203.033 1426.62 199.181 1427.23 195.293 1427.23 191.369 1427.23 189.455 1426.86 187.971 1426.12 186.919 1425.38 185.866 1424.22 185.34 1422.64 185.34 1420.87 185.34 1419.23 185.998 1417.72 187.313 1416.21 188.629 1414.67 190.388 1413.09 192.589L1408.07 188.57C1411.08 184.406 1414.44 181.177 1418.15 178.88 1421.86 176.583 1425.99 175.434 1430.53 175.434 1435.03 175.434 1438.21 176.595 1440.08 178.916 1441.95 181.236 1442.88 184.335 1442.88 188.211 1442.88 190.46 1442.45 193.056 1441.59 195.999 1440.73 198.941 1439.48 202.04 1437.85 205.294 1436.23 208.548 1434.31 211.897 1432.11 215.343 1429.91 218.788 1427.47 222.125 1424.79 225.355 1422.11 228.585 1419.25 231.636 1416.21 234.507 1413.17 237.378 1410.02 239.878 1406.74 242.008 1403.46 244.137 1400.14 245.824 1396.76 247.068 1393.39 248.312 1390 248.934 1386.61 248.934 1384.07 248.934 1381.99 248.587 1380.36 247.894 1378.73 247.2 1377.55 246.219 1376.81 244.951 1376.07 243.683 1375.58 242.199 1375.34 240.5 1375.1 238.802 1374.98 236.948 1374.98 234.938 1374.98 232.162 1375.14 229.231 1375.48 226.145 1375.81 223.059 1376.25 219.96 1376.77 216.85L1381.15 196.537C1381.44 195.293 1381.68 194.156 1381.87 193.127 1382.06 192.099 1382.16 191.273 1382.16 190.651 1382.16 189.216 1381.86 188.079 1381.26 187.242 1380.66 186.404 1379.43 185.986 1377.56 185.986 1374.59 185.986 1370.36 188.498 1364.86 193.522L1360.41 188.498C1362.66 185.675 1366.02 182.792 1370.49 179.849 1374.97 176.906 1379.93 175.434 1385.39 175.434Z" fill="#FFFFFF" fill-rule="evenodd"/><path d="M925.592 182.899C921.142 182.899 917.194 185.136 913.749 189.61 910.304 194.084 907.528 200.102 905.423 207.662 903.317 215.223 902.265 221.994 902.265 227.975 902.265 231.469 902.779 234.076 903.808 235.799 904.837 237.522 906.428 238.383 908.581 238.383 911.739 238.383 914.957 236.84 918.235 233.753 921.513 230.667 924.157 227.042 926.167 222.879 928.176 218.716 929.971 213.022 931.55 205.796L932.124 203.14C932.89 199.599 933.273 196.082 933.273 192.589 933.273 189.383 932.674 186.967 931.478 185.34 930.282 183.713 928.32 182.899 925.592 182.899ZM956.385 145.001 964.496 145.001 946.336 225.391C945.618 228.55 945.259 231.277 945.259 233.574 945.259 235.153 945.523 236.373 946.049 237.235 946.575 238.096 947.484 238.527 948.776 238.527 950.26 238.527 951.863 237.857 953.586 236.517 955.308 235.177 957.318 233.191 959.615 230.559L964.783 235.727C959.758 240.752 955.428 244.209 951.791 246.099 948.154 247.989 944.326 248.934 940.307 248.934 936.287 248.934 933.105 247.822 930.76 245.597 928.416 243.372 927.243 240.441 927.243 236.804 927.243 235.608 927.387 234.459 927.674 233.359L926.741 233.143C922.195 238.646 917.948 242.654 914 245.166 910.053 247.678 905.327 248.934 899.824 248.934 894.417 248.934 890.218 246.972 887.227 243.049 884.237 239.125 882.741 233.454 882.741 226.037 882.741 219.577 883.674 213.165 885.541 206.801 887.407 200.437 890.086 194.946 893.58 190.328 897.073 185.71 901.463 182.074 906.751 179.418 912.038 176.762 918.008 175.434 924.659 175.434 928.918 175.434 933.033 176.176 937.005 177.659L939.445 166.677C939.732 165.481 940.067 163.759 940.45 161.51 940.833 159.26 941.024 157.562 941.024 156.413 941.024 155.361 940.917 154.535 940.701 153.937 940.486 153.339 940.163 152.848 939.732 152.466 939.302 152.083 938.728 151.784 938.01 151.568 937.292 151.353 935.88 151.102 933.775 150.815L934.923 146.149Z" fill="#00FF95" fill-rule="evenodd"/><path d="M1020.97 215.917 1109.4 215.917 1109.4 225.463 1020.97 225.463ZM1020.97 186.129 1109.4 186.129 1109.4 195.676 1020.97 195.676Z" fill="#FFFFFF" fill-rule="evenodd"/><path d="M1189.52 158.638 1206.74 158.638 1202.58 176.583 1220.02 176.583 1218.08 185.555 1200.5 185.555 1193.54 214.266C1192.34 219.195 1191.51 222.939 1191.06 225.499 1190.6 228.059 1190.38 230.224 1190.38 231.995 1190.38 234.244 1190.78 235.883 1191.6 236.912 1192.41 237.94 1193.61 238.455 1195.19 238.455 1197.34 238.455 1199.55 237.689 1201.83 236.158 1204.1 234.627 1206.55 232.258 1209.18 229.052L1214.71 234.722C1209.88 240.034 1205.44 243.73 1201.4 245.812 1197.35 247.894 1192.58 248.934 1187.08 248.934 1181.62 248.934 1177.43 247.535 1174.51 244.735 1171.6 241.936 1170.14 238.072 1170.14 233.143 1170.14 230.894 1170.3 228.753 1170.64 226.719 1170.97 224.686 1171.67 221.348 1172.72 216.706L1180.11 185.555 1168.92 185.555 1170.28 179.741C1173.63 179.741 1176.17 179.43 1177.89 178.808 1179.61 178.186 1181.06 177.253 1182.23 176.009 1183.4 174.764 1184.54 172.874 1185.64 170.338 1186.74 167.802 1188.03 163.902 1189.52 158.638Z" fill="#FFFFFF" fill-rule="evenodd"/><path d="M1285.4 178.664 1294.88 178.664 1292.8 201.131 1311.24 188.139 1315.91 196.178 1295.45 205.724 1315.91 215.343 1311.24 223.31 1292.8 210.318 1294.88 232.784 1285.4 232.784 1287.56 210.318 1269.04 223.31 1264.3 215.343 1284.83 205.724 1264.3 196.178 1269.04 188.139 1287.56 201.131Z" fill="#FFFFFF" fill-rule="evenodd"/><path d="M1385.39 175.434C1390.07 175.434 1393.7 176.726 1396.26 179.31 1398.82 181.894 1400.1 185.148 1400.1 189.072 1400.1 191.465 1399.84 193.953 1399.31 196.537L1394.64 218.429C1394.21 220.965 1393.85 223.429 1393.57 225.822 1393.28 228.215 1393.14 230.344 1393.14 232.21 1393.14 234.029 1393.26 235.512 1393.5 236.66 1393.74 237.809 1394.05 238.383 1394.43 238.383 1395.77 238.383 1397.5 237.761 1399.63 236.517 1401.76 235.273 1404.06 233.55 1406.52 231.349 1408.99 229.148 1411.45 226.564 1413.92 223.597 1416.38 220.63 1418.61 217.424 1420.59 213.979 1422.58 210.533 1424.18 206.885 1425.4 203.033 1426.62 199.181 1427.23 195.293 1427.23 191.369 1427.23 189.455 1426.86 187.971 1426.12 186.919 1425.38 185.866 1424.22 185.34 1422.64 185.34 1420.87 185.34 1419.23 185.998 1417.72 187.313 1416.21 188.629 1414.67 190.388 1413.09 192.589L1408.07 188.57C1411.08 184.406 1414.44 181.177 1418.15 178.88 1421.86 176.583 1425.99 175.434 1430.53 175.434 1435.03 175.434 1438.21 176.595 1440.08 178.916 1441.95 181.236 1442.88 184.335 1442.88 188.211 1442.88 190.46 1442.45 193.056 1441.59 195.999 1440.73 198.941 1439.48 202.04 1437.85 205.294 1436.23 208.548 1434.31 211.897 1432.11 215.343 1429.91 218.788 1427.47 222.125 1424.79 225.355 1422.11 228.585 1419.25 231.636 1416.21 234.507 1413.17 237.378 1410.02 239.878 1406.74 242.008 1403.46 244.137 1400.14 245.824 1396.76 247.068 1393.39 248.312 1390 248.934 1386.61 248.934 1384.07 248.934 1381.99 248.587 1380.36 247.894 1378.73 247.2 1377.55 246.219 1376.81 244.951 1376.07 243.683 1375.58 242.199 1375.34 240.5 1375.1 238.802 1374.98 236.948 1374.98 234.938 1374.98 232.162 1375.14 229.231 1375.48 226.145 1375.81 223.059 1376.25 219.96 1376.77 216.85L1381.15 196.537C1381.44 195.293 1381.68 194.156 1381.87 193.127 1382.06 192.099 1382.16 191.273 1382.16 190.651 1382.16 189.216 1381.86 188.079 1381.26 187.242 1380.66 186.404 1379.43 185.986 1377.56 185.986 1374.59 185.986 1370.36 188.498 1364.86 193.522L1360.41 188.498C1362.66 185.675 1366.02 182.792 1370.49 179.849 1374.97 176.906 1379.93 175.434 1385.39 175.434Z" fill="#FFFFFF" fill-rule="evenodd"/><path d="M9.40189e-07-3 334.997-2.99989 334.997 3.0001-9.40189e-07 3ZM-2.82057e-06 9-9-2.82057e-06 2.82057e-06-9 9 2.82057e-06ZM334.997-8.9999 343.997 0.000107807 334.997 9.0001 325.997 0.000102166Z" fill="#FF0000" transform="matrix(1 0 0 -1 494.828 195.828)"/></g></g><path d="M-332.642 908.956-222.969 908.956-222.969 1065-422 1065ZM-207.837 905-102.358 905-13 1061.04-207.837 1061.04Z" fill="url(#fill25)" fill-rule="evenodd"/><path d="M-217.5 703-111 890-324 890Z" fill="url(#fill26)" fill-rule="evenodd"/><g clip-path="url(#clip27)" filter="url(#fx7)" transform="translate(-314 741)"><g clip-path="url(#clip28)"><path d="M5.76 0 30.336 0C53.376 0 69.696-13.728 69.696-33.024 69.696-52.32 53.376-65.952 30.336-65.952L5.76-65.952ZM24.384-16.896 24.384-49.056 33.408-49.056C43.392-49.056 50.496-42.432 50.496-33.024 50.496-23.616 43.392-16.896 33.408-16.896Z" fill="#FFFFFF" transform="translate(64.7314 128)"/></g></g><path d="M5.76 0 30.336 0C53.376 0 69.696-13.728 69.696-33.024 69.696-52.32 53.376-65.952 30.336-65.952L5.76-65.952ZM24.384-16.896 24.384-49.056 33.408-49.056C43.392-49.056 50.496-42.432 50.496-33.024 50.496-23.616 43.392-16.896 33.408-16.896Z" fill="#FFFFFF" transform="translate(-252.007 866)"/><g clip-path="url(#clip29)" filter="url(#fx8)" transform="translate(-324 958)"><g clip-path="url(#clip30)"><path d="M3.75334 4.42584 61.3413 4.42584 61.3413 21.0218 41.8533 21.0218 41.8533 70.3658 23.2413 70.3658 23.2413 21.0218 3.75334 21.0218Z" fill="#FF0000" fill-rule="evenodd"/></g></g><path d="M-324.804 957.868-267.216 957.868-267.216 974.464-286.704 974.464-286.704 1023.81-305.316 1023.81-305.316 974.464-324.804 974.464Z" fill="url(#fill31)" fill-rule="evenodd"/><text fill="#000000" fill-opacity="0" font-family="Arial,Arial_MSFontService,sans-serif" font-size="65.94" x="-324.804" y="1015.57">T</text><g clip-path="url(#clip32)" filter="url(#fx9)" transform="translate(-171 958)"><g clip-path="url(#clip33)"><path d="M4.40564 4.42584 25.4261 4.42584 40.3036 43.0108 55.0851 4.42584 76.1056 4.42584 50.7659 70.3658 29.7454 70.3658Z" fill="#FF0000" fill-rule="evenodd"/></g></g><path d="M-171.152 957.868-150.132 957.868-135.254 996.453-120.473 957.868-99.4521 957.868-124.792 1023.81-145.812 1023.81Z" fill="url(#fill34)" fill-rule="evenodd"/><text fill="#000000" fill-opacity="0" font-family="Arial,Arial_MSFontService,sans-serif" font-size="65.94" x="-171.152" y="1015.57">V</text><path d="M376.764 879.071C372.314 879.071 368.366 881.308 364.921 885.782 361.475 890.256 358.7 896.273 356.594 903.834 354.489 911.394 353.436 918.165 353.436 924.147 353.436 927.64 353.951 930.248 354.979 931.971 356.008 933.693 357.599 934.555 359.753 934.555 362.911 934.555 366.129 933.011 369.407 929.925 372.685 926.839 375.328 923.214 377.338 919.051 379.348 914.888 381.142 909.193 382.721 901.968L383.296 899.312C384.061 895.771 384.444 892.254 384.444 888.761 384.444 885.555 383.846 883.138 382.65 881.511 381.453 879.884 379.491 879.071 376.764 879.071ZM407.556 841.172 415.667 841.172 397.508 921.563C396.79 924.721 396.431 927.449 396.431 929.746 396.431 931.325 396.694 932.545 397.22 933.406 397.747 934.268 398.656 934.698 399.948 934.698 401.431 934.698 403.034 934.028 404.757 932.688 406.48 931.349 408.49 929.363 410.786 926.731L415.954 931.899C410.93 936.923 406.599 940.381 402.963 942.271 399.326 944.161 395.498 945.106 391.478 945.106 387.459 945.106 384.277 943.993 381.932 941.768 379.587 939.543 378.415 936.612 378.415 932.976 378.415 931.779 378.558 930.631 378.845 929.53L377.912 929.315C373.366 934.818 369.12 938.825 365.172 941.338 361.224 943.85 356.499 945.106 350.996 945.106 345.589 945.106 341.39 943.144 338.399 939.22 335.408 935.296 333.913 929.626 333.913 922.209 333.913 915.749 334.846 909.337 336.712 902.973 338.578 896.608 341.258 891.117 344.751 886.5 348.244 881.882 352.635 878.245 357.922 875.59 363.21 872.934 369.179 871.606 375.831 871.606 380.09 871.606 384.205 872.348 388.177 873.831L390.617 862.849C390.904 861.653 391.239 859.93 391.622 857.681 392.005 855.432 392.196 853.733 392.196 852.585 392.196 851.532 392.088 850.707 391.873 850.109 391.658 849.51 391.335 849.02 390.904 848.637 390.473 848.254 389.899 847.955 389.181 847.74 388.464 847.525 387.052 847.273 384.947 846.986L386.095 842.321Z" fill="#00FF95" fill-rule="evenodd"/><text fill="#000000" fill-opacity="0" font-family="Arial,Arial_MSFontService,sans-serif" font-size="103.934" x="333.913" y="932.114">𝒅</text><path d="M472.144 912.088 560.574 912.088 560.574 921.635 472.144 921.635ZM472.144 882.301 560.574 882.301 560.574 891.847 472.144 891.847Z" fill="#FFFFFF" fill-rule="evenodd"/><text fill="#000000" fill-opacity="0" font-family="Arial,Arial_MSFontService,sans-serif" font-size="39.334" x="472.144" y="916.718">=</text><path d="M640.688 854.81 657.914 854.81 653.751 872.754 671.193 872.754 669.255 881.727 651.67 881.727 644.707 910.437C643.511 915.366 642.685 919.111 642.231 921.671 641.776 924.231 641.549 926.396 641.549 928.166 641.549 930.415 641.956 932.054 642.769 933.083 643.583 934.112 644.779 934.626 646.358 934.626 648.511 934.626 650.724 933.861 652.997 932.33 655.27 930.798 657.723 928.43 660.355 925.224L665.881 930.894C661.048 936.206 656.61 939.902 652.567 941.984 648.523 944.065 643.75 945.106 638.247 945.106 632.792 945.106 628.605 943.706 625.686 940.907 622.767 938.108 621.308 934.244 621.308 929.315 621.308 927.066 621.475 924.924 621.81 922.891 622.145 920.857 622.839 917.519 623.892 912.878L631.285 881.727 620.088 881.727 621.451 875.913C624.801 875.913 627.337 875.602 629.06 874.979 630.782 874.357 632.23 873.424 633.402 872.18 634.575 870.936 635.711 869.046 636.812 866.51 637.912 863.974 639.204 860.074 640.688 854.81Z" fill="#FFFFFF" fill-rule="evenodd"/><text fill="#000000" fill-opacity="0" font-family="Arial,Arial_MSFontService,sans-serif" font-size="90.2959" x="620.088" y="933.819">𝒕</text><path d="M736.575 874.836 746.05 874.836 743.968 897.302 762.415 884.31 767.081 892.35 746.624 901.896 767.081 911.514 762.415 919.481 743.968 906.49 746.05 928.956 736.575 928.956 738.729 906.49 720.21 919.481 715.473 911.514 736.001 901.896 715.473 892.35 720.21 884.31 738.729 897.302Z" fill="#FFFFFF" fill-rule="evenodd"/><text fill="#000000" fill-opacity="0" font-family="Arial,Arial_MSFontService,sans-serif" font-size="54.1201" x="715.473" y="922.191">∗</text><path d="M836.557 871.606C841.246 871.606 844.871 872.898 847.431 875.482 849.991 878.066 851.271 881.32 851.271 885.244 851.271 887.636 851.008 890.124 850.482 892.708L845.816 914.601C845.385 917.137 845.026 919.601 844.739 921.994 844.452 924.386 844.309 926.516 844.309 928.382 844.309 930.2 844.428 931.684 844.668 932.832 844.907 933.98 845.218 934.555 845.601 934.555 846.941 934.555 848.675 933.933 850.805 932.688 852.934 931.444 855.231 929.722 857.695 927.52 860.16 925.319 862.624 922.735 865.088 919.768 867.553 916.802 869.778 913.596 871.764 910.15 873.749 906.705 875.352 903.056 876.573 899.204 877.793 895.352 878.403 891.464 878.403 887.54 878.403 885.626 878.032 884.143 877.29 883.09 876.549 882.038 875.388 881.511 873.809 881.511 872.039 881.511 870.4 882.169 868.892 883.485 867.385 884.801 865.842 886.56 864.263 888.761L859.238 884.741C862.253 880.578 865.615 877.348 869.323 875.051 873.032 872.754 877.159 871.606 881.705 871.606 886.203 871.606 889.385 872.766 891.251 875.087 893.117 877.408 894.05 880.506 894.05 884.382 894.05 886.631 893.62 889.227 892.758 892.17 891.897 895.113 890.653 898.211 889.026 901.465 887.399 904.719 885.485 908.069 883.284 911.514 881.083 914.959 878.642 918.297 875.963 921.527 873.283 924.757 870.424 927.808 867.385 930.679 864.347 933.55 861.188 936.05 857.911 938.179 854.633 940.309 851.307 941.996 847.933 943.24 844.56 944.484 841.174 945.106 837.777 945.106 835.241 945.106 833.159 944.759 831.532 944.065 829.905 943.371 828.721 942.39 827.979 941.122 827.238 939.854 826.747 938.371 826.508 936.672 826.269 934.973 826.149 933.119 826.149 931.109 826.149 928.334 826.317 925.403 826.651 922.317 826.986 919.23 827.417 916.132 827.943 913.021L832.322 892.708C832.609 891.464 832.848 890.328 833.04 889.299 833.231 888.27 833.327 887.445 833.327 886.823 833.327 885.387 833.028 884.251 832.43 883.413 831.831 882.576 830.599 882.157 828.733 882.157 825.766 882.157 821.531 884.669 816.028 889.694L811.578 884.669C813.827 881.846 817.189 878.963 821.663 876.02 826.137 873.077 831.102 871.606 836.557 871.606Z" fill="#FFFFFF" fill-rule="evenodd"/><text fill="#000000" fill-opacity="0" font-family="Arial,Arial_MSFontService,sans-serif" font-size="73.5" x="811.578" y="935.918">𝒗</text><path d="M9.40189e-07-3 334.997-2.99989 334.997 3.0001-9.40189e-07 3ZM-2.82057e-06 9-9-2.82057e-06 2.82057e-06-9 9 2.82057e-06ZM334.997-8.9999 343.997 0.000107807 334.997 9.0001 325.997 0.000102166Z" fill="url(#fill35)" transform="matrix(1 0 0 -1 -54 892)"/></g></svg>