<svg xmlns="http://www.w3.org/2000/svg" width="193" height="200" viewBox="0 0 193 200"><g fill="none" fill-rule="evenodd"><path fill="#00223A" d="M131.908 135.682l19.825-16.317-19.825 16.317v4.363l.008.007-.008-.007v-4.363m-71.564 4.367l.005-.004-.005.004M132.163 140.253h.001-.001M152.013 51.44l-7.352 5.059 7.352-5.059"/><path fill="#00314C" d="M165.224 55.569l-4.73 6.999-.073.587.072-.587-.072.587 5.494 21.96v7.225s-2.119 32.62-3.931 34.993c-2.383 3.114-22.91 22.278-22.91 22.278-1.08-4.19-5.43-8.111-6.765-9.235-3.147-2.134-7.469-3.454-13.076-1.832l-7.246-8.27v7.471c-5.672-1.956-15.858 3.622-15.858 3.622s-10.19-5.578-15.862-3.622v-7.47l-7.244 8.27c-5.604-1.622-9.921-.305-13.07 1.825-1.324 1.116-5.689 5.044-6.776 9.241 0 0-20.523-19.164-22.906-22.278-1.812-2.374-3.931-34.993-3.931-34.993v-7.225l5.492-21.96-.07-.586-4.73-7C14.952 35.084 15.66 19.006 15.66 19.006c14.212 1.33 28.188 10.148 37.955 17.792l19.83-4.418-2.412-2.91c16.995-6.028 25.097-1.468 25.097-1.468s8.098-4.56 25.095 1.469l-2.413 2.909 19.83 4.418c9.768-7.644 23.742-16.462 37.949-17.792 0 0 .713 16.078-11.366 36.563zM121.833 173.07c-4.164.992-23.416-6.59-23.416-9.811 0-3.22.604-3.412.604-3.412l3.118-2.86s2.22-11.87 9.816-10.496l-4.795 6.95c7.814-5.922 13.592-7.46 17.146-7.679l-5.393 9.22 12.149-4.897c.222.455.415.91.584 1.362l-11.998 12.012 12.174-2.858c-2.124 6.962-8.574 12.128-9.99 12.47zm-25.704 12.925s-11.722 2.92-15.43-7.16c0 0 9.354-4.175 15.43-4.867 6.076.692 15.428 4.868 15.428 4.868-3.708 10.08-15.428 7.16-15.428 7.16zm-25.707-12.925c-1.413-.34-7.866-5.507-9.99-12.469l12.172 2.858-11.995-12.012c.169-.453.363-.907.583-1.362l12.144 4.897-5.387-9.22c3.555.218 9.332 1.757 17.146 7.679l-4.795-6.95c7.596-1.374 9.817 10.496 9.817 10.496l3.117 2.86s.605.191.605 3.412c0 3.222-19.25 10.803-23.417 9.811zm115.6-154.58c-.053-.507-.112-1-.182-1.472-.322-2.186-.815-4.007-1.4-5.478a13.69 13.69 0 0 0-1.139-2.269 8.813 8.813 0 0 0-.634-.87c-.2-.244-.4-.469-.603-.655a5.08 5.08 0 0 0-.445-.244 8.865 8.865 0 0 0-.566-.253 12.045 12.045 0 0 0-1.27-.436 17.03 17.03 0 0 0-1.803-.412c-1.156-.202-2.57-.344-4.267-.344-.726 0-1.507.026-2.344.084-.836.058-1.73.149-2.681.28-.952.129-1.96.297-3.03.512-1.07.214-2.2.475-3.39.788a68.696 68.696 0 0 0-3.762 1.102c-.878.283-1.785.592-2.72.93-.935.337-1.9.702-2.893 1.099-.993.395-2.017.822-3.07 1.28a131.01 131.01 0 0 0-8.47 4.07c-1.206.632-2.445 1.301-3.715 2.009a191.206 191.206 0 0 0-8.008 4.732l-.592.371-.662-.226c-.152-.051-20.691-7.58-32.247-3.455-11.558-4.124-32.1 3.404-32.25 3.455l-.66.226-.59-.37c-1.4-.873-2.769-1.702-4.104-2.49a179.203 179.203 0 0 0-3.907-2.243 160.213 160.213 0 0 0-3.715-2.008 144.47 144.47 0 0 0-3.527-1.785 130.174 130.174 0 0 0-3.341-1.575 106.938 106.938 0 0 0-6.142-2.563 86.303 86.303 0 0 0-4.145-1.457 71.755 71.755 0 0 0-3.762-1.102C25.22 6.47 21.446 6.058 18.54 6.058c-1.357 0-2.534.091-3.542.23a20.31 20.31 0 0 0-.724.114 16.984 16.984 0 0 0-2.285.56c-.68.222-1.156.44-1.457.594a4.746 4.746 0 0 0-.342.19l-.01.01a6.784 6.784 0 0 0-.594.646c-.628.764-1.239 1.801-1.772 3.14-.351.882-.67 1.89-.938 3.028a29.5 29.5 0 0 0-.464 2.449c-.128.874-.23 1.807-.3 2.798a47.307 47.307 0 0 0-.075 4.864 57.637 57.637 0 0 0 .335 4.512 69.4 69.4 0 0 0 1.056 6.532 81.33 81.33 0 0 0 1.855 7.16c.342 1.115.72 2.26 1.132 3.434.345.98.706 1.974 1.104 2.994.95 2.438 2.059 4.987 3.347 7.64l7.96 8.993.538.607-.23.778-6.5 21.825 4.188 39.419c.274.365.906 1.033 1.677 1.842l.395.416c.81.852 1.723 1.82 2.521 2.743.4.46.77.911 1.085 1.33.562.434 2.326 2.028 4.693 4.207a1156.93 1156.93 0 0 1 3.924 3.633 3637.426 3637.426 0 0 1 6.59 6.142l1.091 1.018c4.682 4.372 8.763 8.189 9.66 8.97l.474.41.03.62c.018.257.242 3.285 2.124 7.218.25.524.53 1.064.844 1.617a27.279 27.279 0 0 0 3.019 4.288 29.657 29.657 0 0 0 3.519 3.467 33.157 33.157 0 0 0 3.392 2.482 36.9 36.9 0 0 0 2.658 1.548c.472.249.956.494 1.456.733l.1.05.088.058 2.24 1.507.21.14.153.206c1.91 2.578 3.97 4.52 6.062 5.972a22.306 22.306 0 0 0 9.818 3.799 24.09 24.09 0 0 0 3.223.214c.144 0 .308 0 .487-.004.89-.013 2.132-.054 2.984-.107.34-.02.62-.042.79-.065.336.045 1.112.09 1.948.122.835.033 1.73.054 2.308.054 2.003 0 4.33-.244 6.781-.984a22.125 22.125 0 0 0 6.26-3.029c2.094-1.452 4.154-3.394 6.064-5.972l.064-.088.087-.118.211-.14 2.239-1.507.086-.059.1-.05c15.995-7.644 16.978-20.802 17.013-21.353l.031-.62.47-.408c1.312-1.143 9.428-8.767 16.275-15.137a1370.276 1370.276 0 0 1 4.995-4.627c2.366-2.179 4.13-3.773 4.69-4.207.63-.838 1.485-1.8 2.344-2.729.429-.462.86-.917 1.266-1.344l.395-.416c.256-.27.497-.524.715-.756l.307-.332c.288-.313.514-.571.65-.754l4.195-39.419-6.506-21.825-.156-.538-.071-.24.536-.607 7.963-8.994a103.738 103.738 0 0 0 3.346-7.64c4.12-10.56 5.292-19.01 5.48-24.631.077-2.294-.001-4.353-.193-6.19z"/><path fill="#00314C" d="M61.882 103.591a8.8 8.8 0 0 1-.924-.371 9.373 9.373 0 0 1-1.342-.789c-.42-.295-.814-.618-1.18-.965-.184-.173-.361-.351-.532-.533-.022-.024-.042-.05-.064-.073a13.723 13.723 0 0 1-1.08-1.335 15.12 15.12 0 0 1-.398-.585 19.661 19.661 0 0 1-1.74-3.4l-.036-.095a21.879 21.879 0 0 1-.457-1.272 18.891 18.891 0 0 1-.284-.96l-.053-.205-.027-.116c.506.132 1.006.275 1.499.426a43.088 43.088 0 0 1 4.217 1.533c-.017.048-.025.1-.041.148a4.092 4.092 0 0 0-.216 1.272 4.134 4.134 0 0 0 .563 2.081 4.53 4.53 0 0 0 1.875 1.757 4.95 4.95 0 0 0 2.749.498 4.857 4.857 0 0 0 1.464-.389 4.65 4.65 0 0 0 1.562-1.12c2.64 1.72 4.181 3.064 4.181 3.064-4.05 2.14-7.24 2.294-9.736 1.43zm9.862-10.604l-13.1-10.28-22.08 6.5 9.594 2.147 3.277.732s.008.07.03.201c.02.131.053.323.1.567.057.293.135.66.24 1.086a25.128 25.128 0 0 0 2.126 5.622c.383.723.813 1.456 1.314 2.175a17.779 17.779 0 0 0 2.019 2.42l.041.044a16.35 16.35 0 0 0 1.453 1.274 15.058 15.058 0 0 0 5.562 2.687 17.524 17.524 0 0 0 2.945.477c.068.006.133.014.2.018 1.991.13 4.224-.034 6.73-.582v.002c.088.454.158.925.215 1.404l.013.09c.053.46.092.93.12 1.407.003.053.008.104.01.157.026.463.038.934.043 1.408l.003.201c.002.468-.006.938-.021 1.41l-.006.218a47.44 47.44 0 0 1-.076 1.416l-.014.207a55.82 55.82 0 0 1-.122 1.428l-.016.164c-.05.486-.104.966-.164 1.437l-.014.11a70.89 70.89 0 0 1-.197 1.437l-.004.02c-.622 4.178-1.479 7.382-1.479 7.382s7.796-7.65 8.506-28.508l-3.964-17.351-3.284 10.873zm48.894 9.175s1.54-1.344 4.18-3.065c.854.94 2.127 1.538 3.551 1.538 2.576 0 4.662-1.951 4.662-4.364 0-.497-.092-.974-.258-1.42a42.698 42.698 0 0 1 5.717-1.96s-3.684 16.758-17.852 9.271zm-.127-9.175l-3.286-10.873-3.962 17.351c.71 20.857 8.504 28.508 8.504 28.508s-.856-3.204-1.48-7.382l-.003-.025a84.701 84.701 0 0 1-.195-1.422l-.028-.23a66.443 66.443 0 0 1-.136-1.199 50.04 50.04 0 0 1-.134-1.515c-.011-.136-.023-.275-.032-.413a42.877 42.877 0 0 1-.079-1.49v-.026a39.561 39.561 0 0 1-.024-1.582v-.026-.025c.004-.517.019-1.03.047-1.536 0-.02.002-.038.004-.058.029-.505.07-1.002.127-1.488l.002-.019c0-.008.002-.015.003-.022.058-.493.131-.974.221-1.44.57.124 1.12.223 1.662.31.16.024.316.045.473.067.396.056.785.102 1.165.138.15.014.301.03.45.04a19.568 19.568 0 0 0 3.025.025c1-.067 1.94-.209 2.823-.416.397-.092.78-.202 1.155-.32.11-.036.22-.074.328-.111.272-.093.538-.19.799-.296.102-.041.206-.082.308-.125.343-.148.68-.302 1-.47a14.814 14.814 0 0 0 1.2-.705c.22-.141.434-.287.641-.438.084-.06.167-.118.248-.18.274-.206.541-.417.796-.637a16.28 16.28 0 0 0 1.568-1.55c1.279-1.445 2.244-3.028 2.977-4.542l.135-.283c.173-.371.337-.738.483-1.095l.004-.01a23.125 23.125 0 0 0 .49-1.314c.115-.33.222-.654.314-.958a24.809 24.809 0 0 0 .478-1.832c.014-.06.023-.113.036-.17.023-.108.046-.212.064-.307l.008-.042.03-.165a7.285 7.285 0 0 0 .053-.296l.017-.095.018-.124.005-.032.007-.056 3.279-.732 9.591-2.148-22.08-6.499-13.099 10.28zM96.129 39.467l-2.917 23.869-3.206 1.853 3.739 10.835 2.384 15.635 2.38-15.635 3.741-10.835-3.21-1.853-2.911-23.869"/><path fill="#FFFFFE" d="M180.736 49.313a103.738 103.738 0 0 1-3.346 7.64l-7.963 8.993-.536.607.07.24.157.538 6.506 21.824-4.196 39.42c-.135.183-.361.44-.65.754-.095.105-.198.215-.306.332-.218.232-.459.486-.715.756l-.395.416c-.406.427-.837.882-1.266 1.344-.86.928-1.713 1.891-2.344 2.729-.56.434-2.324 2.028-4.69 4.207a1070.05 1070.05 0 0 0-4.995 4.627c-6.847 6.37-14.963 13.994-16.275 15.137l-.47.408-.031.62c-.035.55-1.018 13.71-17.013 21.354l-.1.05-.086.058-2.239 1.507-.21.14-.088.118-.064.088c-1.91 2.578-3.97 4.52-6.064 5.972a22.125 22.125 0 0 1-6.26 3.029c-2.45.74-4.778.984-6.781.984-.577 0-1.473-.021-2.308-.054-.836-.033-1.612-.077-1.949-.122-.169.023-.448.045-.79.065-.851.053-2.093.094-2.983.107-.179.004-.343.004-.487.004a24.09 24.09 0 0 1-3.223-.214 22.306 22.306 0 0 1-9.818-3.799c-2.092-1.452-4.153-3.394-6.062-5.972l-.153-.206-.21-.14-2.24-1.507-.088-.059-.1-.05c-.5-.238-.984-.483-1.456-.732a36.9 36.9 0 0 1-2.658-1.548 33.157 33.157 0 0 1-3.392-2.482 29.657 29.657 0 0 1-3.52-3.467 27.279 27.279 0 0 1-3.018-4.288 25.853 25.853 0 0 1-.844-1.617c-1.882-3.933-2.106-6.96-2.123-7.219l-.031-.62-.474-.408c-.897-.782-4.978-4.599-9.66-8.971l-1.09-1.018a3637.426 3637.426 0 0 0-6.59-6.142 1132.794 1132.794 0 0 0-3.925-3.633c-2.367-2.179-4.131-3.773-4.693-4.207a25.228 25.228 0 0 0-1.085-1.33 81.229 81.229 0 0 0-2.521-2.743c-.135-.142-.268-.28-.395-.416-.77-.81-1.403-1.477-1.677-1.842l-4.188-39.419 6.5-21.825.23-.778-.253-.286-.285-.321-7.96-8.994a103.759 103.759 0 0 1-3.347-7.64 95.707 95.707 0 0 1-2.236-6.427 81.33 81.33 0 0 1-1.855-7.16 69.4 69.4 0 0 1-1.056-6.532 57.637 57.637 0 0 1-.335-4.512 47.307 47.307 0 0 1 .076-4.864c.069-.991.17-1.924.3-2.798a29.5 29.5 0 0 1 .463-2.449c.268-1.138.587-2.146.938-3.029.533-1.338 1.144-2.375 1.772-3.14.197-.239.396-.46.594-.645l.01-.01c.058-.036.175-.104.342-.19a9.943 9.943 0 0 1 1.457-.594 16.984 16.984 0 0 1 2.285-.56c.23-.04.472-.078.724-.113 1.008-.14 2.185-.231 3.542-.231 2.904 0 6.679.413 11.445 1.664 1.191.313 2.445.678 3.762 1.102 1.317.425 2.697.908 4.145 1.457 1.929.732 3.974 1.582 6.142 2.563 1.083.492 2.196 1.016 3.34 1.575 1.145.559 2.32 1.154 3.528 1.785 1.207.631 2.445 1.3 3.715 2.008s2.573 1.455 3.907 2.243c1.335.788 2.703 1.617 4.103 2.49l.592.37.66-.226c.15-.051 20.691-7.58 32.25-3.455 11.555-4.124 32.094 3.404 32.246 3.455l.662.226.592-.37c2.8-1.746 5.468-3.318 8.008-4.733 1.27-.708 2.509-1.377 3.715-2.008a131.01 131.01 0 0 1 8.47-4.071c1.053-.458 2.077-.885 3.07-1.28a92.808 92.808 0 0 1 2.893-1.1 80.548 80.548 0 0 1 4.016-1.334c.849-.257 1.67-.489 2.465-.697a58.696 58.696 0 0 1 3.391-.788 48.648 48.648 0 0 1 3.03-.513c.951-.13 1.845-.221 2.68-.279a33.923 33.923 0 0 1 2.345-.084c1.696 0 3.11.142 4.267.344.693.121 1.292.265 1.803.412a12.045 12.045 0 0 1 1.27.436c.226.092.414.178.566.253.228.113.375.199.445.244.203.186.403.411.603.655.215.26.426.544.634.87a13.69 13.69 0 0 1 1.138 2.27c.586 1.47 1.079 3.29 1.401 5.477.07.472.13.965.183 1.472.192 1.837.27 3.896.193 6.19-.188 5.621-1.36 14.072-5.48 24.632zm5.414-45.975l-.423-.391-.49-.304C183.984 1.863 180.35.05 173.713.05c-8.302 0-22.855 2.927-45.421 16.662-6.093-1.99-21.12-6.183-32.162-3.352-11.078-2.844-26.131 1.374-32.165 3.35C41.4 2.976 26.844.049 18.54.049c-6.653 0-10.283 1.818-11.535 2.6l-.481.302-.417.385C1.918 7.215-.296 15.068.032 24.884c.254 7.495 2.097 19.598 9.43 34.695l.36.74 6.832 7.72-6.123 20.555 4.492 42.269.999 1.327c.478.634 1.103 1.299 2.26 2.514 1.103 1.159 2.613 2.745 3.415 3.812l.513.656.605.48c1.344 1.066 11 10.085 16.769 15.474 3.616 3.378 6.143 5.737 7.632 7.109.852 4.811 4.488 16.803 19.854 24.294l1.355.91c5.904 7.601 14.2 11.777 23.443 11.777.78 0 2.868-.047 4.26-.152 1.392.105 3.478.152 4.258.152 9.245 0 17.54-4.174 23.445-11.777l1.361-.914c13.595-6.63 18.72-17.562 19.864-24.31 1.498-1.379 4.06-3.769 7.725-7.193 5.734-5.355 15.33-14.317 16.652-15.366l.636-.494.484-.644c.797-1.056 2.292-2.629 3.384-3.777 1.185-1.245 1.826-1.925 2.312-2.579l.982-1.317 4.495-42.251L175.6 68.04l6.835-7.72.36-.742c7.34-15.112 9.178-27.21 9.427-34.696.329-9.812-1.884-17.664-6.072-21.544z"/><path fill="#FFFFFE" d="M93.84 163.26c0-3.22-.606-3.412-.606-3.412l-3.117-2.86s-2.22-11.87-9.817-10.496l4.795 6.95c-7.814-5.922-13.591-7.46-17.146-7.679l5.387 9.22-12.144-4.897c-.22.455-.414.91-.583 1.362l11.995 12.012-12.171-2.858c2.123 6.962 8.576 12.128 9.989 12.47 4.167.99 23.417-6.59 23.417-9.812M80.7 178.837c3.708 10.08 15.43 7.16 15.43 7.16s11.72 2.92 15.428-7.16c0 0-9.352-4.176-15.428-4.868-6.076.692-15.43 4.868-15.43 4.868m50.947-27.39c-.17-.452-.362-.906-.584-1.36l-12.15 4.896 5.394-9.22c-3.554.218-9.332 1.757-17.146 7.679l4.795-6.95c-7.597-1.374-9.816 10.496-9.816 10.496l-3.118 2.86s-.604.191-.604 3.412c0 3.222 19.252 10.803 23.416 9.811 1.415-.34 7.865-5.507 9.989-12.469l-12.174 2.858 11.998-12.012m-71.302-11.399l.005-.004v-4.363l-19.825-16.317L26.34 92.34s2.119 32.62 3.931 34.993c2.383 3.114 22.906 22.278 22.906 22.278 1.087-4.197 5.452-8.125 6.777-9.24.234-.198.38-.315.39-.322m71.564-4.367v4.363l.008.007c.011.01.095.074.247.201l.146.123c1.334 1.124 5.686 5.045 6.766 9.235 0 0 20.526-19.164 22.909-22.278 1.812-2.374 3.931-34.993 3.931-34.993l-14.182 27.025-19.825 16.317M47.593 56.499V38.14l6.021-1.343c-9.767-7.644-23.743-16.462-37.955-17.792 0 0-.708 16.078 11.373 36.563l4.73 7-2.2-18.48 18.03 12.41m91.049-19.7l5.961 1.329.06.013V56.5l18.03-12.41-2.199 18.479 4.73-7c12.08-20.484 11.367-36.562 11.367-36.562-14.207 1.33-28.18 10.148-37.95 17.792m-66.474 82.337l.014-.11c.06-.472.114-.952.164-1.438l.016-.164c.046-.472.088-.95.122-1.428l.014-.207c.032-.471.058-.944.076-1.416l.006-.217c.015-.473.023-.943.021-1.41 0-.068-.002-.135-.003-.202a31.965 31.965 0 0 0-.042-1.408l-.011-.157a25.113 25.113 0 0 0-.12-1.407l-.013-.09a19.76 19.76 0 0 0-.215-1.404v-.002c-2.506.548-4.739.712-6.73.582-.067-.004-.132-.012-.2-.018a17.524 17.524 0 0 1-2.945-.477 15.058 15.058 0 0 1-7.015-3.961l-.041-.045a17.779 17.779 0 0 1-2.02-2.419c-.5-.719-.93-1.452-1.312-2.175a25.128 25.128 0 0 1-2.367-6.707c-.047-.245-.08-.437-.1-.568-.022-.13-.03-.2-.03-.2l-3.277-.733c-.199 4.899.652 22.473 22.98 22.871l2.827 6.366.004-.02c.069-.467.135-.947.197-1.436m70.647-26.993l-.005.032-.018.124-.017.095c-.008.05-.016.101-.028.163l-.024.133-.03.165-.01.042c-.017.095-.04.199-.063.306-.013.058-.022.11-.036.171a24.809 24.809 0 0 1-.882 3.046c-.121.344-.251.695-.4 1.059l-.004.01c-.146.356-.31.723-.483 1.094l-.135.283c-.733 1.514-1.698 3.097-2.977 4.541-.477.54-.999 1.06-1.568 1.55-.255.221-.522.432-.796.639l-.248.18c-.207.15-.422.296-.64.437a14.814 14.814 0 0 1-1.2.706c-.322.167-.658.321-1.001.469-.102.043-.206.084-.308.125-.26.105-.527.203-.799.296-.109.037-.217.075-.328.11a15.43 15.43 0 0 1-1.155.321c-.882.207-1.823.35-2.823.417-.5.034-1.017.05-1.549.044a22.41 22.41 0 0 1-1.477-.07c-.148-.01-.298-.026-.449-.04-.38-.036-.769-.082-1.165-.138-.157-.022-.313-.043-.473-.068a29.09 29.09 0 0 1-1.662-.31c-.09.467-.163.948-.22 1.44l-.004.023-.002.02c-.057.485-.098.982-.127 1.487l-.004.058a31.916 31.916 0 0 0-.047 1.536V112.69a39.561 39.561 0 0 0 .103 3.098c.009.138.02.277.032.414.027.37.058.736.094 1.102a66.443 66.443 0 0 0 .176 1.611l.028.23c.062.483.127.959.195 1.422l.004.025 2.83-6.366c22.33-.398 23.178-17.972 22.98-22.871l-3.278.732-.007.056"/><path fill="#00A3DA" d="M71.618 102.162s-1.541-1.344-4.181-3.065a4.65 4.65 0 0 1-2.028 1.298 4.857 4.857 0 0 1-1.525.24 4.95 4.95 0 0 1-2.222-.526 4.53 4.53 0 0 1-1.875-1.757 4.166 4.166 0 0 1-.563-2.08c0-.445.084-.868.216-1.273.016-.048.024-.1.04-.148a43.088 43.088 0 0 0-4.217-1.533c-.492-.15-.992-.294-1.498-.426l.027.116.053.205.016.06c.06.222.147.527.268.9.119.368.271.8.457 1.272a19.661 19.661 0 0 0 1.776 3.495 15.12 15.12 0 0 0 .637.91c.262.346.541.685.841 1.01l.064.073c.17.182.348.36.531.533.367.347.76.67 1.18.965.421.295.867.561 1.343.789a8.8 8.8 0 0 0 .924.371c2.495.865 5.685.712 9.736-1.429m61.413-5.89c0 2.412-2.086 4.363-4.662 4.363-1.424 0-2.697-.599-3.552-1.538-2.64 1.721-4.18 3.065-4.18 3.065 14.17 7.487 17.853-9.27 17.853-9.27a42.698 42.698 0 0 0-5.717 1.96c.166.445.258.922.258 1.42"/><path fill="#9E9F9E" d="M146.099 91.354c.197 4.899-.651 22.473-22.981 22.871l-2.83 6.366c.623 4.178 1.48 7.382 1.48 7.382s-7.795-7.65-8.505-28.508l3.962-17.351 3.286 10.873 13.098-10.28 22.081 6.5-9.591 2.147zm-47.59-15.33l-2.38 15.635-2.384-15.635-3.739-10.835 3.206-1.853 2.917-23.87 2.911 23.87 3.21 1.853-3.741 10.835zm-28.023 51.949s.857-3.204 1.48-7.382l-2.829-6.366c-22.327-.398-23.178-17.972-22.979-22.871l-9.595-2.148 22.082-6.499 13.099 10.28 3.284-10.873 3.964 17.351c-.71 20.857-8.506 28.508-8.506 28.508zm74.175-71.474V38.14l-.059-.013-25.791-5.748 2.413-2.91c-16.997-6.028-25.095-1.468-25.095-1.468s-8.102-4.56-25.097 1.469l2.413 2.909-25.852 5.761V56.5l-18.03-12.41 2.27 19.066-5.493 21.96v7.225l14.184 27.025 19.825 16.317v4.363l-.005.004c-.01.007-.156.124-.39.321 3.148-2.13 7.465-3.447 13.069-1.826l7.244-8.27v7.471c5.673-1.956 15.862 3.622 15.862 3.622s10.186-5.578 15.858-3.622v-7.47l7.246 8.27c5.607-1.623 9.93-.303 13.076 1.831a8.02 8.02 0 0 0-.145-.123c-.153-.127-.237-.192-.248-.201l-.008-.007v-4.363l19.825-16.317 14.182-27.025v-7.225l-5.494-21.96 2.272-19.066L144.66 56.5z"/></g></svg>