<svg width="1271" height="421" xmlns="http://www.w3.org/2000/svg" xmlns:xlink="http://www.w3.org/1999/xlink" overflow="hidden"><defs><filter id="fx0" x="-10%" y="-10%" width="120%" height="120%" filterUnits="userSpaceOnUse" primitiveUnits="userSpaceOnUse"><feComponentTransfer color-interpolation-filters="sRGB"><feFuncR type="discrete" tableValues="1 1"/><feFuncG type="discrete" tableValues="1 1"/><feFuncB type="discrete" tableValues="1 1"/><feFuncA type="linear" slope="1" intercept="0"/></feComponentTransfer><feGaussianBlur stdDeviation="0.862242 0.862242"/></filter><filter id="fx1" x="-10%" y="-10%" width="120%" height="120%" filterUnits="userSpaceOnUse" primitiveUnits="userSpaceOnUse"><feComponentTransfer color-interpolation-filters="sRGB"><feFuncR type="discrete" tableValues="1 1"/><feFuncG type="discrete" tableValues="1 1"/><feFuncB type="discrete" tableValues="1 1"/><feFuncA type="linear" slope="1" intercept="0"/></feComponentTransfer><feGaussianBlur stdDeviation="0.862242 0.862242"/></filter><filter id="fx2" x="-10%" y="-10%" width="120%" height="120%" filterUnits="userSpaceOnUse" primitiveUnits="userSpaceOnUse"><feComponentTransfer color-interpolation-filters="sRGB"><feFuncR type="discrete" tableValues="1 1"/><feFuncG type="discrete" tableValues="1 1"/><feFuncB type="discrete" tableValues="1 1"/><feFuncA type="linear" slope="1" intercept="0"/></feComponentTransfer><feGaussianBlur stdDeviation="0.862242 0.862242"/></filter><filter id="fx3" x="-10%" y="-10%" width="120%" height="120%" filterUnits="userSpaceOnUse" primitiveUnits="userSpaceOnUse"><feComponentTransfer color-interpolation-filters="sRGB"><feFuncR type="discrete" tableValues="1 1"/><feFuncG type="discrete" tableValues="1 1"/><feFuncB type="discrete" tableValues="1 1"/><feFuncA type="linear" slope="1" intercept="0"/></feComponentTransfer><feGaussianBlur stdDeviation="0.862242 0.862242"/></filter><filter id="fx4" x="-10%" y="-10%" width="120%" height="120%" filterUnits="userSpaceOnUse" primitiveUnits="userSpaceOnUse"><feComponentTransfer color-interpolation-filters="sRGB"><feFuncR type="discrete" tableValues="0 0"/><feFuncG type="discrete" tableValues="0.12549 0.12549"/><feFuncB type="discrete" tableValues="0.376471 0.376471"/><feFuncA type="linear" slope="1" intercept="0"/></feComponentTransfer><feGaussianBlur stdDeviation="1.71978 1.71978"/></filter><filter id="fx5" x="-10%" y="-10%" width="120%" height="120%" filterUnits="userSpaceOnUse" primitiveUnits="userSpaceOnUse"><feComponentTransfer color-interpolation-filters="sRGB"><feFuncR type="discrete" tableValues="0 0"/><feFuncG type="discrete" tableValues="0.12549 0.12549"/><feFuncB type="discrete" tableValues="0.376471 0.376471"/><feFuncA type="linear" slope="1" intercept="0"/></feComponentTransfer><feGaussianBlur stdDeviation="1.71978 1.71978"/></filter><filter id="fx6" x="-10%" y="-10%" width="120%" height="120%" filterUnits="userSpaceOnUse" primitiveUnits="userSpaceOnUse"><feComponentTransfer color-interpolation-filters="sRGB"><feFuncR type="discrete" tableValues="0 0"/><feFuncG type="discrete" tableValues="0 0"/><feFuncB type="discrete" tableValues="0 0"/><feFuncA type="linear" slope="0.4" intercept="0"/></feComponentTransfer><feGaussianBlur stdDeviation="1.77778 1.77778"/></filter><filter id="fx7" x="-10%" y="-10%" width="120%" height="120%" filterUnits="userSpaceOnUse" primitiveUnits="userSpaceOnUse"><feComponentTransfer color-interpolation-filters="sRGB"><feFuncR type="discrete" tableValues="1 1"/><feFuncG type="discrete" tableValues="1 1"/><feFuncB type="discrete" tableValues="1 1"/><feFuncA type="linear" slope="1" intercept="0"/></feComponentTransfer><feGaussianBlur stdDeviation="0.862242 0.862242"/></filter><filter id="fx8" x="-10%" y="-10%" width="120%" height="120%" filterUnits="userSpaceOnUse" primitiveUnits="userSpaceOnUse"><feComponentTransfer color-interpolation-filters="sRGB"><feFuncR type="discrete" tableValues="1 1"/><feFuncG type="discrete" tableValues="1 1"/><feFuncB type="discrete" tableValues="1 1"/><feFuncA type="linear" slope="1" intercept="0"/></feComponentTransfer><feGaussianBlur stdDeviation="0.862242 0.862242"/></filter><filter id="fx9" x="-10%" y="-10%" width="120%" height="120%" filterUnits="userSpaceOnUse" primitiveUnits="userSpaceOnUse"><feComponentTransfer color-interpolation-filters="sRGB"><feFuncR type="discrete" tableValues="0 0"/><feFuncG type="discrete" tableValues="0.12549 0.12549"/><feFuncB type="discrete" tableValues="0.376471 0.376471"/><feFuncA type="linear" slope="1" intercept="0"/></feComponentTransfer><feGaussianBlur stdDeviation="1.71978 1.71978"/></filter><clipPath id="clip10"><rect x="-545" y="1094" width="1271" height="421"/></clipPath><clipPath id="clip11"><rect x="118" y="-2" width="1138" height="374"/></clipPath><clipPath id="clip12"><rect x="0" y="0" width="1273" height="425"/></clipPath><clipPath id="clip13"><rect x="1" y="0" width="71" height="73"/></clipPath><clipPath id="clip14"><rect x="0" y="0" width="72" height="74"/></clipPath><clipPath id="clip15"><rect x="1" y="0" width="71" height="73"/></clipPath><clipPath id="clip16"><rect x="0" y="0" width="72" height="74"/></clipPath><clipPath id="clip17"><rect x="0" y="0" width="79" height="73"/></clipPath><clipPath id="clip18"><rect x="0" y="0" width="79" height="74"/></clipPath><clipPath id="clip19"><rect x="0" y="0" width="79" height="73"/></clipPath><clipPath id="clip20"><rect x="0" y="0" width="79" height="74"/></clipPath><clipPath id="clip21"><rect x="58" y="54" width="76" height="82"/></clipPath><clipPath id="clip22"><rect x="0" y="0" width="191" height="217"/></clipPath><clipPath id="clip23"><rect x="58" y="54" width="76" height="82"/></clipPath><clipPath id="clip24"><rect x="0" y="0" width="191" height="217"/></clipPath><radialGradient cx="1.85737e+06" cy="1.4859e+06" r="2.3786e+06" fx="1.85738e+06" fy="1.4859e+06" gradientUnits="userSpaceOnUse" spreadMethod="pad" id="fill25" gradientTransform="matrix(0.000104987 0 0 0.000104987 -208 1299)"><stop offset="0" stop-color="#00FF95"/><stop offset="0.00526316" stop-color="#00FE95"/><stop offset="0.0105263" stop-color="#00FE95"/><stop offset="0.0157895" stop-color="#00FE95"/><stop offset="0.0210526" stop-color="#00FE95"/><stop offset="0.0263158" stop-color="#00FE95"/><stop offset="0.0315789" stop-color="#00FE95"/><stop offset="0.0368421" stop-color="#00FE95"/><stop offset="0.0421053" stop-color="#00FE95"/><stop offset="0.0473684" stop-color="#00FE95"/><stop offset="0.0526316" stop-color="#00FE95"/><stop offset="0.0578947" stop-color="#00FE95"/><stop offset="0.0631579" stop-color="#00FD95"/><stop offset="0.0684211" stop-color="#00FD95"/><stop offset="0.0736842" stop-color="#00FD96"/><stop offset="0.0789474" stop-color="#01FD96"/><stop offset="0.0842105" stop-color="#01FD96"/><stop offset="0.0894737" stop-color="#01FC96"/><stop offset="0.0947368" stop-color="#01FC96"/><stop offset="0.1" stop-color="#01FC96"/><stop offset="0.105263" stop-color="#01FC96"/><stop offset="0.110526" stop-color="#01FB96"/><stop offset="0.115789" stop-color="#01FB96"/><stop offset="0.121053" stop-color="#01FB96"/><stop offset="0.126316" stop-color="#01FB96"/><stop offset="0.131579" stop-color="#01FA96"/><stop offset="0.136842" stop-color="#01FA96"/><stop offset="0.142105" stop-color="#01FA96"/><stop offset="0.147368" stop-color="#01F997"/><stop offset="0.152632" stop-color="#01F997"/><stop offset="0.157895" stop-color="#01F997"/><stop offset="0.163158" stop-color="#01F897"/><stop offset="0.168421" stop-color="#02F897"/><stop offset="0.173684" stop-color="#02F797"/><stop offset="0.178947" stop-color="#02F797"/><stop offset="0.184211" stop-color="#02F697"/><stop offset="0.189474" stop-color="#02F697"/><stop offset="0.194737" stop-color="#02F697"/><stop offset="0.2" stop-color="#02F597"/><stop offset="0.205263" stop-color="#02F597"/><stop offset="0.210526" stop-color="#02F497"/><stop offset="0.215789" stop-color="#02F497"/><stop offset="0.221053" stop-color="#02F397"/><stop offset="0.226316" stop-color="#02F398"/><stop offset="0.231579" stop-color="#02F298"/><stop offset="0.236842" stop-color="#02F298"/><stop offset="0.242105" stop-color="#02F198"/><stop offset="0.247368" stop-color="#02F198"/><stop offset="0.252632" stop-color="#02F098"/><stop offset="0.257895" stop-color="#02EF98"/><stop offset="0.263158" stop-color="#03EF98"/><stop offset="0.268421" stop-color="#03EE98"/><stop offset="0.273684" stop-color="#03EE98"/><stop offset="0.278947" stop-color="#03ED98"/><stop offset="0.284211" stop-color="#03EC98"/><stop offset="0.289474" stop-color="#03EC98"/><stop offset="0.294737" stop-color="#03EB98"/><stop offset="0.3" stop-color="#03EB98"/><stop offset="0.305263" stop-color="#03EA98"/><stop offset="0.310526" stop-color="#03E999"/><stop offset="0.315789" stop-color="#03E999"/><stop offset="0.321053" stop-color="#03E899"/><stop offset="0.326316" stop-color="#03E799"/><stop offset="0.331579" stop-color="#03E699"/><stop offset="0.336842" stop-color="#03E699"/><stop offset="0.342105" stop-color="#03E599"/><stop offset="0.347368" stop-color="#03E499"/><stop offset="0.352632" stop-color="#03E399"/><stop offset="0.357895" stop-color="#03E399"/><stop offset="0.363158" stop-color="#03E299"/><stop offset="0.368421" stop-color="#04E199"/><stop offset="0.373684" stop-color="#04E099"/><stop offset="0.378947" stop-color="#04E099"/><stop offset="0.384211" stop-color="#04DF99"/><stop offset="0.389474" stop-color="#04DE99"/><stop offset="0.394737" stop-color="#04DD99"/><stop offset="0.4" stop-color="#04DC99"/><stop offset="0.405263" stop-color="#04DB99"/><stop offset="0.410526" stop-color="#04DB9A"/><stop offset="0.415789" stop-color="#04DA9A"/><stop offset="0.421053" stop-color="#04D99A"/><stop offset="0.426316" stop-color="#04D89A"/><stop offset="0.431579" stop-color="#04D79A"/><stop offset="0.436842" stop-color="#04D69A"/><stop offset="0.442105" stop-color="#04D59A"/><stop offset="0.447368" stop-color="#04D49A"/><stop offset="0.452632" stop-color="#04D39A"/><stop offset="0.457895" stop-color="#04D29A"/><stop offset="0.463158" stop-color="#04D19A"/><stop offset="0.468421" stop-color="#04D09A"/><stop offset="0.473684" stop-color="#04CF9A"/><stop offset="0.478947" stop-color="#04CE9A"/><stop offset="0.484211" stop-color="#04CD9A"/><stop offset="0.489474" stop-color="#05CC9A"/><stop offset="0.494737" stop-color="#05CB9A"/><stop offset="0.5" stop-color="#05CA9A"/><stop offset="0.505263" stop-color="#05C99A"/><stop offset="0.510526" stop-color="#05C89A"/><stop offset="0.515789" stop-color="#05C79A"/><stop offset="0.521053" stop-color="#05C69A"/><stop offset="0.526316" stop-color="#05C59B"/><stop offset="0.531579" stop-color="#05C49B"/><stop offset="0.536842" stop-color="#05C39B"/><stop offset="0.542105" stop-color="#05C29B"/><stop offset="0.547368" stop-color="#05C19B"/><stop offset="0.552632" stop-color="#05C09B"/><stop offset="0.557895" stop-color="#05BF9B"/><stop offset="0.563158" stop-color="#05BD9B"/><stop offset="0.568421" stop-color="#05BC9B"/><stop offset="0.573684" stop-color="#05BB9B"/><stop offset="0.578947" stop-color="#05BA9B"/><stop offset="0.584211" stop-color="#05B99B"/><stop offset="0.589474" stop-color="#05B89B"/><stop offset="0.594737" stop-color="#05B69B"/><stop offset="0.6" stop-color="#05B59B"/><stop offset="0.605263" stop-color="#05B49B"/><stop offset="0.610526" stop-color="#05B39B"/><stop offset="0.615789" stop-color="#05B29B"/><stop offset="0.621053" stop-color="#05B09B"/><stop offset="0.626316" stop-color="#05AF9B"/><stop offset="0.631579" stop-color="#05AE9B"/><stop offset="0.636842" stop-color="#05AD9B"/><stop offset="0.642105" stop-color="#05AB9B"/><stop offset="0.647368" stop-color="#06AA9B"/><stop offset="0.652632" stop-color="#06A99B"/><stop offset="0.657895" stop-color="#06A79B"/><stop offset="0.663158" stop-color="#06A69B"/><stop offset="0.668421" stop-color="#06A59B"/><stop offset="0.673684" stop-color="#06A39C"/><stop offset="0.678947" stop-color="#06A29C"/><stop offset="0.684211" stop-color="#06A19C"/><stop offset="0.689474" stop-color="#069F9C"/><stop offset="0.694737" stop-color="#069E9C"/><stop offset="0.7" stop-color="#069D9C"/><stop offset="0.705263" stop-color="#069B9C"/><stop offset="0.710526" stop-color="#069A9C"/><stop offset="0.715789" stop-color="#06989C"/><stop offset="0.721053" stop-color="#06979C"/><stop offset="0.726316" stop-color="#06969C"/><stop offset="0.731579" stop-color="#06949C"/><stop offset="0.736842" stop-color="#06939C"/><stop offset="0.742105" stop-color="#06919C"/><stop offset="0.747368" stop-color="#06909C"/><stop offset="0.752632" stop-color="#068E9C"/><stop offset="0.757895" stop-color="#068D9C"/><stop offset="0.763158" stop-color="#068B9C"/><stop offset="0.768421" stop-color="#068A9C"/><stop offset="0.773684" stop-color="#06889C"/><stop offset="0.778947" stop-color="#06879C"/><stop offset="0.784211" stop-color="#06859C"/><stop offset="0.789474" stop-color="#06849C"/><stop offset="0.794737" stop-color="#06829C"/><stop offset="0.8" stop-color="#06819C"/><stop offset="0.805263" stop-color="#067F9C"/><stop offset="0.810526" stop-color="#067E9C"/><stop offset="0.815789" stop-color="#067C9C"/><stop offset="0.821053" stop-color="#067B9C"/><stop offset="0.826316" stop-color="#06799C"/><stop offset="0.831579" stop-color="#06779C"/><stop offset="0.836842" stop-color="#06769C"/><stop offset="0.842105" stop-color="#06749C"/><stop offset="0.847368" stop-color="#06729C"/><stop offset="0.852632" stop-color="#06719C"/><stop offset="0.857895" stop-color="#066F9C"/><stop offset="0.863158" stop-color="#066E9C"/><stop offset="0.868421" stop-color="#066C9C"/><stop offset="0.873684" stop-color="#066A9C"/><stop offset="0.878947" stop-color="#06699C"/><stop offset="0.884211" stop-color="#06679C"/><stop offset="0.889474" stop-color="#06659C"/><stop offset="0.894737" stop-color="#06639C"/><stop offset="0.9" stop-color="#06629C"/><stop offset="0.905263" stop-color="#06609C"/><stop offset="0.910526" stop-color="#065E9C"/><stop offset="0.915789" stop-color="#065D9C"/><stop offset="0.921053" stop-color="#065B9C"/><stop offset="0.926316" stop-color="#06599C"/><stop offset="0.931579" stop-color="#06579C"/><stop offset="0.936842" stop-color="#06559C"/><stop offset="0.942105" stop-color="#06549C"/><stop offset="0.947368" stop-color="#06529C"/><stop offset="0.952632" stop-color="#06509C"/><stop offset="0.957895" stop-color="#064E9C"/><stop offset="0.963158" stop-color="#064C9C"/><stop offset="0.968421" stop-color="#064B9C"/><stop offset="0.973684" stop-color="#06499C"/><stop offset="0.978947" stop-color="#06479C"/><stop offset="0.984211" stop-color="#06459C"/><stop offset="0.989474" stop-color="#06439C"/><stop offset="0.994737" stop-color="#06419C"/><stop offset="1" stop-color="#07409D"/></radialGradient><radialGradient cx="0" cy="0" r="4.51695e+06" gradientUnits="userSpaceOnUse" spreadMethod="pad" id="fill26" gradientTransform="matrix(0.000104987 0 0 0.000104987 -422 1097)"><stop offset="0" stop-color="#F8CBAD"/><stop offset="0.44" stop-color="#F8CBAD"/><stop offset="0.63" stop-color="#FFFFFF"/><stop offset="1" stop-color="#FFFFFF"/></radialGradient><clipPath id="clip27"><rect x="1" y="1" width="71" height="73"/></clipPath><clipPath id="clip28"><rect x="0" y="0" width="72" height="74"/></clipPath><radialGradient cx="747486" cy="594360" r="649519" fx="1.09515e+06" fy="1.143e+06" gradientUnits="userSpaceOnUse" spreadMethod="pad" id="fill29" gradientTransform="matrix(0.000104987 0 0 0.000104987 -293.984 1162.73)"><stop offset="0" stop-color="#843C0C"/><stop offset="0.0107527" stop-color="#833B0C"/><stop offset="0.0215054" stop-color="#833B0D"/><stop offset="0.0322581" stop-color="#833B0D"/><stop offset="0.0430108" stop-color="#833B0E"/><stop offset="0.0537634" stop-color="#833B0E"/><stop offset="0.0645161" stop-color="#833B0F"/><stop offset="0.0752688" stop-color="#833B0F"/><stop offset="0.0860215" stop-color="#833B10"/><stop offset="0.0967742" stop-color="#823B10"/><stop offset="0.107527" stop-color="#823B10"/><stop offset="0.11828" stop-color="#823B11"/><stop offset="0.129032" stop-color="#813B11"/><stop offset="0.139785" stop-color="#813B12"/><stop offset="0.150538" stop-color="#813B12"/><stop offset="0.16129" stop-color="#803B13"/><stop offset="0.172043" stop-color="#803B13"/><stop offset="0.182796" stop-color="#803B14"/><stop offset="0.193548" stop-color="#7F3A14"/><stop offset="0.204301" stop-color="#7F3A15"/><stop offset="0.215054" stop-color="#7E3A15"/><stop offset="0.225806" stop-color="#7E3A15"/><stop offset="0.236559" stop-color="#7D3A16"/><stop offset="0.247312" stop-color="#7D3A16"/><stop offset="0.258065" stop-color="#7C3A17"/><stop offset="0.268817" stop-color="#7B3A17"/><stop offset="0.27957" stop-color="#7B3917"/><stop offset="0.290323" stop-color="#7A3918"/><stop offset="0.301075" stop-color="#7A3918"/><stop offset="0.311828" stop-color="#793919"/><stop offset="0.322581" stop-color="#783919"/><stop offset="0.333333" stop-color="#783919"/><stop offset="0.344086" stop-color="#77391A"/><stop offset="0.354839" stop-color="#76381A"/><stop offset="0.365591" stop-color="#75381A"/><stop offset="0.376344" stop-color="#74381B"/><stop offset="0.387097" stop-color="#74381B"/><stop offset="0.397849" stop-color="#73381B"/><stop offset="0.408602" stop-color="#72371C"/><stop offset="0.419355" stop-color="#71371C"/><stop offset="0.430108" stop-color="#70371C"/><stop offset="0.44086" stop-color="#6F371D"/><stop offset="0.451613" stop-color="#6E371D"/><stop offset="0.462366" stop-color="#6D361D"/><stop offset="0.473118" stop-color="#6C361E"/><stop offset="0.483871" stop-color="#6B361E"/><stop offset="0.494624" stop-color="#6A361E"/><stop offset="0.505376" stop-color="#69351F"/><stop offset="0.516129" stop-color="#68351F"/><stop offset="0.526882" stop-color="#67351F"/><stop offset="0.537634" stop-color="#66351F"/><stop offset="0.548387" stop-color="#653420"/><stop offset="0.55914" stop-color="#643420"/><stop offset="0.569892" stop-color="#633420"/><stop offset="0.580645" stop-color="#623420"/><stop offset="0.591398" stop-color="#603321"/><stop offset="0.602151" stop-color="#5F3321"/><stop offset="0.612903" stop-color="#5E3321"/><stop offset="0.623656" stop-color="#5D3221"/><stop offset="0.634409" stop-color="#5B3222"/><stop offset="0.645161" stop-color="#5A3222"/><stop offset="0.655914" stop-color="#593222"/><stop offset="0.666667" stop-color="#583122"/><stop offset="0.677419" stop-color="#563122"/><stop offset="0.688172" stop-color="#553123"/><stop offset="0.698925" stop-color="#533023"/><stop offset="0.709677" stop-color="#523023"/><stop offset="0.72043" stop-color="#513023"/><stop offset="0.731183" stop-color="#4F2F23"/><stop offset="0.741935" stop-color="#4E2F23"/><stop offset="0.752688" stop-color="#4C2F24"/><stop offset="0.763441" stop-color="#4B2E24"/><stop offset="0.774194" stop-color="#492E24"/><stop offset="0.784946" stop-color="#482E24"/><stop offset="0.795699" stop-color="#462D24"/><stop offset="0.806452" stop-color="#452D24"/><stop offset="0.817204" stop-color="#432C24"/><stop offset="0.827957" stop-color="#422C25"/><stop offset="0.83871" stop-color="#402C25"/><stop offset="0.849462" stop-color="#3E2B25"/><stop offset="0.860215" stop-color="#3D2B25"/><stop offset="0.870968" stop-color="#3B2B25"/><stop offset="0.88172" stop-color="#392A25"/><stop offset="0.892473" stop-color="#382A25"/><stop offset="0.903226" stop-color="#362925"/><stop offset="0.913979" stop-color="#342925"/><stop offset="0.924731" stop-color="#322925"/><stop offset="0.935484" stop-color="#312825"/><stop offset="0.946237" stop-color="#2F2825"/><stop offset="0.956989" stop-color="#2D2725"/><stop offset="0.967742" stop-color="#2B2725"/><stop offset="0.978495" stop-color="#292625"/><stop offset="0.989247" stop-color="#272625"/><stop offset="1" stop-color="#262626"/></radialGradient><clipPath id="clip30"><rect x="0" y="1" width="79" height="73"/></clipPath><clipPath id="clip31"><rect x="0" y="0" width="79" height="74"/></clipPath><radialGradient cx="747486" cy="594360" r="646562" fx="1.08959e+06" fy="1.143e+06" gradientUnits="userSpaceOnUse" spreadMethod="pad" id="fill32" gradientTransform="matrix(0.000104987 0 0 0.000104987 -374.495 1320.74)"><stop offset="0" stop-color="#843C0C"/><stop offset="0.0107527" stop-color="#833B0C"/><stop offset="0.0215054" stop-color="#833B0D"/><stop offset="0.0322581" stop-color="#833B0D"/><stop offset="0.0430108" stop-color="#833B0E"/><stop offset="0.0537634" stop-color="#833B0E"/><stop offset="0.0645161" stop-color="#833B0F"/><stop offset="0.0752688" stop-color="#833B0F"/><stop offset="0.0860215" stop-color="#833B10"/><stop offset="0.0967742" stop-color="#823B10"/><stop offset="0.107527" stop-color="#823B10"/><stop offset="0.11828" stop-color="#823B11"/><stop offset="0.129032" stop-color="#813B11"/><stop offset="0.139785" stop-color="#813B12"/><stop offset="0.150538" stop-color="#813B12"/><stop offset="0.16129" stop-color="#803B13"/><stop offset="0.172043" stop-color="#803B13"/><stop offset="0.182796" stop-color="#803B14"/><stop offset="0.193548" stop-color="#7F3A14"/><stop offset="0.204301" stop-color="#7F3A15"/><stop offset="0.215054" stop-color="#7E3A15"/><stop offset="0.225806" stop-color="#7E3A15"/><stop offset="0.236559" stop-color="#7D3A16"/><stop offset="0.247312" stop-color="#7D3A16"/><stop offset="0.258065" stop-color="#7C3A17"/><stop offset="0.268817" stop-color="#7B3A17"/><stop offset="0.27957" stop-color="#7B3917"/><stop offset="0.290323" stop-color="#7A3918"/><stop offset="0.301075" stop-color="#7A3918"/><stop offset="0.311828" stop-color="#793919"/><stop offset="0.322581" stop-color="#783919"/><stop offset="0.333333" stop-color="#783919"/><stop offset="0.344086" stop-color="#77391A"/><stop offset="0.354839" stop-color="#76381A"/><stop offset="0.365591" stop-color="#75381A"/><stop offset="0.376344" stop-color="#74381B"/><stop offset="0.387097" stop-color="#74381B"/><stop offset="0.397849" stop-color="#73381B"/><stop offset="0.408602" stop-color="#72371C"/><stop offset="0.419355" stop-color="#71371C"/><stop offset="0.430108" stop-color="#70371C"/><stop offset="0.44086" stop-color="#6F371D"/><stop offset="0.451613" stop-color="#6E371D"/><stop offset="0.462366" stop-color="#6D361D"/><stop offset="0.473118" stop-color="#6C361E"/><stop offset="0.483871" stop-color="#6B361E"/><stop offset="0.494624" stop-color="#6A361E"/><stop offset="0.505376" stop-color="#69351F"/><stop offset="0.516129" stop-color="#68351F"/><stop offset="0.526882" stop-color="#67351F"/><stop offset="0.537634" stop-color="#66351F"/><stop offset="0.548387" stop-color="#653420"/><stop offset="0.55914" stop-color="#643420"/><stop offset="0.569892" stop-color="#633420"/><stop offset="0.580645" stop-color="#623420"/><stop offset="0.591398" stop-color="#603321"/><stop offset="0.602151" stop-color="#5F3321"/><stop offset="0.612903" stop-color="#5E3321"/><stop offset="0.623656" stop-color="#5D3221"/><stop offset="0.634409" stop-color="#5B3222"/><stop offset="0.645161" stop-color="#5A3222"/><stop offset="0.655914" stop-color="#593222"/><stop offset="0.666667" stop-color="#583122"/><stop offset="0.677419" stop-color="#563122"/><stop offset="0.688172" stop-color="#553123"/><stop offset="0.698925" stop-color="#533023"/><stop offset="0.709677" stop-color="#523023"/><stop offset="0.72043" stop-color="#513023"/><stop offset="0.731183" stop-color="#4F2F23"/><stop offset="0.741935" stop-color="#4E2F23"/><stop offset="0.752688" stop-color="#4C2F24"/><stop offset="0.763441" stop-color="#4B2E24"/><stop offset="0.774194" stop-color="#492E24"/><stop offset="0.784946" stop-color="#482E24"/><stop offset="0.795699" stop-color="#462D24"/><stop offset="0.806452" stop-color="#452D24"/><stop offset="0.817204" stop-color="#432C24"/><stop offset="0.827957" stop-color="#422C25"/><stop offset="0.83871" stop-color="#402C25"/><stop offset="0.849462" stop-color="#3E2B25"/><stop offset="0.860215" stop-color="#3D2B25"/><stop offset="0.870968" stop-color="#3B2B25"/><stop offset="0.88172" stop-color="#392A25"/><stop offset="0.892473" stop-color="#382A25"/><stop offset="0.903226" stop-color="#362925"/><stop offset="0.913979" stop-color="#342925"/><stop offset="0.924731" stop-color="#322925"/><stop offset="0.935484" stop-color="#312825"/><stop offset="0.946237" stop-color="#2F2825"/><stop offset="0.956989" stop-color="#2D2725"/><stop offset="0.967742" stop-color="#2B2725"/><stop offset="0.978495" stop-color="#292625"/><stop offset="0.989247" stop-color="#272625"/><stop offset="1" stop-color="#262626"/></radialGradient><clipPath id="clip33"><rect x="58" y="54" width="76" height="82"/></clipPath><clipPath id="clip34"><rect x="0" y="0" width="191" height="216"/></clipPath><linearGradient x1="321.669" y1="39.213" x2="-9" y2="39.213" gradientUnits="userSpaceOnUse" spreadMethod="reflect" id="fill35"><stop offset="0" stop-color="#00FF95"/><stop offset="0.03" stop-color="#00FF95"/><stop offset="1" stop-color="#03A499"/></linearGradient></defs><g clip-path="url(#clip10)" transform="translate(545 -1094)"><g clip-path="url(#clip11)" filter="url(#fx6)" transform="translate(-546 1093)"><g clip-path="url(#clip12)"><path d="M340.828 208.828 446.396 208.828 535.828 364.828 340.828 364.828Z" fill="#FF0000" fill-rule="evenodd"/><path d="M216.182 208.397 325.849 208.397 325.849 364.828 126.828 364.828ZM331.318 6.82837 437.828 193.296 224.808 193.296Z" fill="#FF0000" fill-rule="evenodd"/><g clip-path="url(#clip13)" filter="url(#fx0)" transform="translate(303 104)"><g clip-path="url(#clip14)"><path d="M568.757-1072.15 568.757-1039.98 577.785-1039.98C582.867-1040.06 586.965-1041.57 590.079-1044.52 593.192-1047.46 594.793-1051.32 594.881-1056.11 594.793-1060.9 593.192-1064.75 590.079-1067.66 586.965-1070.57 582.867-1072.07 577.785-1072.15ZM550.145-1089.03 574.712-1089.03C582.453-1088.98 589.269-1087.57 595.159-1084.79 601.048-1082.01 605.658-1078.15 608.987-1073.22 612.316-1068.3 614.01-1062.59 614.069-1056.11 614.01-1049.63 612.316-1043.92 608.987-1038.97 605.658-1034.03 601.048-1030.16 595.159-1027.36 589.269-1024.57 582.453-1023.14 574.712-1023.09L550.145-1023.09Z" fill="#FF0000" fill-rule="evenodd"/></g></g><path d="M321.199 120.293 321.199 152.465 330.227 152.465C335.31 152.381 339.407 150.868 342.521 147.927 345.634 144.986 347.235 141.121 347.323 136.331 347.235 131.545 345.634 127.696 342.521 124.782 339.407 121.869 335.31 120.373 330.227 120.293ZM302.587 103.409 327.154 103.409C334.895 103.458 341.711 104.873 347.601 107.655 353.491 110.437 358.1 114.291 361.429 119.218 364.758 124.144 366.452 129.848 366.511 136.331 366.452 142.814 364.758 148.527 361.429 153.469 358.1 158.41 353.491 162.28 347.601 165.077 341.711 167.875 334.895 169.298 327.154 169.349L302.587 169.349Z" fill="#FF0000" fill-rule="evenodd"/><g clip-path="url(#clip15)" filter="url(#fx1)" transform="translate(303 104)"><g clip-path="url(#clip16)"><path d="M568.757-1072.15 568.757-1039.98 577.785-1039.98C582.867-1040.06 586.965-1041.57 590.079-1044.52 593.192-1047.46 594.793-1051.32 594.881-1056.11 594.793-1060.9 593.192-1064.75 590.079-1067.66 586.965-1070.57 582.867-1072.07 577.785-1072.15ZM550.145-1089.03 574.712-1089.03C582.453-1088.98 589.269-1087.57 595.159-1084.79 601.048-1082.01 605.658-1078.15 608.987-1073.22 612.316-1068.3 614.01-1062.59 614.069-1056.11 614.01-1049.63 612.316-1043.92 608.987-1038.97 605.658-1034.03 601.048-1030.16 595.159-1027.36 589.269-1024.57 582.453-1023.14 574.712-1023.09L550.145-1023.09Z" fill="#FF0000" fill-rule="evenodd"/></g></g><path d="M321.199 120.293 321.199 152.465 330.227 152.465C335.31 152.381 339.407 150.868 342.521 147.927 345.634 144.986 347.235 141.121 347.323 136.331 347.235 131.545 345.634 127.696 342.521 124.782 339.407 121.869 335.31 120.373 330.227 120.293ZM302.587 103.409 327.154 103.409C334.895 103.458 341.711 104.873 347.601 107.655 353.491 110.437 358.1 114.291 361.429 119.218 364.758 124.144 366.452 129.848 366.511 136.331 366.452 142.814 364.758 148.527 361.429 153.469 358.1 158.41 353.491 162.28 347.601 165.077 341.711 167.875 334.895 169.298 327.154 169.349L302.587 169.349Z" fill="#FF0000" fill-rule="evenodd"/><g clip-path="url(#clip17)" filter="url(#fx2)" transform="translate(218 262)"><g clip-path="url(#clip18)"><path d="M549.553-1089.02 570.574-1089.02 585.451-1050.44 600.233-1089.02 621.253-1089.02 595.913-1023.08 574.893-1023.08Z" fill="#FF0000" fill-rule="evenodd"/></g></g><path d="M216.995 261.419 238.016 261.419 252.893 300.004 267.675 261.419 288.695 261.419 263.356 327.359 242.335 327.359Z" fill="#FF0000" fill-rule="evenodd"/><g clip-path="url(#clip19)" filter="url(#fx3)" transform="translate(218 262)"><g clip-path="url(#clip20)"><path d="M549.553-1089.02 570.574-1089.02 585.451-1050.44 600.233-1089.02 621.253-1089.02 595.913-1023.08 574.893-1023.08Z" fill="#FF0000" fill-rule="evenodd"/></g></g><path d="M216.995 261.419 238.016 261.419 252.893 300.004 267.675 261.419 288.695 261.419 263.356 327.359 242.335 327.359Z" fill="#FF0000" fill-rule="evenodd"/><g clip-path="url(#clip21)" filter="url(#fx4)" transform="translate(321 202)"><g clip-path="url(#clip22)"><path d="M21.696 0 40.32 0 40.32-49.344 59.808-49.344 59.808-65.952 2.208-65.952 2.208-49.344 21.696-49.344Z" fill="#FFFFFF" transform="translate(610.23 -965)"/></g></g><path d="M21.696 0 40.32 0 40.32-49.344 59.808-49.344 59.808-65.952 2.208-65.952 2.208-49.344 21.696-49.344Z" fill="#FFFFFF" transform="translate(382.491 327)"/><g clip-path="url(#clip23)" filter="url(#fx5)" transform="translate(321 202)"><g clip-path="url(#clip24)"><path d="M21.696 0 40.32 0 40.32-49.344 59.808-49.344 59.808-65.952 2.208-65.952 2.208-49.344 21.696-49.344Z" fill="#FFFFFF" transform="translate(610.23 -965)"/></g></g><path d="M21.696 0 40.32 0 40.32-49.344 59.808-49.344 59.808-65.952 2.208-65.952 2.208-49.344 21.696-49.344Z" fill="#FFFFFF" transform="translate(382.491 327)"/><path d="M929.763 159.848 946.99 159.848 942.826 177.792 960.268 177.792 958.33 186.764 940.745 186.764 933.782 215.475C932.586 220.404 931.761 224.148 931.306 226.708 930.852 229.268 930.624 231.434 930.624 233.204 930.624 235.453 931.031 237.092 931.844 238.121 932.658 239.15 933.854 239.664 935.433 239.664 937.587 239.664 939.8 238.899 942.073 237.367 944.346 235.836 946.798 233.467 949.43 230.261L954.957 235.932C950.124 241.243 945.686 244.94 941.642 247.021 937.599 249.103 932.825 250.144 927.323 250.144 921.867 250.144 917.68 248.744 914.761 245.945 911.843 243.145 910.383 239.281 910.383 234.353 910.383 232.104 910.551 229.962 910.885 227.929 911.22 225.895 911.914 222.557 912.967 217.916L920.36 186.764 909.163 186.764 910.527 180.95C913.876 180.95 916.412 180.639 918.135 180.017 919.858 179.395 921.305 178.462 922.478 177.218 923.65 175.974 924.786 174.084 925.887 171.547 926.988 169.011 928.28 165.111 929.763 159.848Z" fill="#00FF95" fill-rule="evenodd"/><path d="M1013.7 217.126 1102.13 217.126 1102.13 226.672 1013.7 226.672ZM1013.7 187.339 1102.13 187.339 1102.13 196.885 1013.7 196.885Z" fill="#FFFFFF" fill-rule="evenodd"/><path d="M1203.63 73.1085C1199.18 73.1085 1195.23 75.3456 1191.79 79.8197 1188.34 84.2938 1185.57 90.3112 1183.46 97.8717 1181.36 105.432 1180.3 112.203 1180.3 118.185 1180.3 121.678 1180.82 124.286 1181.85 126.008 1182.88 127.731 1184.47 128.592 1186.62 128.592 1189.78 128.592 1193 127.049 1196.28 123.963 1199.55 120.876 1202.2 117.252 1204.21 113.089 1206.22 108.925 1208.01 103.231 1209.59 96.0055L1210.16 93.3497C1210.93 89.8087 1211.31 86.2916 1211.31 82.7985 1211.31 79.5924 1210.71 77.1759 1209.52 75.549 1208.32 73.922 1206.36 73.1085 1203.63 73.1085ZM1234.43 35.2101 1242.54 35.2101 1224.38 115.601C1223.66 118.759 1223.3 121.486 1223.3 123.783 1223.3 125.362 1223.56 126.583 1224.09 127.444 1224.62 128.305 1225.52 128.736 1226.82 128.736 1228.3 128.736 1229.9 128.066 1231.63 126.726 1233.35 125.386 1235.36 123.401 1237.66 120.769L1242.82 125.937C1237.8 130.961 1233.47 134.418 1229.83 136.308 1226.19 138.199 1222.37 139.144 1218.35 139.144 1214.33 139.144 1211.15 138.031 1208.8 135.806 1206.46 133.581 1205.28 130.65 1205.28 127.013 1205.28 125.817 1205.43 124.669 1205.71 123.568L1204.78 123.353C1200.24 128.856 1195.99 132.863 1192.04 135.375 1188.09 137.888 1183.37 139.144 1177.86 139.144 1172.46 139.144 1168.26 137.182 1165.27 133.258 1162.28 129.334 1160.78 123.664 1160.78 116.247 1160.78 109.787 1161.71 103.375 1163.58 97.0104 1165.45 90.6461 1168.13 85.1552 1171.62 80.5375 1175.11 75.9198 1179.5 72.2831 1184.79 69.6273 1190.08 66.9716 1196.05 65.6437 1202.7 65.6437 1206.96 65.6437 1211.07 66.3854 1215.05 67.8688L1217.49 56.8868C1217.77 55.6906 1218.11 53.9679 1218.49 51.7189 1218.87 49.4698 1219.06 47.7711 1219.06 46.6227 1219.06 45.5699 1218.96 44.7445 1218.74 44.1464 1218.53 43.5482 1218.2 43.0577 1217.77 42.6749 1217.34 42.2921 1216.77 41.993 1216.05 41.7777 1215.33 41.5624 1213.92 41.3112 1211.82 41.024L1212.96 36.3585Z" fill="#FFFFFF" fill-rule="evenodd"/><path d="M1183.76 274.757C1188.45 274.757 1192.07 276.049 1194.63 278.633 1197.19 281.217 1198.47 284.471 1198.47 288.395 1198.47 290.787 1198.21 293.276 1197.68 295.86L1193.02 317.752C1192.59 320.288 1192.23 322.752 1191.94 325.145 1191.65 327.537 1191.51 329.667 1191.51 331.533 1191.51 333.351 1191.63 334.835 1191.87 335.983 1192.11 337.132 1192.42 337.706 1192.8 337.706 1194.14 337.706 1195.88 337.084 1198.01 335.84 1200.14 334.595 1202.43 332.873 1204.9 330.672 1207.36 328.47 1209.83 325.886 1212.29 322.92 1214.75 319.953 1216.98 316.747 1218.97 313.302 1220.95 309.856 1222.55 306.208 1223.77 302.355 1224.99 298.503 1225.6 294.615 1225.6 290.692 1225.6 288.778 1225.23 287.294 1224.49 286.241 1223.75 285.189 1222.59 284.662 1221.01 284.662 1219.24 284.662 1217.6 285.32 1216.09 286.636 1214.59 287.952 1213.04 289.711 1211.46 291.912L1206.44 287.892C1209.46 283.729 1212.82 280.499 1216.53 278.202 1220.23 275.906 1224.36 274.757 1228.91 274.757 1233.4 274.757 1236.59 275.917 1238.45 278.238 1240.32 280.559 1241.25 283.657 1241.25 287.533 1241.25 289.782 1240.82 292.378 1239.96 295.321 1239.1 298.264 1237.85 301.363 1236.23 304.616 1234.6 307.87 1232.69 311.22 1230.49 314.665 1228.28 318.111 1225.84 321.448 1223.16 324.678 1220.48 327.908 1217.63 330.959 1214.59 333.83 1211.55 336.701 1208.39 339.201 1205.11 341.331 1201.83 343.46 1198.51 345.147 1195.14 346.391 1191.76 347.635 1188.38 348.257 1184.98 348.257 1182.44 348.257 1180.36 347.91 1178.73 347.216 1177.11 346.522 1175.92 345.542 1175.18 344.273 1174.44 343.005 1173.95 341.522 1173.71 339.823 1173.47 338.125 1173.35 336.27 1173.35 334.26 1173.35 331.485 1173.52 328.554 1173.85 325.468 1174.19 322.381 1174.62 319.283 1175.15 316.173L1179.52 295.86C1179.81 294.615 1180.05 293.479 1180.24 292.45 1180.43 291.421 1180.53 290.596 1180.53 289.974 1180.53 288.538 1180.23 287.402 1179.63 286.564 1179.03 285.727 1177.8 285.308 1175.94 285.308 1172.97 285.308 1168.73 287.821 1163.23 292.845L1158.78 287.821C1161.03 284.997 1164.39 282.114 1168.86 279.171 1173.34 276.229 1178.3 274.757 1183.76 274.757Z" fill="#FFFFFF" fill-rule="evenodd"/><path d="M1153.34 201.995 1247.34 201.995 1247.34 211.995 1153.34 211.995Z" fill="#FFFFFF" fill-rule="evenodd"/><path d="M929.763 159.848 946.99 159.848 942.826 177.792 960.268 177.792 958.33 186.764 940.745 186.764 933.782 215.475C932.586 220.404 931.761 224.148 931.306 226.708 930.852 229.268 930.624 231.434 930.624 233.204 930.624 235.453 931.031 237.092 931.844 238.121 932.658 239.15 933.854 239.664 935.433 239.664 937.587 239.664 939.8 238.899 942.073 237.367 944.346 235.836 946.798 233.467 949.43 230.261L954.957 235.932C950.124 241.243 945.686 244.94 941.642 247.021 937.599 249.103 932.825 250.144 927.323 250.144 921.867 250.144 917.68 248.744 914.761 245.945 911.843 243.145 910.383 239.281 910.383 234.353 910.383 232.104 910.551 229.962 910.885 227.929 911.22 225.895 911.914 222.557 912.967 217.916L920.36 186.764 909.163 186.764 910.527 180.95C913.876 180.95 916.412 180.639 918.135 180.017 919.858 179.395 921.305 178.462 922.478 177.218 923.65 175.974 924.786 174.084 925.887 171.547 926.988 169.011 928.28 165.111 929.763 159.848Z" fill="#00FF95" fill-rule="evenodd"/><path d="M1013.7 217.126 1102.13 217.126 1102.13 226.672 1013.7 226.672ZM1013.7 187.339 1102.13 187.339 1102.13 196.885 1013.7 196.885Z" fill="#FFFFFF" fill-rule="evenodd"/><path d="M1203.63 73.1085C1199.18 73.1085 1195.23 75.3456 1191.79 79.8197 1188.34 84.2938 1185.57 90.3112 1183.46 97.8717 1181.36 105.432 1180.3 112.203 1180.3 118.185 1180.3 121.678 1180.82 124.286 1181.85 126.008 1182.88 127.731 1184.47 128.592 1186.62 128.592 1189.78 128.592 1193 127.049 1196.28 123.963 1199.55 120.876 1202.2 117.252 1204.21 113.089 1206.22 108.925 1208.01 103.231 1209.59 96.0055L1210.16 93.3497C1210.93 89.8087 1211.31 86.2916 1211.31 82.7985 1211.31 79.5924 1210.71 77.1759 1209.52 75.549 1208.32 73.922 1206.36 73.1085 1203.63 73.1085ZM1234.43 35.2101 1242.54 35.2101 1224.38 115.601C1223.66 118.759 1223.3 121.486 1223.3 123.783 1223.3 125.362 1223.56 126.583 1224.09 127.444 1224.62 128.305 1225.52 128.736 1226.82 128.736 1228.3 128.736 1229.9 128.066 1231.63 126.726 1233.35 125.386 1235.36 123.401 1237.66 120.769L1242.82 125.937C1237.8 130.961 1233.47 134.418 1229.83 136.308 1226.19 138.199 1222.37 139.144 1218.35 139.144 1214.33 139.144 1211.15 138.031 1208.8 135.806 1206.46 133.581 1205.28 130.65 1205.28 127.013 1205.28 125.817 1205.43 124.669 1205.71 123.568L1204.78 123.353C1200.24 128.856 1195.99 132.863 1192.04 135.375 1188.09 137.888 1183.37 139.144 1177.86 139.144 1172.46 139.144 1168.26 137.182 1165.27 133.258 1162.28 129.334 1160.78 123.664 1160.78 116.247 1160.78 109.787 1161.71 103.375 1163.58 97.0104 1165.45 90.6461 1168.13 85.1552 1171.62 80.5375 1175.11 75.9198 1179.5 72.2831 1184.79 69.6273 1190.08 66.9716 1196.05 65.6437 1202.7 65.6437 1206.96 65.6437 1211.07 66.3854 1215.05 67.8688L1217.49 56.8868C1217.77 55.6906 1218.11 53.9679 1218.49 51.7189 1218.87 49.4698 1219.06 47.7711 1219.06 46.6227 1219.06 45.5699 1218.96 44.7445 1218.74 44.1464 1218.53 43.5482 1218.2 43.0577 1217.77 42.6749 1217.34 42.2921 1216.77 41.993 1216.05 41.7777 1215.33 41.5624 1213.92 41.3112 1211.82 41.024L1212.96 36.3585Z" fill="#FFFFFF" fill-rule="evenodd"/><path d="M1183.76 274.757C1188.45 274.757 1192.07 276.049 1194.63 278.633 1197.19 281.217 1198.47 284.471 1198.47 288.395 1198.47 290.787 1198.21 293.276 1197.68 295.86L1193.02 317.752C1192.59 320.288 1192.23 322.752 1191.94 325.145 1191.65 327.537 1191.51 329.667 1191.51 331.533 1191.51 333.351 1191.63 334.835 1191.87 335.983 1192.11 337.132 1192.42 337.706 1192.8 337.706 1194.14 337.706 1195.88 337.084 1198.01 335.84 1200.14 334.595 1202.43 332.873 1204.9 330.672 1207.36 328.47 1209.83 325.886 1212.29 322.92 1214.75 319.953 1216.98 316.747 1218.97 313.302 1220.95 309.856 1222.55 306.208 1223.77 302.355 1224.99 298.503 1225.6 294.615 1225.6 290.692 1225.6 288.778 1225.23 287.294 1224.49 286.241 1223.75 285.189 1222.59 284.662 1221.01 284.662 1219.24 284.662 1217.6 285.32 1216.09 286.636 1214.59 287.952 1213.04 289.711 1211.46 291.912L1206.44 287.892C1209.46 283.729 1212.82 280.499 1216.53 278.202 1220.23 275.906 1224.36 274.757 1228.91 274.757 1233.4 274.757 1236.59 275.917 1238.45 278.238 1240.32 280.559 1241.25 283.657 1241.25 287.533 1241.25 289.782 1240.82 292.378 1239.96 295.321 1239.1 298.264 1237.85 301.363 1236.23 304.616 1234.6 307.87 1232.69 311.22 1230.49 314.665 1228.28 318.111 1225.84 321.448 1223.16 324.678 1220.48 327.908 1217.63 330.959 1214.59 333.83 1211.55 336.701 1208.39 339.201 1205.11 341.331 1201.83 343.46 1198.51 345.147 1195.14 346.391 1191.76 347.635 1188.38 348.257 1184.98 348.257 1182.44 348.257 1180.36 347.91 1178.73 347.216 1177.11 346.522 1175.92 345.542 1175.18 344.273 1174.44 343.005 1173.95 341.522 1173.71 339.823 1173.47 338.125 1173.35 336.27 1173.35 334.26 1173.35 331.485 1173.52 328.554 1173.85 325.468 1174.19 322.381 1174.62 319.283 1175.15 316.173L1179.52 295.86C1179.81 294.615 1180.05 293.479 1180.24 292.45 1180.43 291.421 1180.53 290.596 1180.53 289.974 1180.53 288.538 1180.23 287.402 1179.63 286.564 1179.03 285.727 1177.8 285.308 1175.94 285.308 1172.97 285.308 1168.73 287.821 1163.23 292.845L1158.78 287.821C1161.03 284.997 1164.39 282.114 1168.86 279.171 1173.34 276.229 1178.3 274.757 1183.76 274.757Z" fill="#FFFFFF" fill-rule="evenodd"/><path d="M1153.34 201.995 1247.34 201.995 1247.34 211.995 1153.34 211.995Z" fill="#FFFFFF" fill-rule="evenodd"/><path d="M0.729872-2.90986 313.399 75.5161 311.939 81.3358-0.729872 2.90986ZM-2.18962 8.72958-8.72958-2.18962 2.18962-8.72958 8.72958 2.18962ZM314.859 69.6964 321.399 80.6155 310.479 87.1555 303.939 76.2363Z" fill="#FF0000" transform="matrix(1 0 0 -1 541.828 286.254)"/></g></g><path d="M-208 1299-102.433 1299-13 1455-208 1455Z" fill="url(#fill25)" fill-rule="evenodd"/><path d="M-332.646 1298.57-222.979 1298.57-222.979 1455-422 1455ZM-217.51 1097-111 1283.47-324.021 1283.47Z" fill="url(#fill26)" fill-rule="evenodd"/><g clip-path="url(#clip27)" filter="url(#fx7)" transform="translate(-246 1194)"><g clip-path="url(#clip28)"><path d="M22.9285 21.0221 22.9285 53.1941 31.9566 53.1941C37.0389 53.11 41.1368 51.5975 44.2503 48.6564 47.3637 45.7153 48.9644 41.8499 49.0525 37.0602 48.9644 32.2744 47.3637 28.4249 44.2503 25.5118 41.1368 22.5987 37.0389 21.1021 31.9566 21.0221ZM4.31647 4.13806 28.8832 4.13806C36.6248 4.1871 43.4405 5.60261 49.3303 8.38458 55.22 11.1666 59.8294 15.0207 63.1584 19.9471 66.4874 24.8735 68.1814 30.5779 68.2405 37.0602 68.1814 43.5436 66.4874 49.2562 63.1584 54.198 59.8294 59.1398 55.22 63.0093 49.3303 65.8067 43.4405 68.604 36.6248 70.0278 28.8832 70.0781L4.31647 70.0781Z" fill="#FF0000" fill-rule="evenodd"/></g></g><path d="M-227.629 1210.46-227.629 1242.64-218.601 1242.64C-213.519 1242.55-209.421 1241.04-206.308 1238.1-203.194 1235.16-201.593 1231.29-201.505 1226.5-201.593 1221.72-203.194 1217.87-206.308 1214.95-209.421 1212.04-213.519 1210.54-218.601 1210.46ZM-246.241 1193.58-221.675 1193.58C-213.933 1193.63-207.117 1195.04-201.228 1197.83-195.338 1200.61-190.728 1204.46-187.399 1209.39-184.07 1214.32-182.376 1220.02-182.317 1226.5-182.376 1232.99-184.07 1238.7-187.399 1243.64-190.728 1248.58-195.338 1252.45-201.228 1255.25-207.117 1258.05-213.933 1259.47-221.675 1259.52L-246.241 1259.52Z" fill="url(#fill29)" fill-rule="evenodd"/><text fill="#000000" fill-opacity="0" font-family="Arial,Arial_MSFontService,sans-serif" font-size="65.9399" x="-246.241" y="1251.28">D</text><g clip-path="url(#clip30)" filter="url(#fx8)" transform="translate(-331 1352)"><g clip-path="url(#clip31)"><path d="M3.7247 4.14856 24.7452 4.14856 39.6227 42.7336 54.4042 4.14856 75.4247 4.14856 50.0849 70.0886 29.0644 70.0886Z" fill="#FF0000" fill-rule="evenodd"/></g></g><path d="M-331.833 1351.59-310.813 1351.59-295.935 1390.18-281.154 1351.59-260.133 1351.59-285.473 1417.53-306.493 1417.53Z" fill="url(#fill32)" fill-rule="evenodd"/><text fill="#000000" fill-opacity="0" font-family="Arial,Arial_MSFontService,sans-serif" font-size="65.9399" x="-331.833" y="1409.29">V</text><g clip-path="url(#clip33)" filter="url(#fx9)" transform="translate(-228 1293)"><g clip-path="url(#clip34)"><path d="M21.696 0 40.32 0 40.32-49.344 59.808-49.344 59.808-65.952 2.208-65.952 2.208-49.344 21.696-49.344Z" fill="#FFFFFF" transform="translate(64.4012 127)"/></g></g><path d="M21.696 0 40.32 0 40.32-49.344 59.808-49.344 59.808-65.952 2.208-65.952 2.208-49.344 21.696-49.344Z" fill="#FFFFFF" transform="translate(-166.337 1418)"/><path d="M380.935 1250.02 398.161 1250.02 393.998 1267.96 411.44 1267.96 409.502 1276.94 391.916 1276.94 384.954 1305.65C383.758 1310.58 382.932 1314.32 382.478 1316.88 382.023 1319.44 381.796 1321.61 381.796 1323.38 381.796 1325.62 382.203 1327.26 383.016 1328.29 383.83 1329.32 385.026 1329.84 386.605 1329.84 388.758 1329.84 390.971 1329.07 393.244 1327.54 395.517 1326.01 397.97 1323.64 400.602 1320.43L406.128 1326.1C401.295 1331.41 396.857 1335.11 392.814 1337.19 388.77 1339.27 383.997 1340.32 378.494 1340.32 373.039 1340.32 368.852 1338.92 365.933 1336.12 363.014 1333.32 361.555 1329.45 361.555 1324.52 361.555 1322.28 361.722 1320.13 362.057 1318.1 362.392 1316.07 363.086 1312.73 364.139 1308.09L371.532 1276.94 360.334 1276.94 361.698 1271.12C365.048 1271.12 367.584 1270.81 369.307 1270.19 371.029 1269.57 372.477 1268.63 373.649 1267.39 374.822 1266.15 375.958 1264.26 377.059 1261.72 378.159 1259.18 379.451 1255.28 380.935 1250.02Z" fill="#00FF95" fill-rule="evenodd"/><text fill="#000000" fill-opacity="0" font-family="Arial,Arial_MSFontService,sans-serif" font-size="90.2959" x="360.334" y="1329.03">𝒕</text><path d="M464.871 1307.3 553.301 1307.3 553.301 1316.84 464.871 1316.84ZM464.871 1277.51 553.301 1277.51 553.301 1287.06 464.871 1287.06Z" fill="#FFFFFF" fill-rule="evenodd"/><text fill="#000000" fill-opacity="0" font-family="Arial,Arial_MSFontService,sans-serif" font-size="39.334" x="464.871" y="1311.93">=</text><path d="M654.804 1163.28C650.354 1163.28 646.406 1165.52 642.961 1169.99 639.516 1174.47 636.74 1180.48 634.635 1188.04 632.529 1195.6 631.477 1202.37 631.477 1208.36 631.477 1211.85 631.991 1214.46 633.02 1216.18 634.049 1217.9 635.64 1218.76 637.793 1218.76 640.951 1218.76 644.169 1217.22 647.447 1214.13 650.725 1211.05 653.369 1207.42 655.378 1203.26 657.388 1199.1 659.183 1193.4 660.762 1186.18L661.336 1183.52C662.102 1179.98 662.484 1176.46 662.484 1172.97 662.484 1169.76 661.886 1167.35 660.69 1165.72 659.494 1164.09 657.532 1163.28 654.804 1163.28ZM685.597 1125.38 693.708 1125.38 675.548 1205.77C674.83 1208.93 674.471 1211.66 674.471 1213.95 674.471 1215.53 674.734 1216.75 675.261 1217.62 675.787 1218.48 676.696 1218.91 677.988 1218.91 679.472 1218.91 681.075 1218.24 682.797 1216.9 684.52 1215.56 686.53 1213.57 688.827 1210.94L693.995 1216.11C688.97 1221.13 684.64 1224.59 681.003 1226.48 677.366 1228.37 673.538 1229.32 669.519 1229.32 665.499 1229.32 662.317 1228.2 659.972 1225.98 657.627 1223.75 656.455 1220.82 656.455 1217.18 656.455 1215.99 656.599 1214.84 656.886 1213.74L655.953 1213.52C651.407 1219.03 647.16 1223.03 643.212 1225.55 639.264 1228.06 634.539 1229.32 629.036 1229.32 623.629 1229.32 619.43 1227.35 616.439 1223.43 613.448 1219.51 611.953 1213.84 611.953 1206.42 611.953 1199.96 612.886 1193.55 614.752 1187.18 616.619 1180.82 619.298 1175.33 622.792 1170.71 626.285 1166.09 630.675 1162.45 635.963 1159.8 641.25 1157.14 647.22 1155.82 653.871 1155.82 658.13 1155.82 662.245 1156.56 666.217 1158.04L668.657 1147.06C668.944 1145.86 669.279 1144.14 669.662 1141.89 670.045 1139.64 670.236 1137.94 670.236 1136.79 670.236 1135.74 670.129 1134.92 669.913 1134.32 669.698 1133.72 669.375 1133.23 668.944 1132.85 668.514 1132.46 667.939 1132.16 667.222 1131.95 666.504 1131.73 665.092 1131.48 662.987 1131.2L664.135 1126.53Z" fill="#FFFFFF" fill-rule="evenodd"/><text fill="#000000" fill-opacity="0" font-family="Arial,Arial_MSFontService,sans-serif" font-size="103.934" x="611.953" y="1216.32">𝒅</text><path d="M634.93 1364.93C639.62 1364.93 643.245 1366.22 645.805 1368.8 648.365 1371.39 649.645 1374.64 649.645 1378.57 649.645 1380.96 649.381 1383.45 648.855 1386.03L644.19 1407.92C643.759 1410.46 643.4 1412.92 643.113 1415.32 642.826 1417.71 642.682 1419.84 642.682 1421.7 642.682 1423.52 642.802 1425.01 643.041 1426.15 643.28 1427.3 643.591 1427.88 643.974 1427.88 645.314 1427.88 647.049 1427.26 649.178 1426.01 651.307 1424.77 653.604 1423.04 656.069 1420.84 658.533 1418.64 660.997 1416.06 663.462 1413.09 665.926 1410.12 668.151 1406.92 670.137 1403.47 672.123 1400.03 673.726 1396.38 674.946 1392.53 676.166 1388.67 676.776 1384.79 676.776 1380.86 676.776 1378.95 676.406 1377.47 675.664 1376.41 674.922 1375.36 673.762 1374.83 672.183 1374.83 670.412 1374.83 668.773 1375.49 667.266 1376.81 665.759 1378.12 664.215 1379.88 662.636 1382.08L657.612 1378.06C660.627 1373.9 663.988 1370.67 667.697 1368.37 671.405 1366.08 675.532 1364.93 680.078 1364.93 684.576 1364.93 687.758 1366.09 689.625 1368.41 691.491 1370.73 692.424 1373.83 692.424 1377.7 692.424 1379.95 691.993 1382.55 691.132 1385.49 690.271 1388.44 689.026 1391.53 687.4 1394.79 685.773 1398.04 683.859 1401.39 681.657 1404.84 679.456 1408.28 677.016 1411.62 674.336 1414.85 671.656 1418.08 668.797 1421.13 665.759 1424 662.72 1426.87 659.562 1429.37 656.284 1431.5 653.006 1433.63 649.681 1435.32 646.307 1436.56 642.933 1437.81 639.548 1438.43 636.151 1438.43 633.614 1438.43 631.533 1438.08 629.906 1437.39 628.279 1436.69 627.095 1435.71 626.353 1434.44 625.611 1433.18 625.121 1431.69 624.881 1429.99 624.642 1428.3 624.523 1426.44 624.523 1424.43 624.523 1421.66 624.69 1418.73 625.025 1415.64 625.36 1412.55 625.791 1409.45 626.317 1406.34L630.695 1386.03C630.983 1384.79 631.222 1383.65 631.413 1382.62 631.605 1381.59 631.7 1380.77 631.7 1380.15 631.7 1378.71 631.401 1377.57 630.803 1376.74 630.205 1375.9 628.973 1375.48 627.107 1375.48 624.14 1375.48 619.905 1377.99 614.402 1383.02L609.952 1377.99C612.201 1375.17 615.562 1372.29 620.036 1369.34 624.511 1366.4 629.475 1364.93 634.93 1364.93Z" fill="#FFFFFF" fill-rule="evenodd"/><text fill="#000000" fill-opacity="0" font-family="Arial,Arial_MSFontService,sans-serif" font-size="73.5" x="609.952" y="1429.24">𝒗</text><path d="M604.51 1292.17 698.51 1292.17 698.51 1302.17 604.51 1302.17Z" fill="#FFFFFF" fill-rule="evenodd"/><path d="M0.729872-2.90986 313.399 75.5161 311.939 81.3358-0.729872 2.90986ZM-2.18962 8.72958-8.72958-2.18962 2.18962-8.72958 8.72958 2.18962ZM314.859 69.6964 321.399 80.6155 310.479 87.1555 303.939 76.2363Z" fill="url(#fill35)" transform="matrix(1 0 0 -1 -7 1376.43)"/></g></svg>