<svg width="1170" height="422" xmlns="http://www.w3.org/2000/svg" xmlns:xlink="http://www.w3.org/1999/xlink" overflow="hidden"><defs><filter id="fx0" x="-10%" y="-10%" width="120%" height="120%" filterUnits="userSpaceOnUse" primitiveUnits="userSpaceOnUse"><feComponentTransfer color-interpolation-filters="sRGB"><feFuncR type="discrete" tableValues="1 1"/><feFuncG type="discrete" tableValues="1 1"/><feFuncB type="discrete" tableValues="1 1"/><feFuncA type="linear" slope="1" intercept="0"/></feComponentTransfer><feGaussianBlur stdDeviation="0.862242 0.862242"/></filter><filter id="fx1" x="-10%" y="-10%" width="120%" height="120%" filterUnits="userSpaceOnUse" primitiveUnits="userSpaceOnUse"><feComponentTransfer color-interpolation-filters="sRGB"><feFuncR type="discrete" tableValues="1 1"/><feFuncG type="discrete" tableValues="1 1"/><feFuncB type="discrete" tableValues="1 1"/><feFuncA type="linear" slope="1" intercept="0"/></feComponentTransfer><feGaussianBlur stdDeviation="0.862242 0.862242"/></filter><filter id="fx2" x="-10%" y="-10%" width="120%" height="120%" filterUnits="userSpaceOnUse" primitiveUnits="userSpaceOnUse"><feComponentTransfer color-interpolation-filters="sRGB"><feFuncR type="discrete" tableValues="1 1"/><feFuncG type="discrete" tableValues="1 1"/><feFuncB type="discrete" tableValues="1 1"/><feFuncA type="linear" slope="1" intercept="0"/></feComponentTransfer><feGaussianBlur stdDeviation="0.862242 0.862242"/></filter><filter id="fx3" x="-10%" y="-10%" width="120%" height="120%" filterUnits="userSpaceOnUse" primitiveUnits="userSpaceOnUse"><feComponentTransfer color-interpolation-filters="sRGB"><feFuncR type="discrete" tableValues="1 1"/><feFuncG type="discrete" tableValues="1 1"/><feFuncB type="discrete" tableValues="1 1"/><feFuncA type="linear" slope="1" intercept="0"/></feComponentTransfer><feGaussianBlur stdDeviation="0.862242 0.862242"/></filter><filter id="fx4" x="-10%" y="-10%" width="120%" height="120%" filterUnits="userSpaceOnUse" primitiveUnits="userSpaceOnUse"><feComponentTransfer color-interpolation-filters="sRGB"><feFuncR type="discrete" tableValues="0 0"/><feFuncG type="discrete" tableValues="0.12549 0.12549"/><feFuncB type="discrete" tableValues="0.376471 0.376471"/><feFuncA type="linear" slope="1" intercept="0"/></feComponentTransfer><feGaussianBlur stdDeviation="1.71978 1.71978"/></filter><filter id="fx5" x="-10%" y="-10%" width="120%" height="120%" filterUnits="userSpaceOnUse" primitiveUnits="userSpaceOnUse"><feComponentTransfer color-interpolation-filters="sRGB"><feFuncR type="discrete" tableValues="0 0"/><feFuncG type="discrete" tableValues="0.12549 0.12549"/><feFuncB type="discrete" tableValues="0.376471 0.376471"/><feFuncA type="linear" slope="1" intercept="0"/></feComponentTransfer><feGaussianBlur stdDeviation="1.71978 1.71978"/></filter><filter id="fx6" x="-10%" y="-10%" width="120%" height="120%" filterUnits="userSpaceOnUse" primitiveUnits="userSpaceOnUse"><feComponentTransfer color-interpolation-filters="sRGB"><feFuncR type="discrete" tableValues="0 0"/><feFuncG type="discrete" tableValues="0 0"/><feFuncB type="discrete" tableValues="0 0"/><feFuncA type="linear" slope="0.4" intercept="0"/></feComponentTransfer><feGaussianBlur stdDeviation="1.77778 1.77778"/></filter><filter id="fx7" x="-10%" y="-10%" width="120%" height="120%" filterUnits="userSpaceOnUse" primitiveUnits="userSpaceOnUse"><feComponentTransfer color-interpolation-filters="sRGB"><feFuncR type="discrete" tableValues="1 1"/><feFuncG type="discrete" tableValues="1 1"/><feFuncB type="discrete" tableValues="1 1"/><feFuncA type="linear" slope="1" intercept="0"/></feComponentTransfer><feGaussianBlur stdDeviation="0.862242 0.862242"/></filter><filter id="fx8" x="-10%" y="-10%" width="120%" height="120%" filterUnits="userSpaceOnUse" primitiveUnits="userSpaceOnUse"><feComponentTransfer color-interpolation-filters="sRGB"><feFuncR type="discrete" tableValues="1 1"/><feFuncG type="discrete" tableValues="1 1"/><feFuncB type="discrete" tableValues="1 1"/><feFuncA type="linear" slope="1" intercept="0"/></feComponentTransfer><feGaussianBlur stdDeviation="0.862242 0.862242"/></filter><filter id="fx9" x="-10%" y="-10%" width="120%" height="120%" filterUnits="userSpaceOnUse" primitiveUnits="userSpaceOnUse"><feComponentTransfer color-interpolation-filters="sRGB"><feFuncR type="discrete" tableValues="0 0"/><feFuncG type="discrete" tableValues="0.12549 0.12549"/><feFuncB type="discrete" tableValues="0.376471 0.376471"/><feFuncA type="linear" slope="1" intercept="0"/></feComponentTransfer><feGaussianBlur stdDeviation="1.71978 1.71978"/></filter><clipPath id="clip10"><rect x="-425" y="1501" width="1170" height="422"/></clipPath><clipPath id="clip11"><rect x="-2" y="-2" width="1157" height="378"/></clipPath><clipPath id="clip12"><rect x="0" y="0" width="1172" height="424"/></clipPath><clipPath id="clip13"><rect x="1" y="0" width="71" height="73"/></clipPath><clipPath id="clip14"><rect x="0" y="0" width="72" height="74"/></clipPath><clipPath id="clip15"><rect x="1" y="0" width="71" height="73"/></clipPath><clipPath id="clip16"><rect x="0" y="0" width="72" height="74"/></clipPath><clipPath id="clip17"><rect x="0" y="0" width="65" height="73"/></clipPath><clipPath id="clip18"><rect x="0" y="0" width="65" height="74"/></clipPath><clipPath id="clip19"><rect x="0" y="0" width="65" height="73"/></clipPath><clipPath id="clip20"><rect x="0" y="0" width="65" height="74"/></clipPath><clipPath id="clip21"><rect x="56" y="54" width="88" height="82"/></clipPath><clipPath id="clip22"><rect x="0" y="0" width="201" height="216"/></clipPath><clipPath id="clip23"><rect x="56" y="54" width="88" height="82"/></clipPath><clipPath id="clip24"><rect x="0" y="0" width="201" height="216"/></clipPath><radialGradient cx="1.85738e+06" cy="1.49543e+06" r="2.38456e+06" fx="1.85738e+06" fy="1.49542e+06" gradientUnits="userSpaceOnUse" spreadMethod="pad" id="fill25" gradientTransform="matrix(0.000104987 0 0 0.000104987 -208 1706)"><stop offset="0" stop-color="#00FF95"/><stop offset="0.00526316" stop-color="#00FE95"/><stop offset="0.0105263" stop-color="#00FE95"/><stop offset="0.0157895" stop-color="#00FE95"/><stop offset="0.0210526" stop-color="#00FE95"/><stop offset="0.0263158" stop-color="#00FE95"/><stop offset="0.0315789" stop-color="#00FE95"/><stop offset="0.0368421" stop-color="#00FE95"/><stop offset="0.0421053" stop-color="#00FE95"/><stop offset="0.0473684" stop-color="#00FE95"/><stop offset="0.0526316" stop-color="#00FE95"/><stop offset="0.0578947" stop-color="#00FE95"/><stop offset="0.0631579" stop-color="#00FD95"/><stop offset="0.0684211" stop-color="#00FD95"/><stop offset="0.0736842" stop-color="#00FD96"/><stop offset="0.0789474" stop-color="#01FD96"/><stop offset="0.0842105" stop-color="#01FD96"/><stop offset="0.0894737" stop-color="#01FC96"/><stop offset="0.0947368" stop-color="#01FC96"/><stop offset="0.1" stop-color="#01FC96"/><stop offset="0.105263" stop-color="#01FC96"/><stop offset="0.110526" stop-color="#01FB96"/><stop offset="0.115789" stop-color="#01FB96"/><stop offset="0.121053" stop-color="#01FB96"/><stop offset="0.126316" stop-color="#01FB96"/><stop offset="0.131579" stop-color="#01FA96"/><stop offset="0.136842" stop-color="#01FA96"/><stop offset="0.142105" stop-color="#01FA96"/><stop offset="0.147368" stop-color="#01F997"/><stop offset="0.152632" stop-color="#01F997"/><stop offset="0.157895" stop-color="#01F997"/><stop offset="0.163158" stop-color="#01F897"/><stop offset="0.168421" stop-color="#02F897"/><stop offset="0.173684" stop-color="#02F797"/><stop offset="0.178947" stop-color="#02F797"/><stop offset="0.184211" stop-color="#02F697"/><stop offset="0.189474" stop-color="#02F697"/><stop offset="0.194737" stop-color="#02F697"/><stop offset="0.2" stop-color="#02F597"/><stop offset="0.205263" stop-color="#02F597"/><stop offset="0.210526" stop-color="#02F497"/><stop offset="0.215789" stop-color="#02F497"/><stop offset="0.221053" stop-color="#02F397"/><stop offset="0.226316" stop-color="#02F398"/><stop offset="0.231579" stop-color="#02F298"/><stop offset="0.236842" stop-color="#02F298"/><stop offset="0.242105" stop-color="#02F198"/><stop offset="0.247368" stop-color="#02F198"/><stop offset="0.252632" stop-color="#02F098"/><stop offset="0.257895" stop-color="#02EF98"/><stop offset="0.263158" stop-color="#03EF98"/><stop offset="0.268421" stop-color="#03EE98"/><stop offset="0.273684" stop-color="#03EE98"/><stop offset="0.278947" stop-color="#03ED98"/><stop offset="0.284211" stop-color="#03EC98"/><stop offset="0.289474" stop-color="#03EC98"/><stop offset="0.294737" stop-color="#03EB98"/><stop offset="0.3" stop-color="#03EB98"/><stop offset="0.305263" stop-color="#03EA98"/><stop offset="0.310526" stop-color="#03E999"/><stop offset="0.315789" stop-color="#03E999"/><stop offset="0.321053" stop-color="#03E899"/><stop offset="0.326316" stop-color="#03E799"/><stop offset="0.331579" stop-color="#03E699"/><stop offset="0.336842" stop-color="#03E699"/><stop offset="0.342105" stop-color="#03E599"/><stop offset="0.347368" stop-color="#03E499"/><stop offset="0.352632" stop-color="#03E399"/><stop offset="0.357895" stop-color="#03E399"/><stop offset="0.363158" stop-color="#03E299"/><stop offset="0.368421" stop-color="#04E199"/><stop offset="0.373684" stop-color="#04E099"/><stop offset="0.378947" stop-color="#04E099"/><stop offset="0.384211" stop-color="#04DF99"/><stop offset="0.389474" stop-color="#04DE99"/><stop offset="0.394737" stop-color="#04DD99"/><stop offset="0.4" stop-color="#04DC99"/><stop offset="0.405263" stop-color="#04DB99"/><stop offset="0.410526" stop-color="#04DB9A"/><stop offset="0.415789" stop-color="#04DA9A"/><stop offset="0.421053" stop-color="#04D99A"/><stop offset="0.426316" stop-color="#04D89A"/><stop offset="0.431579" stop-color="#04D79A"/><stop offset="0.436842" stop-color="#04D69A"/><stop offset="0.442105" stop-color="#04D59A"/><stop offset="0.447368" stop-color="#04D49A"/><stop offset="0.452632" stop-color="#04D39A"/><stop offset="0.457895" stop-color="#04D29A"/><stop offset="0.463158" stop-color="#04D19A"/><stop offset="0.468421" stop-color="#04D09A"/><stop offset="0.473684" stop-color="#04CF9A"/><stop offset="0.478947" stop-color="#04CE9A"/><stop offset="0.484211" stop-color="#04CD9A"/><stop offset="0.489474" stop-color="#05CC9A"/><stop offset="0.494737" stop-color="#05CB9A"/><stop offset="0.5" stop-color="#05CA9A"/><stop offset="0.505263" stop-color="#05C99A"/><stop offset="0.510526" stop-color="#05C89A"/><stop offset="0.515789" stop-color="#05C79A"/><stop offset="0.521053" stop-color="#05C69A"/><stop offset="0.526316" stop-color="#05C59B"/><stop offset="0.531579" stop-color="#05C49B"/><stop offset="0.536842" stop-color="#05C39B"/><stop offset="0.542105" stop-color="#05C29B"/><stop offset="0.547368" stop-color="#05C19B"/><stop offset="0.552632" stop-color="#05C09B"/><stop offset="0.557895" stop-color="#05BF9B"/><stop offset="0.563158" stop-color="#05BD9B"/><stop offset="0.568421" stop-color="#05BC9B"/><stop offset="0.573684" stop-color="#05BB9B"/><stop offset="0.578947" stop-color="#05BA9B"/><stop offset="0.584211" stop-color="#05B99B"/><stop offset="0.589474" stop-color="#05B89B"/><stop offset="0.594737" stop-color="#05B69B"/><stop offset="0.6" stop-color="#05B59B"/><stop offset="0.605263" stop-color="#05B49B"/><stop offset="0.610526" stop-color="#05B39B"/><stop offset="0.615789" stop-color="#05B29B"/><stop offset="0.621053" stop-color="#05B09B"/><stop offset="0.626316" stop-color="#05AF9B"/><stop offset="0.631579" stop-color="#05AE9B"/><stop offset="0.636842" stop-color="#05AD9B"/><stop offset="0.642105" stop-color="#05AB9B"/><stop offset="0.647368" stop-color="#06AA9B"/><stop offset="0.652632" stop-color="#06A99B"/><stop offset="0.657895" stop-color="#06A79B"/><stop offset="0.663158" stop-color="#06A69B"/><stop offset="0.668421" stop-color="#06A59B"/><stop offset="0.673684" stop-color="#06A39C"/><stop offset="0.678947" stop-color="#06A29C"/><stop offset="0.684211" stop-color="#06A19C"/><stop offset="0.689474" stop-color="#069F9C"/><stop offset="0.694737" stop-color="#069E9C"/><stop offset="0.7" stop-color="#069D9C"/><stop offset="0.705263" stop-color="#069B9C"/><stop offset="0.710526" stop-color="#069A9C"/><stop offset="0.715789" stop-color="#06989C"/><stop offset="0.721053" stop-color="#06979C"/><stop offset="0.726316" stop-color="#06969C"/><stop offset="0.731579" stop-color="#06949C"/><stop offset="0.736842" stop-color="#06939C"/><stop offset="0.742105" stop-color="#06919C"/><stop offset="0.747368" stop-color="#06909C"/><stop offset="0.752632" stop-color="#068E9C"/><stop offset="0.757895" stop-color="#068D9C"/><stop offset="0.763158" stop-color="#068B9C"/><stop offset="0.768421" stop-color="#068A9C"/><stop offset="0.773684" stop-color="#06889C"/><stop offset="0.778947" stop-color="#06879C"/><stop offset="0.784211" stop-color="#06859C"/><stop offset="0.789474" stop-color="#06849C"/><stop offset="0.794737" stop-color="#06829C"/><stop offset="0.8" stop-color="#06819C"/><stop offset="0.805263" stop-color="#067F9C"/><stop offset="0.810526" stop-color="#067E9C"/><stop offset="0.815789" stop-color="#067C9C"/><stop offset="0.821053" stop-color="#067B9C"/><stop offset="0.826316" stop-color="#06799C"/><stop offset="0.831579" stop-color="#06779C"/><stop offset="0.836842" stop-color="#06769C"/><stop offset="0.842105" stop-color="#06749C"/><stop offset="0.847368" stop-color="#06729C"/><stop offset="0.852632" stop-color="#06719C"/><stop offset="0.857895" stop-color="#066F9C"/><stop offset="0.863158" stop-color="#066E9C"/><stop offset="0.868421" stop-color="#066C9C"/><stop offset="0.873684" stop-color="#066A9C"/><stop offset="0.878947" stop-color="#06699C"/><stop offset="0.884211" stop-color="#06679C"/><stop offset="0.889474" stop-color="#06659C"/><stop offset="0.894737" stop-color="#06639C"/><stop offset="0.9" stop-color="#06629C"/><stop offset="0.905263" stop-color="#06609C"/><stop offset="0.910526" stop-color="#065E9C"/><stop offset="0.915789" stop-color="#065D9C"/><stop offset="0.921053" stop-color="#065B9C"/><stop offset="0.926316" stop-color="#06599C"/><stop offset="0.931579" stop-color="#06579C"/><stop offset="0.936842" stop-color="#06559C"/><stop offset="0.942105" stop-color="#06549C"/><stop offset="0.947368" stop-color="#06529C"/><stop offset="0.952632" stop-color="#06509C"/><stop offset="0.957895" stop-color="#064E9C"/><stop offset="0.963158" stop-color="#064C9C"/><stop offset="0.968421" stop-color="#064B9C"/><stop offset="0.973684" stop-color="#06499C"/><stop offset="0.978947" stop-color="#06479C"/><stop offset="0.984211" stop-color="#06459C"/><stop offset="0.989474" stop-color="#06439C"/><stop offset="0.994737" stop-color="#06419C"/><stop offset="1" stop-color="#07409D"/></radialGradient><radialGradient cx="-0.25" cy="-0.25" r="4.54578e+06" fx="0" fy="0" gradientUnits="userSpaceOnUse" spreadMethod="pad" id="fill26" gradientTransform="matrix(0.000104987 0 0 0.000104987 -422 1505)"><stop offset="0" stop-color="#F8CBAD"/><stop offset="0.31" stop-color="#F8CBAD"/><stop offset="0.56" stop-color="#FFFFFF"/><stop offset="1" stop-color="#FFFFFF"/></radialGradient><clipPath id="clip27"><rect x="1" y="0" width="71" height="73"/></clipPath><clipPath id="clip28"><rect x="0" y="0" width="72" height="74"/></clipPath><radialGradient cx="747486" cy="594360" r="649519" fx="1.09515e+06" fy="1.143e+06" gradientUnits="userSpaceOnUse" spreadMethod="pad" id="fill29" gradientTransform="matrix(0.000104987 0 0 0.000104987 -293.984 1570.32)"><stop offset="0" stop-color="#843C0C"/><stop offset="0.0107527" stop-color="#833B0C"/><stop offset="0.0215054" stop-color="#833B0D"/><stop offset="0.0322581" stop-color="#833B0D"/><stop offset="0.0430108" stop-color="#833B0E"/><stop offset="0.0537634" stop-color="#833B0E"/><stop offset="0.0645161" stop-color="#833B0F"/><stop offset="0.0752688" stop-color="#833B0F"/><stop offset="0.0860215" stop-color="#833B10"/><stop offset="0.0967742" stop-color="#823B10"/><stop offset="0.107527" stop-color="#823B10"/><stop offset="0.11828" stop-color="#823B11"/><stop offset="0.129032" stop-color="#813B11"/><stop offset="0.139785" stop-color="#813B12"/><stop offset="0.150538" stop-color="#813B12"/><stop offset="0.16129" stop-color="#803B13"/><stop offset="0.172043" stop-color="#803B13"/><stop offset="0.182796" stop-color="#803B14"/><stop offset="0.193548" stop-color="#7F3A14"/><stop offset="0.204301" stop-color="#7F3A15"/><stop offset="0.215054" stop-color="#7E3A15"/><stop offset="0.225806" stop-color="#7E3A15"/><stop offset="0.236559" stop-color="#7D3A16"/><stop offset="0.247312" stop-color="#7D3A16"/><stop offset="0.258065" stop-color="#7C3A17"/><stop offset="0.268817" stop-color="#7B3A17"/><stop offset="0.27957" stop-color="#7B3917"/><stop offset="0.290323" stop-color="#7A3918"/><stop offset="0.301075" stop-color="#7A3918"/><stop offset="0.311828" stop-color="#793919"/><stop offset="0.322581" stop-color="#783919"/><stop offset="0.333333" stop-color="#783919"/><stop offset="0.344086" stop-color="#77391A"/><stop offset="0.354839" stop-color="#76381A"/><stop offset="0.365591" stop-color="#75381A"/><stop offset="0.376344" stop-color="#74381B"/><stop offset="0.387097" stop-color="#74381B"/><stop offset="0.397849" stop-color="#73381B"/><stop offset="0.408602" stop-color="#72371C"/><stop offset="0.419355" stop-color="#71371C"/><stop offset="0.430108" stop-color="#70371C"/><stop offset="0.44086" stop-color="#6F371D"/><stop offset="0.451613" stop-color="#6E371D"/><stop offset="0.462366" stop-color="#6D361D"/><stop offset="0.473118" stop-color="#6C361E"/><stop offset="0.483871" stop-color="#6B361E"/><stop offset="0.494624" stop-color="#6A361E"/><stop offset="0.505376" stop-color="#69351F"/><stop offset="0.516129" stop-color="#68351F"/><stop offset="0.526882" stop-color="#67351F"/><stop offset="0.537634" stop-color="#66351F"/><stop offset="0.548387" stop-color="#653420"/><stop offset="0.55914" stop-color="#643420"/><stop offset="0.569892" stop-color="#633420"/><stop offset="0.580645" stop-color="#623420"/><stop offset="0.591398" stop-color="#603321"/><stop offset="0.602151" stop-color="#5F3321"/><stop offset="0.612903" stop-color="#5E3321"/><stop offset="0.623656" stop-color="#5D3221"/><stop offset="0.634409" stop-color="#5B3222"/><stop offset="0.645161" stop-color="#5A3222"/><stop offset="0.655914" stop-color="#593222"/><stop offset="0.666667" stop-color="#583122"/><stop offset="0.677419" stop-color="#563122"/><stop offset="0.688172" stop-color="#553123"/><stop offset="0.698925" stop-color="#533023"/><stop offset="0.709677" stop-color="#523023"/><stop offset="0.72043" stop-color="#513023"/><stop offset="0.731183" stop-color="#4F2F23"/><stop offset="0.741935" stop-color="#4E2F23"/><stop offset="0.752688" stop-color="#4C2F24"/><stop offset="0.763441" stop-color="#4B2E24"/><stop offset="0.774194" stop-color="#492E24"/><stop offset="0.784946" stop-color="#482E24"/><stop offset="0.795699" stop-color="#462D24"/><stop offset="0.806452" stop-color="#452D24"/><stop offset="0.817204" stop-color="#432C24"/><stop offset="0.827957" stop-color="#422C25"/><stop offset="0.83871" stop-color="#402C25"/><stop offset="0.849462" stop-color="#3E2B25"/><stop offset="0.860215" stop-color="#3D2B25"/><stop offset="0.870968" stop-color="#3B2B25"/><stop offset="0.88172" stop-color="#392A25"/><stop offset="0.892473" stop-color="#382A25"/><stop offset="0.903226" stop-color="#362925"/><stop offset="0.913979" stop-color="#342925"/><stop offset="0.924731" stop-color="#322925"/><stop offset="0.935484" stop-color="#312825"/><stop offset="0.946237" stop-color="#2F2825"/><stop offset="0.956989" stop-color="#2D2725"/><stop offset="0.967742" stop-color="#2B2725"/><stop offset="0.978495" stop-color="#292625"/><stop offset="0.989247" stop-color="#272625"/><stop offset="1" stop-color="#262626"/></radialGradient><clipPath id="clip30"><rect x="0" y="0" width="65" height="73"/></clipPath><clipPath id="clip31"><rect x="0" y="0" width="65" height="74"/></clipPath><radialGradient cx="747486" cy="594360" r="623052" fx="1.04276e+06" fy="1.143e+06" gradientUnits="userSpaceOnUse" spreadMethod="pad" id="fill32" gradientTransform="matrix(0.000104987 0 0 0.000104987 -374.495 1728.33)"><stop offset="0" stop-color="#843C0C"/><stop offset="0.0107527" stop-color="#833B0C"/><stop offset="0.0215054" stop-color="#833B0D"/><stop offset="0.0322581" stop-color="#833B0D"/><stop offset="0.0430108" stop-color="#833B0E"/><stop offset="0.0537634" stop-color="#833B0E"/><stop offset="0.0645161" stop-color="#833B0F"/><stop offset="0.0752688" stop-color="#833B0F"/><stop offset="0.0860215" stop-color="#833B10"/><stop offset="0.0967742" stop-color="#823B10"/><stop offset="0.107527" stop-color="#823B10"/><stop offset="0.11828" stop-color="#823B11"/><stop offset="0.129032" stop-color="#813B11"/><stop offset="0.139785" stop-color="#813B12"/><stop offset="0.150538" stop-color="#813B12"/><stop offset="0.16129" stop-color="#803B13"/><stop offset="0.172043" stop-color="#803B13"/><stop offset="0.182796" stop-color="#803B14"/><stop offset="0.193548" stop-color="#7F3A14"/><stop offset="0.204301" stop-color="#7F3A15"/><stop offset="0.215054" stop-color="#7E3A15"/><stop offset="0.225806" stop-color="#7E3A15"/><stop offset="0.236559" stop-color="#7D3A16"/><stop offset="0.247312" stop-color="#7D3A16"/><stop offset="0.258065" stop-color="#7C3A17"/><stop offset="0.268817" stop-color="#7B3A17"/><stop offset="0.27957" stop-color="#7B3917"/><stop offset="0.290323" stop-color="#7A3918"/><stop offset="0.301075" stop-color="#7A3918"/><stop offset="0.311828" stop-color="#793919"/><stop offset="0.322581" stop-color="#783919"/><stop offset="0.333333" stop-color="#783919"/><stop offset="0.344086" stop-color="#77391A"/><stop offset="0.354839" stop-color="#76381A"/><stop offset="0.365591" stop-color="#75381A"/><stop offset="0.376344" stop-color="#74381B"/><stop offset="0.387097" stop-color="#74381B"/><stop offset="0.397849" stop-color="#73381B"/><stop offset="0.408602" stop-color="#72371C"/><stop offset="0.419355" stop-color="#71371C"/><stop offset="0.430108" stop-color="#70371C"/><stop offset="0.44086" stop-color="#6F371D"/><stop offset="0.451613" stop-color="#6E371D"/><stop offset="0.462366" stop-color="#6D361D"/><stop offset="0.473118" stop-color="#6C361E"/><stop offset="0.483871" stop-color="#6B361E"/><stop offset="0.494624" stop-color="#6A361E"/><stop offset="0.505376" stop-color="#69351F"/><stop offset="0.516129" stop-color="#68351F"/><stop offset="0.526882" stop-color="#67351F"/><stop offset="0.537634" stop-color="#66351F"/><stop offset="0.548387" stop-color="#653420"/><stop offset="0.55914" stop-color="#643420"/><stop offset="0.569892" stop-color="#633420"/><stop offset="0.580645" stop-color="#623420"/><stop offset="0.591398" stop-color="#603321"/><stop offset="0.602151" stop-color="#5F3321"/><stop offset="0.612903" stop-color="#5E3321"/><stop offset="0.623656" stop-color="#5D3221"/><stop offset="0.634409" stop-color="#5B3222"/><stop offset="0.645161" stop-color="#5A3222"/><stop offset="0.655914" stop-color="#593222"/><stop offset="0.666667" stop-color="#583122"/><stop offset="0.677419" stop-color="#563122"/><stop offset="0.688172" stop-color="#553123"/><stop offset="0.698925" stop-color="#533023"/><stop offset="0.709677" stop-color="#523023"/><stop offset="0.72043" stop-color="#513023"/><stop offset="0.731183" stop-color="#4F2F23"/><stop offset="0.741935" stop-color="#4E2F23"/><stop offset="0.752688" stop-color="#4C2F24"/><stop offset="0.763441" stop-color="#4B2E24"/><stop offset="0.774194" stop-color="#492E24"/><stop offset="0.784946" stop-color="#482E24"/><stop offset="0.795699" stop-color="#462D24"/><stop offset="0.806452" stop-color="#452D24"/><stop offset="0.817204" stop-color="#432C24"/><stop offset="0.827957" stop-color="#422C25"/><stop offset="0.83871" stop-color="#402C25"/><stop offset="0.849462" stop-color="#3E2B25"/><stop offset="0.860215" stop-color="#3D2B25"/><stop offset="0.870968" stop-color="#3B2B25"/><stop offset="0.88172" stop-color="#392A25"/><stop offset="0.892473" stop-color="#382A25"/><stop offset="0.903226" stop-color="#362925"/><stop offset="0.913979" stop-color="#342925"/><stop offset="0.924731" stop-color="#322925"/><stop offset="0.935484" stop-color="#312825"/><stop offset="0.946237" stop-color="#2F2825"/><stop offset="0.956989" stop-color="#2D2725"/><stop offset="0.967742" stop-color="#2B2725"/><stop offset="0.978495" stop-color="#292625"/><stop offset="0.989247" stop-color="#272625"/><stop offset="1" stop-color="#262626"/></radialGradient><clipPath id="clip33"><rect x="56" y="54" width="88" height="82"/></clipPath><clipPath id="clip34"><rect x="0" y="0" width="201" height="216"/></clipPath><linearGradient x1="368.055" y1="5.24934e-05" x2="-9" y2="5.24934e-05" gradientUnits="userSpaceOnUse" spreadMethod="reflect" id="fill35"><stop offset="0" stop-color="#00FF95"/><stop offset="0.03" stop-color="#00FF95"/><stop offset="1" stop-color="#03A499"/></linearGradient></defs><g clip-path="url(#clip10)" transform="translate(425 -1501)"><g clip-path="url(#clip11)" filter="url(#fx6)" transform="translate(-426 1501)"><g clip-path="url(#clip12)"><path d="M220.828 207.828 326.396 207.828 415.828 364.828 220.828 364.828Z" fill="#FF0000" fill-rule="evenodd"/><path d="M96.1822 212.33 205.849 212.33 205.849 368.828 6.82843 368.828ZM211.318 6.82837 317.828 193.376 104.808 193.376Z" fill="#FF0000" fill-rule="evenodd"/><g clip-path="url(#clip13)" filter="url(#fx0)" transform="translate(183 104)"><g clip-path="url(#clip14)"><path d="M448.757-1480.55 448.757-1448.38 457.785-1448.38C462.867-1448.46 466.965-1449.98 470.079-1452.92 473.192-1455.86 474.793-1459.72 474.881-1464.51 474.793-1469.3 473.192-1473.15 470.079-1476.06 466.965-1478.97 462.867-1480.47 457.785-1480.55ZM430.145-1497.44 454.712-1497.44C462.453-1497.39 469.269-1495.97 475.159-1493.19 481.048-1490.41 485.658-1486.55 488.987-1481.63 492.316-1476.7 494.01-1471 494.069-1464.51 494.01-1458.03 492.316-1452.32 488.987-1447.38 485.658-1442.43 481.048-1438.56 475.159-1435.77 469.269-1432.97 462.453-1431.55 454.712-1431.5L430.145-1431.5Z" fill="#FF0000" fill-rule="evenodd"/></g></g><path d="M201.199 119.891 201.199 152.063 210.227 152.063C215.31 151.979 219.407 150.466 222.521 147.525 225.634 144.584 227.235 140.719 227.323 135.929 227.235 131.143 225.634 127.294 222.521 124.381 219.407 121.468 215.31 119.971 210.227 119.891ZM182.587 103.007 207.154 103.007C214.895 103.056 221.711 104.472 227.601 107.253 233.491 110.035 238.1 113.89 241.429 118.816 244.758 123.742 246.452 129.447 246.511 135.929 246.452 142.413 244.758 148.125 241.429 153.067 238.1 158.009 233.491 161.878 227.601 164.676 221.711 167.473 214.895 168.897 207.154 168.947L182.587 168.947Z" fill="#FF0000" fill-rule="evenodd"/><g clip-path="url(#clip15)" filter="url(#fx1)" transform="translate(183 104)"><g clip-path="url(#clip16)"><path d="M448.757-1480.55 448.757-1448.38 457.785-1448.38C462.867-1448.46 466.965-1449.98 470.079-1452.92 473.192-1455.86 474.793-1459.72 474.881-1464.51 474.793-1469.3 473.192-1473.15 470.079-1476.06 466.965-1478.97 462.867-1480.47 457.785-1480.55ZM430.145-1497.44 454.712-1497.44C462.453-1497.39 469.269-1495.97 475.159-1493.19 481.048-1490.41 485.658-1486.55 488.987-1481.63 492.316-1476.7 494.01-1471 494.069-1464.51 494.01-1458.03 492.316-1452.32 488.987-1447.38 485.658-1442.43 481.048-1438.56 475.159-1435.77 469.269-1432.97 462.453-1431.55 454.712-1431.5L430.145-1431.5Z" fill="#FF0000" fill-rule="evenodd"/></g></g><path d="M201.199 119.891 201.199 152.063 210.227 152.063C215.31 151.979 219.407 150.466 222.521 147.525 225.634 144.584 227.235 140.719 227.323 135.929 227.235 131.143 225.634 127.294 222.521 124.381 219.407 121.468 215.31 119.971 210.227 119.891ZM182.587 103.007 207.154 103.007C214.895 103.056 221.711 104.472 227.601 107.253 233.491 110.035 238.1 113.89 241.429 118.816 244.758 123.742 246.452 129.447 246.511 135.929 246.452 142.413 244.758 148.125 241.429 153.067 238.1 158.009 233.491 161.878 227.601 164.676 221.711 167.473 214.895 168.897 207.154 168.947L182.587 168.947Z" fill="#FF0000" fill-rule="evenodd"/><g clip-path="url(#clip17)" filter="url(#fx2)" transform="translate(105 262)"><g clip-path="url(#clip18)"><path d="M429.582-1497.42 487.17-1497.42 487.17-1480.83 467.682-1480.83 467.682-1431.48 449.07-1431.48 449.07-1480.83 429.582-1480.83Z" fill="#FF0000" fill-rule="evenodd"/></g></g><path d="M104.024 261.017 161.612 261.017 161.612 277.613 142.124 277.613 142.124 326.957 123.512 326.957 123.512 277.613 104.024 277.613Z" fill="#FF0000" fill-rule="evenodd"/><g clip-path="url(#clip19)" filter="url(#fx3)" transform="translate(105 262)"><g clip-path="url(#clip20)"><path d="M429.582-1497.42 487.17-1497.42 487.17-1480.83 467.682-1480.83 467.682-1431.48 449.07-1431.48 449.07-1480.83 429.582-1480.83Z" fill="#FF0000" fill-rule="evenodd"/></g></g><path d="M104.024 261.017 161.612 261.017 161.612 277.613 142.124 277.613 142.124 326.957 123.512 326.957 123.512 277.613 104.024 277.613Z" fill="#FF0000" fill-rule="evenodd"/><g clip-path="url(#clip21)" filter="url(#fx4)" transform="translate(196 202)"><g clip-path="url(#clip22)"><path d="M50.784-65.952 36-27.36 21.12-65.952 0.096-65.952 25.44 0 46.464 0 71.808-65.952Z" fill="#FFFFFF" transform="translate(490.313 -1373)"/></g></g><path d="M50.784-65.952 36-27.36 21.12-65.952 0.096-65.952 25.44 0 46.464 0 71.808-65.952Z" fill="#FFFFFF" transform="translate(257.574 327)"/><g clip-path="url(#clip23)" filter="url(#fx5)" transform="translate(196 202)"><g clip-path="url(#clip24)"><path d="M50.784-65.952 36-27.36 21.12-65.952 0.096-65.952 25.44 0 46.464 0 71.808-65.952Z" fill="#FFFFFF" transform="translate(490.313 -1373)"/></g></g><path d="M50.784-65.952 36-27.36 21.12-65.952 0.096-65.952 25.44 0 46.464 0 71.808-65.952Z" fill="#FFFFFF" transform="translate(257.574 327)"/><path d="M800.573 176.242C805.263 176.242 808.887 177.534 811.447 180.118 814.008 182.702 815.288 185.956 815.288 189.88 815.288 192.272 815.024 194.76 814.498 197.344L809.832 219.237C809.402 221.773 809.043 224.237 808.756 226.63 808.469 229.022 808.325 231.152 808.325 233.018 808.325 234.836 808.445 236.32 808.684 237.468 808.923 238.616 809.234 239.191 809.617 239.191 810.957 239.191 812.692 238.569 814.821 237.324 816.95 236.08 819.247 234.358 821.712 232.156 824.176 229.955 826.64 227.371 829.105 224.405 831.569 221.438 833.794 218.232 835.78 214.786 837.766 211.341 839.369 207.692 840.589 203.84 841.809 199.988 842.419 196.1 842.419 192.177 842.419 190.262 842.049 188.779 841.307 187.726 840.565 186.674 839.405 186.147 837.826 186.147 836.055 186.147 834.416 186.805 832.909 188.121 831.402 189.437 829.858 191.196 828.279 193.397L823.255 189.377C826.269 185.214 829.631 181.984 833.34 179.687 837.048 177.39 841.175 176.242 845.721 176.242 850.219 176.242 853.401 177.402 855.268 179.723 857.134 182.044 858.067 185.142 858.067 189.018 858.067 191.267 857.636 193.863 856.775 196.806 855.914 199.749 854.669 202.847 853.042 206.101 851.415 209.355 849.501 212.705 847.3 216.15 845.099 219.595 842.659 222.933 839.979 226.163 837.299 229.393 834.44 232.444 831.402 235.315 828.363 238.186 825.205 240.686 821.927 242.815 818.649 244.945 815.323 246.632 811.95 247.876 808.576 249.12 805.191 249.742 801.793 249.742 799.257 249.742 797.176 249.395 795.549 248.701 793.922 248.007 792.737 247.026 791.996 245.758 791.254 244.49 790.764 243.007 790.524 241.308 790.285 239.609 790.165 237.755 790.165 235.745 790.165 232.97 790.333 230.039 790.668 226.953 791.003 223.866 791.434 220.768 791.96 217.657L796.338 197.344C796.625 196.1 796.865 194.964 797.056 193.935 797.247 192.906 797.343 192.081 797.343 191.459 797.343 190.023 797.044 188.887 796.446 188.049 795.848 187.212 794.616 186.793 792.749 186.793 789.783 186.793 785.548 189.305 780.045 194.33L775.595 189.305C777.844 186.482 781.205 183.599 785.679 180.656 790.154 177.713 795.118 176.242 800.573 176.242Z" fill="#00FF95" fill-rule="evenodd"/><path d="M912.661 216.724 1001.09 216.724 1001.09 226.271 912.661 226.271ZM912.661 186.937 1001.09 186.937 1001.09 196.483 912.661 196.483Z" fill="#FFFFFF" fill-rule="evenodd"/><path d="M1102.59 72.7068C1098.14 72.7068 1094.2 74.9438 1090.75 79.418 1087.31 83.8921 1084.53 89.9094 1082.42 97.47 1080.32 105.031 1079.27 111.802 1079.27 117.783 1079.27 121.276 1079.78 123.884 1080.81 125.607 1081.84 127.329 1083.43 128.191 1085.58 128.191 1088.74 128.191 1091.96 126.647 1095.24 123.561 1098.51 120.475 1101.16 116.85 1103.17 112.687 1105.18 108.524 1106.97 102.829 1108.55 95.6038L1109.13 92.948C1109.89 89.407 1110.27 85.8899 1110.27 82.3967 1110.27 79.1907 1109.68 76.7742 1108.48 75.1472 1107.28 73.5203 1105.32 72.7068 1102.59 72.7068ZM1133.39 34.8083 1141.5 34.8083 1123.34 115.199C1122.62 118.357 1122.26 121.085 1122.26 123.382 1122.26 124.961 1122.52 126.181 1123.05 127.042 1123.58 127.904 1124.49 128.334 1125.78 128.334 1127.26 128.334 1128.86 127.664 1130.59 126.324 1132.31 124.985 1134.32 122.999 1136.62 120.367L1141.78 125.535C1136.76 130.559 1132.43 134.017 1128.79 135.907 1125.16 137.797 1121.33 138.742 1117.31 138.742 1113.29 138.742 1110.11 137.629 1107.76 135.404 1105.42 133.179 1104.24 130.248 1104.24 126.612 1104.24 125.415 1104.39 124.267 1104.68 123.166L1103.74 122.951C1099.2 128.454 1094.95 132.461 1091 134.974 1087.05 137.486 1082.33 138.742 1076.83 138.742 1071.42 138.742 1067.22 136.78 1064.23 132.856 1061.24 128.932 1059.74 123.262 1059.74 115.845 1059.74 109.385 1060.68 102.973 1062.54 96.6086 1064.41 90.2444 1067.09 84.7534 1070.58 80.1357 1074.07 75.5181 1078.46 71.8813 1083.75 69.2256 1089.04 66.5698 1095.01 65.2419 1101.66 65.2419 1105.92 65.2419 1110.03 65.9836 1114.01 67.467L1116.45 56.4851C1116.73 55.2888 1117.07 53.5662 1117.45 51.3171 1117.83 49.0681 1118.03 47.3694 1118.03 46.2209 1118.03 45.1682 1117.92 44.3428 1117.7 43.7446 1117.49 43.1465 1117.16 42.656 1116.73 42.2732 1116.3 41.8904 1115.73 41.5913 1115.01 41.376 1114.29 41.1606 1112.88 40.9094 1110.78 40.6223L1111.92 35.9568Z" fill="#FFFFFF" fill-rule="evenodd"/><path d="M1097.62 257.559 1114.84 257.559 1110.68 275.504 1128.12 275.504 1126.18 284.476 1108.6 284.476 1101.64 313.187C1100.44 318.115 1099.62 321.86 1099.16 324.42 1098.71 326.98 1098.48 329.145 1098.48 330.916 1098.48 333.165 1098.89 334.804 1099.7 335.833 1100.51 336.861 1101.71 337.376 1103.29 337.376 1105.44 337.376 1107.65 336.61 1109.93 335.079 1112.2 333.548 1114.65 331.179 1117.28 327.973L1122.81 333.643C1117.98 338.955 1113.54 342.651 1109.5 344.733 1105.45 346.814 1100.68 347.855 1095.18 347.855 1089.72 347.855 1085.53 346.456 1082.62 343.656 1079.7 340.857 1078.24 336.993 1078.24 332.064 1078.24 329.815 1078.41 327.674 1078.74 325.64 1079.07 323.606 1079.77 320.269 1080.82 315.627L1088.21 284.476 1077.02 284.476 1078.38 278.662C1081.73 278.662 1084.27 278.351 1085.99 277.729 1087.71 277.107 1089.16 276.174 1090.33 274.929 1091.5 273.685 1092.64 271.795 1093.74 269.259 1094.84 266.723 1096.13 262.823 1097.62 257.559Z" fill="#FFFFFF" fill-rule="evenodd"/><path d="M1051.72 201.594 1145.72 201.594 1145.72 211.594 1051.72 211.594Z" fill="#FFFFFF" fill-rule="evenodd"/><path d="M800.573 176.242C805.263 176.242 808.887 177.534 811.447 180.118 814.008 182.702 815.288 185.956 815.288 189.88 815.288 192.272 815.024 194.76 814.498 197.344L809.832 219.237C809.402 221.773 809.043 224.237 808.756 226.63 808.469 229.022 808.325 231.152 808.325 233.018 808.325 234.836 808.445 236.32 808.684 237.468 808.923 238.616 809.234 239.191 809.617 239.191 810.957 239.191 812.692 238.569 814.821 237.324 816.95 236.08 819.247 234.358 821.712 232.156 824.176 229.955 826.64 227.371 829.105 224.405 831.569 221.438 833.794 218.232 835.78 214.786 837.766 211.341 839.369 207.692 840.589 203.84 841.809 199.988 842.419 196.1 842.419 192.177 842.419 190.262 842.049 188.779 841.307 187.726 840.565 186.674 839.405 186.147 837.826 186.147 836.055 186.147 834.416 186.805 832.909 188.121 831.402 189.437 829.858 191.196 828.279 193.397L823.255 189.377C826.269 185.214 829.631 181.984 833.34 179.687 837.048 177.39 841.175 176.242 845.721 176.242 850.219 176.242 853.401 177.402 855.268 179.723 857.134 182.044 858.067 185.142 858.067 189.018 858.067 191.267 857.636 193.863 856.775 196.806 855.914 199.749 854.669 202.847 853.042 206.101 851.415 209.355 849.501 212.705 847.3 216.15 845.099 219.595 842.659 222.933 839.979 226.163 837.299 229.393 834.44 232.444 831.402 235.315 828.363 238.186 825.205 240.686 821.927 242.815 818.649 244.945 815.323 246.632 811.95 247.876 808.576 249.12 805.191 249.742 801.793 249.742 799.257 249.742 797.176 249.395 795.549 248.701 793.922 248.007 792.737 247.026 791.996 245.758 791.254 244.49 790.764 243.007 790.524 241.308 790.285 239.609 790.165 237.755 790.165 235.745 790.165 232.97 790.333 230.039 790.668 226.953 791.003 223.866 791.434 220.768 791.96 217.657L796.338 197.344C796.625 196.1 796.865 194.964 797.056 193.935 797.247 192.906 797.343 192.081 797.343 191.459 797.343 190.023 797.044 188.887 796.446 188.049 795.848 187.212 794.616 186.793 792.749 186.793 789.783 186.793 785.548 189.305 780.045 194.33L775.595 189.305C777.844 186.482 781.205 183.599 785.679 180.656 790.154 177.713 795.118 176.242 800.573 176.242Z" fill="#00FF95" fill-rule="evenodd"/><path d="M912.661 216.724 1001.09 216.724 1001.09 226.271 912.661 226.271ZM912.661 186.937 1001.09 186.937 1001.09 196.483 912.661 196.483Z" fill="#FFFFFF" fill-rule="evenodd"/><path d="M1102.59 72.7068C1098.14 72.7068 1094.2 74.9438 1090.75 79.418 1087.31 83.8921 1084.53 89.9094 1082.42 97.47 1080.32 105.031 1079.27 111.802 1079.27 117.783 1079.27 121.276 1079.78 123.884 1080.81 125.607 1081.84 127.329 1083.43 128.191 1085.58 128.191 1088.74 128.191 1091.96 126.647 1095.24 123.561 1098.51 120.475 1101.16 116.85 1103.17 112.687 1105.18 108.524 1106.97 102.829 1108.55 95.6038L1109.13 92.948C1109.89 89.407 1110.27 85.8899 1110.27 82.3967 1110.27 79.1907 1109.68 76.7742 1108.48 75.1472 1107.28 73.5203 1105.32 72.7068 1102.59 72.7068ZM1133.39 34.8083 1141.5 34.8083 1123.34 115.199C1122.62 118.357 1122.26 121.085 1122.26 123.382 1122.26 124.961 1122.52 126.181 1123.05 127.042 1123.58 127.904 1124.49 128.334 1125.78 128.334 1127.26 128.334 1128.86 127.664 1130.59 126.324 1132.31 124.985 1134.32 122.999 1136.62 120.367L1141.78 125.535C1136.76 130.559 1132.43 134.017 1128.79 135.907 1125.16 137.797 1121.33 138.742 1117.31 138.742 1113.29 138.742 1110.11 137.629 1107.76 135.404 1105.42 133.179 1104.24 130.248 1104.24 126.612 1104.24 125.415 1104.39 124.267 1104.68 123.166L1103.74 122.951C1099.2 128.454 1094.95 132.461 1091 134.974 1087.05 137.486 1082.33 138.742 1076.83 138.742 1071.42 138.742 1067.22 136.78 1064.23 132.856 1061.24 128.932 1059.74 123.262 1059.74 115.845 1059.74 109.385 1060.68 102.973 1062.54 96.6086 1064.41 90.2444 1067.09 84.7534 1070.58 80.1357 1074.07 75.5181 1078.46 71.8813 1083.75 69.2256 1089.04 66.5698 1095.01 65.2419 1101.66 65.2419 1105.92 65.2419 1110.03 65.9836 1114.01 67.467L1116.45 56.4851C1116.73 55.2888 1117.07 53.5662 1117.45 51.3171 1117.83 49.0681 1118.03 47.3694 1118.03 46.2209 1118.03 45.1682 1117.92 44.3428 1117.7 43.7446 1117.49 43.1465 1117.16 42.656 1116.73 42.2732 1116.3 41.8904 1115.73 41.5913 1115.01 41.376 1114.29 41.1606 1112.88 40.9094 1110.78 40.6223L1111.92 35.9568Z" fill="#FFFFFF" fill-rule="evenodd"/><path d="M1097.62 257.559 1114.84 257.559 1110.68 275.504 1128.12 275.504 1126.18 284.476 1108.6 284.476 1101.64 313.187C1100.44 318.115 1099.62 321.86 1099.16 324.42 1098.71 326.98 1098.48 329.145 1098.48 330.916 1098.48 333.165 1098.89 334.804 1099.7 335.833 1100.51 336.861 1101.71 337.376 1103.29 337.376 1105.44 337.376 1107.65 336.61 1109.93 335.079 1112.2 333.548 1114.65 331.179 1117.28 327.973L1122.81 333.643C1117.98 338.955 1113.54 342.651 1109.5 344.733 1105.45 346.814 1100.68 347.855 1095.18 347.855 1089.72 347.855 1085.53 346.456 1082.62 343.656 1079.7 340.857 1078.24 336.993 1078.24 332.064 1078.24 329.815 1078.41 327.674 1078.74 325.64 1079.07 323.606 1079.77 320.269 1080.82 315.627L1088.21 284.476 1077.02 284.476 1078.38 278.662C1081.73 278.662 1084.27 278.351 1085.99 277.729 1087.71 277.107 1089.16 276.174 1090.33 274.929 1091.5 273.685 1092.64 271.795 1093.74 269.259 1094.84 266.723 1096.13 262.823 1097.62 257.559Z" fill="#FFFFFF" fill-rule="evenodd"/><path d="M1051.72 201.594 1145.72 201.594 1145.72 211.594 1051.72 211.594Z" fill="#FFFFFF" fill-rule="evenodd"/><path d="M8.77193e-07-3 359.055-2.99989 359.055 3.0001-8.77193e-07 3ZM-2.63158e-06 9-9-2.63158e-06 2.63158e-06-9 9 2.63158e-06ZM359.055-8.9999 368.055 0.000107618 359.055 9.0001 350.055 0.000102355Z" fill="#FF0000" transform="matrix(1 0 0 -1 372.828 201.828)"/></g></g><path d="M-208 1706-102.433 1706-13 1863-208 1863Z" fill="url(#fill25)" fill-rule="evenodd"/><path d="M-332.646 1710.5-222.979 1710.5-222.979 1867-422 1867ZM-217.51 1505-111 1691.55-324.021 1691.55Z" fill="url(#fill26)" fill-rule="evenodd"/><g clip-path="url(#clip27)" filter="url(#fx7)" transform="translate(-246 1602)"><g clip-path="url(#clip28)"><path d="M22.9285 20.6203 22.9285 52.7923 31.9566 52.7923C37.0389 52.7083 41.1368 51.1957 44.2503 48.2547 47.3637 45.3136 48.9644 41.4482 49.0525 36.6584 48.9644 31.8727 47.3637 28.0232 44.2503 25.1101 41.1368 22.1969 37.0389 20.7004 31.9566 20.6203ZM4.31647 3.73633 28.8832 3.73633C36.6248 3.78537 43.4405 5.20087 49.3303 7.98285 55.22 10.7648 59.8294 14.619 63.1584 19.5454 66.4874 24.4718 68.1814 30.1761 68.2405 36.6584 68.1814 43.1419 66.4874 48.8545 63.1584 53.7963 59.8294 58.7381 55.22 62.6076 49.3303 65.405 43.4405 68.2023 36.6248 69.6261 28.8832 69.6763L4.31647 69.6763Z" fill="#FF0000" fill-rule="evenodd"/></g></g><path d="M-227.629 1618.06-227.629 1650.23-218.601 1650.23C-213.519 1650.15-209.421 1648.64-206.308 1645.7-203.194 1642.76-201.593 1638.89-201.505 1634.1-201.593 1629.31-203.194 1625.47-206.308 1622.55-209.421 1619.64-213.519 1618.14-218.601 1618.06ZM-246.241 1601.18-221.675 1601.18C-213.933 1601.23-207.117 1602.64-201.228 1605.43-195.338 1608.21-190.728 1612.06-187.399 1616.99-184.07 1621.91-182.376 1627.62-182.317 1634.1-182.376 1640.58-184.07 1646.3-187.399 1651.24-190.728 1656.18-195.338 1660.05-201.228 1662.85-207.117 1665.64-213.933 1667.07-221.675 1667.12L-246.241 1667.12Z" fill="url(#fill29)" fill-rule="evenodd"/><text fill="#000000" fill-opacity="0" font-family="Arial,Arial_MSFontService,sans-serif" font-size="65.9399" x="-246.241" y="1658.88">D</text><g clip-path="url(#clip30)" filter="url(#fx8)" transform="translate(-324 1760)"><g clip-path="url(#clip31)"><path d="M3.75334 3.74682 61.3413 3.74682 61.3413 20.3428 41.8533 20.3428 41.8533 69.6868 23.2413 69.6868 23.2413 20.3428 3.75334 20.3428Z" fill="#FF0000" fill-rule="evenodd"/></g></g><path d="M-324.804 1759.19-267.216 1759.19-267.216 1775.78-286.704 1775.78-286.704 1825.13-305.316 1825.13-305.316 1775.78-324.804 1775.78Z" fill="url(#fill32)" fill-rule="evenodd"/><text fill="#000000" fill-opacity="0" font-family="Arial,Arial_MSFontService,sans-serif" font-size="65.9399" x="-324.804" y="1816.89">T</text><g clip-path="url(#clip33)" filter="url(#fx9)" transform="translate(-233 1700)"><g clip-path="url(#clip34)"><path d="M50.784-65.952 36-27.36 21.12-65.952 0.096-65.952 25.44 0 46.464 0 71.808-65.952Z" fill="#FFFFFF" transform="translate(64.4845 128)"/></g></g><path d="M50.784-65.952 36-27.36 21.12-65.952 0.096-65.952 25.44 0 46.464 0 71.808-65.952Z" fill="#FFFFFF" transform="translate(-171.254 1825)"/><path d="M371.745 1674.41C376.434 1674.41 380.059 1675.71 382.619 1678.29 385.179 1680.87 386.459 1684.13 386.459 1688.05 386.459 1690.44 386.196 1692.93 385.67 1695.52L381.004 1717.41C380.573 1719.94 380.214 1722.41 379.927 1724.8 379.64 1727.19 379.497 1729.32 379.497 1731.19 379.497 1733.01 379.616 1734.49 379.856 1735.64 380.095 1736.79 380.406 1737.36 380.789 1737.36 382.129 1737.36 383.863 1736.74 385.993 1735.5 388.122 1734.25 390.419 1732.53 392.883 1730.33 395.348 1728.13 397.812 1725.54 400.276 1722.58 402.741 1719.61 404.966 1716.4 406.952 1712.96 408.937 1709.51 410.54 1705.86 411.761 1702.01 412.981 1698.16 413.591 1694.27 413.591 1690.35 413.591 1688.43 413.22 1686.95 412.478 1685.9 411.737 1684.85 410.576 1684.32 408.997 1684.32 407.227 1684.32 405.588 1684.98 404.08 1686.29 402.573 1687.61 401.03 1689.37 399.451 1691.57L394.426 1687.55C397.441 1683.39 400.803 1680.16 404.511 1677.86 408.22 1675.56 412.347 1674.41 416.893 1674.41 421.391 1674.41 424.573 1675.57 426.439 1677.89 428.305 1680.22 429.238 1683.31 429.238 1687.19 429.238 1689.44 428.808 1692.03 427.946 1694.98 427.085 1697.92 425.841 1701.02 424.214 1704.27 422.587 1707.53 420.673 1710.88 418.472 1714.32 416.271 1717.77 413.83 1721.1 411.151 1724.33 408.471 1727.56 405.612 1730.62 402.573 1733.49 399.535 1736.36 396.376 1738.86 393.099 1740.99 389.821 1743.12 386.495 1744.8 383.121 1746.05 379.748 1747.29 376.362 1747.91 372.965 1747.91 370.429 1747.91 368.347 1747.57 366.72 1746.87 365.093 1746.18 363.909 1745.2 363.167 1743.93 362.426 1742.66 361.935 1741.18 361.696 1739.48 361.457 1737.78 361.337 1735.93 361.337 1733.92 361.337 1731.14 361.505 1728.21 361.839 1725.12 362.174 1722.04 362.605 1718.94 363.131 1715.83L367.51 1695.52C367.797 1694.27 368.036 1693.14 368.228 1692.11 368.419 1691.08 368.515 1690.25 368.515 1689.63 368.515 1688.19 368.216 1687.06 367.618 1686.22 367.019 1685.38 365.787 1684.96 363.921 1684.96 360.954 1684.96 356.719 1687.48 351.216 1692.5L346.766 1687.48C349.015 1684.65 352.377 1681.77 356.851 1678.83 361.325 1675.88 366.29 1674.41 371.745 1674.41Z" fill="#00FF95" fill-rule="evenodd"/><text fill="#000000" fill-opacity="0" font-family="Arial,Arial_MSFontService,sans-serif" font-size="73.5" x="346.766" y="1738.73">𝒗</text><path d="M483.832 1714.9 572.262 1714.9 572.262 1724.44 483.832 1724.44ZM483.832 1685.11 572.262 1685.11 572.262 1694.65 483.832 1694.65Z" fill="#FFFFFF" fill-rule="evenodd"/><text fill="#000000" fill-opacity="0" font-family="Arial,Arial_MSFontService,sans-serif" font-size="39.334" x="483.832" y="1719.53">=</text><path d="M673.765 1570.88C669.315 1570.88 665.367 1573.12 661.922 1577.59 658.477 1582.06 655.701 1588.08 653.596 1595.64 651.49 1603.2 650.438 1609.97 650.438 1615.95 650.438 1619.45 650.952 1622.06 651.981 1623.78 653.01 1625.5 654.601 1626.36 656.754 1626.36 659.912 1626.36 663.13 1624.82 666.408 1621.73 669.686 1618.65 672.33 1615.02 674.339 1610.86 676.349 1606.7 678.144 1601 679.723 1593.78L680.297 1591.12C681.063 1587.58 681.445 1584.06 681.445 1580.57 681.445 1577.36 680.847 1574.95 679.651 1573.32 678.455 1571.69 676.493 1570.88 673.765 1570.88ZM704.558 1532.98 712.669 1532.98 694.509 1613.37C693.791 1616.53 693.432 1619.26 693.432 1621.55 693.432 1623.13 693.695 1624.35 694.222 1625.21 694.748 1626.08 695.657 1626.51 696.949 1626.51 698.433 1626.51 700.036 1625.84 701.758 1624.5 703.481 1623.16 705.491 1621.17 707.788 1618.54L712.956 1623.71C707.931 1628.73 703.601 1632.19 699.964 1634.08 696.327 1635.97 692.499 1636.91 688.48 1636.91 684.46 1636.91 681.278 1635.8 678.933 1633.58 676.589 1631.35 675.416 1628.42 675.416 1624.78 675.416 1623.59 675.56 1622.44 675.847 1621.34L674.914 1621.12C670.368 1626.63 666.121 1630.63 662.173 1633.15 658.225 1635.66 653.5 1636.91 647.997 1636.91 642.59 1636.91 638.391 1634.95 635.4 1631.03 632.41 1627.1 630.914 1621.43 630.914 1614.02 630.914 1607.56 631.847 1601.14 633.714 1594.78 635.58 1588.42 638.259 1582.92 641.753 1578.31 645.246 1573.69 649.636 1570.05 654.924 1567.4 660.211 1564.74 666.181 1563.41 672.832 1563.41 677.091 1563.41 681.206 1564.16 685.178 1565.64L687.618 1554.66C687.905 1553.46 688.24 1551.74 688.623 1549.49 689.006 1547.24 689.197 1545.54 689.197 1544.39 689.197 1543.34 689.09 1542.51 688.874 1541.92 688.659 1541.32 688.336 1540.83 687.905 1540.44 687.475 1540.06 686.901 1539.76 686.183 1539.55 685.465 1539.33 684.053 1539.08 681.948 1538.79L683.096 1534.13Z" fill="#FFFFFF" fill-rule="evenodd"/><text fill="#000000" fill-opacity="0" font-family="Arial,Arial_MSFontService,sans-serif" font-size="103.934" x="630.914" y="1623.92">𝒅</text><path d="M668.789 1755.73 686.016 1755.73 681.852 1773.68 699.294 1773.68 697.356 1782.65 679.771 1782.65 672.809 1811.36C671.612 1816.29 670.787 1820.03 670.332 1822.59 669.878 1825.15 669.65 1827.32 669.65 1829.09 669.65 1831.34 670.057 1832.98 670.871 1834 671.684 1835.03 672.88 1835.55 674.459 1835.55 676.613 1835.55 678.826 1834.78 681.099 1833.25 683.372 1831.72 685.824 1829.35 688.456 1826.14L693.983 1831.81C689.15 1837.13 684.712 1840.82 680.668 1842.9 676.625 1844.99 671.852 1846.03 666.349 1846.03 660.893 1846.03 656.706 1844.63 653.788 1841.83 650.869 1839.03 649.409 1835.16 649.409 1830.24 649.409 1827.99 649.577 1825.85 649.912 1823.81 650.247 1821.78 650.94 1818.44 651.993 1813.8L659.386 1782.65 648.189 1782.65 649.553 1776.83C652.902 1776.83 655.438 1776.52 657.161 1775.9 658.884 1775.28 660.331 1774.35 661.504 1773.1 662.676 1771.86 663.812 1769.97 664.913 1767.43 666.014 1764.89 667.306 1760.99 668.789 1755.73Z" fill="#FFFFFF" fill-rule="evenodd"/><text fill="#000000" fill-opacity="0" font-family="Arial,Arial_MSFontService,sans-serif" font-size="90.2959" x="648.189" y="1834.74">𝒕</text><path d="M622.891 1699.77 716.891 1699.77 716.891 1709.77 622.891 1709.77Z" fill="#FFFFFF" fill-rule="evenodd"/><path d="M8.77193e-07-3 359.055-2.99989 359.055 3.0001-8.77193e-07 3ZM-2.63158e-06 9-9-2.63158e-06 2.63158e-06-9 9 2.63158e-06ZM359.055-8.9999 368.055 0.000107618 359.055 9.0001 350.055 0.000102355Z" fill="url(#fill35)" transform="matrix(1 0 0 -1 -56 1700)"/></g></svg>